SplineFontDB: 3.2
FontName: AePagella-Italic
FullName: AePagella-Italic
FamilyName: AePagella
Weight: Regular
Copyright: Copyright 2021, Palle Jorgensen\n\nBased on TeX Gyre Pagella, copyright 2006-2018 for TeX Gyre extensions by B. Jackowski, J.M. Nowacki, et al. (on behalf of TeX USERS GROUPS). Vietnamese characters were added by Han The Thanh.
UComments: "2018-5-8: Created with FontForge (http://fontforge.org)"
Version: 1
ItalicAngle: -10
UnderlinePosition: -100
UnderlineWidth: 50
Ascent: 726
Descent: 274
InvalidEm: 0
LayerCount: 2
Layer: 0 0 "Back" 1
Layer: 1 0 "Fore" 0
XUID: [1021 912 1431420719 964]
StyleMap: 0x0001
FSType: 0
OS2Version: 0
OS2_WeightWidthSlopeOnly: 0
OS2_UseTypoMetrics: 1
CreationTime: 1525771408
ModificationTime: 1615126356
PfmFamily: 16
TTFWeight: 400
TTFWidth: 5
LineGap: 0
VLineGap: 90
Panose: 2 0 6 3 2 2 0 0 0 4
OS2TypoAscent: 733
OS2TypoAOffset: 0
OS2TypoDescent: -276
OS2TypoDOffset: 0
OS2TypoLinegap: 0
OS2WinAscent: 0
OS2WinAOffset: 1
OS2WinDescent: 0
OS2WinDOffset: 1
HheadAscent: 733
HheadAOffset: 0
HheadDescent: -276
HheadDOffset: 0
OS2SubXSize: 650
OS2SubYSize: 699
OS2SubXOff: 0
OS2SubYOff: 140
OS2SupXSize: 650
OS2SupYSize: 699
OS2SupXOff: 0
OS2SupYOff: 479
OS2StrikeYSize: 49
OS2StrikeYPos: 258
OS2Vendor: 'PfEd'
Lookup: 3 0 0 "'aalt' Access All Alternates lookup 0" { "'aalt' Access All Alternates lookup 0 subtable"  } ['aalt' ('DFLT' <'dflt' > ) ]
Lookup: 3 0 0 "'aalt' Access All Alternates in Latin lookup 0" { "'aalt' Access All Alternates in Latin lookup 0 subtable"  } ['aalt' ('latn' <'ROM ' 'MOL ' 'dflt' 'AZE ' 'CRT ' 'NLD ' 'PLK ' 'TRK ' > ) ]
Lookup: 2 0 0 "ccmp_decomp_sub" { "ccmp_decomp_sub subtable"  } []
Lookup: 1 0 0 "locl_ROM" { "locl_ROM subtable"  } ['locl' ('latn' <'ROM ' 'MOL ' > ) ]
Lookup: 1 0 0 "'smcp' Lowercase to Small Capitals in Latin lookup 2" { "'smcp' Lowercase to Small Capitals in Latin lookup 2 subtable"  } ['smcp' ('latn' <'dflt' 'AZE ' 'CRT ' 'MOL ' 'NLD ' 'PLK ' 'ROM ' 'TRK ' > 'DFLT' <'dflt' > ) ]

StartChar: acute
Encoding: 256 180 0
Width: 333
VWidth: 0
Flags: W
TeX: 687 0
HStem: 531 169
VStem: 115 224
LayerCount: 2
Fore
SplineSet
115 531 m 1
 268 682 l 2
 280 694 291 700 301 700 c 0
 321 700 339 685 339 669 c 0
 339 654 332 645 311 632 c 2
 149 531 l 1
 115 531 l 1
EndSplineSet
Validated: 1
EndChar

StartChar: acute.cap
Encoding: 257 -1 1
Width: 333
VWidth: 0
Flags: W
TeX: 655 0
HStem: 600 55<313 342.319>
VStem: 101 243
LayerCount: 2
Fore
SplineSet
101 518 m 1
 268 641 l 2
 280 651 292 655 302 655 c 0
 324 655 344 643 344 630 c 0
 344 618 336 611 313 600 c 2
 138 518 l 1
 101 518 l 1
EndSplineSet
Validated: 1
EndChar

StartChar: circumflex
Encoding: 258 710 2
Width: 333
VWidth: 0
Flags: W
TeX: 679 0
HStem: 532 169
VStem: 58 294
LayerCount: 2
Fore
SplineSet
58 532 m 1
 215 701 l 1
 264 701 l 1
 352 532 l 1
 316 532 l 1
 234 636 l 1
 97 532 l 1
 58 532 l 1
EndSplineSet
Validated: 1
EndChar

StartChar: circumflex.cap
Encoding: 259 -1 3
Width: 333
VWidth: 0
Flags: W
TeX: 656 0
HStem: 519 137
VStem: 37 318
LayerCount: 2
Fore
SplineSet
37 519 m 1
 207 656 l 1
 260 656 l 1
 355 519 l 1
 315 519 l 1
 228 604 l 1
 79 519 l 1
 37 519 l 1
EndSplineSet
Validated: 1
EndChar

StartChar: dieresis
Encoding: 260 168 4
Width: 333
VWidth: 0
Flags: W
TeX: 662 0
HStem: 562 108<119.153 182.384 279.153 342.384>
VStem: 102 94<575.017 653.325> 262 94<575.017 653.325>
LayerCount: 2
Fore
SplineSet
102 603 m 0
 102 637 130 670 160 670 c 0
 181 670 196 653 196 629 c 0
 196 591 173 562 142 562 c 0
 117 562 102 578 102 603 c 0
262 603 m 0
 262 637 290 670 320 670 c 0
 341 670 356 653 356 629 c 0
 356 591 333 562 302 562 c 0
 277 562 262 578 262 603 c 0
EndSplineSet
Validated: 1
EndChar

StartChar: breve
Encoding: 261 728 5
Width: 333
VWidth: 0
Flags: W
TeX: 677 0
HStem: 537 59<150.981 295.897> 676 20G<85 117 338 386>
VStem: 85 29<645.732 696>
LayerCount: 2
Fore
SplineSet
85 696 m 1
 114 696 l 1
 120 630 157 596 223 596 c 0
 283 596 319 623 357 696 c 1
 386 696 l 1
 372 644 362 622 341 596 c 0
 309 556 268 537 216 537 c 0
 164 537 126 557 105 595 c 0
 90 622 85 645 85 696 c 1
EndSplineSet
Validated: 1
EndChar

StartChar: breve.cap
Encoding: 262 -1 6
Width: 333
VWidth: 0
Flags: W
TeX: 652 0
HStem: 523 48<137.178 307.172>
VStem: 74 31<610.406 652>
LayerCount: 2
Fore
SplineSet
74 652 m 1
 105 652 l 1
 110 599 151 571 222 571 c 0
 287 571 326 594 368 652 c 1
 399 652 l 1
 363 558 305 523 215 523 c 0
 121 523 73 563 74 652 c 1
EndSplineSet
Validated: 33
EndChar

StartChar: dotaccent
Encoding: 263 729 7
Width: 333
VWidth: 0
Flags: W
TeX: 662 0
HStem: 562 108<200.153 263.384>
VStem: 183 94<575.017 653.325>
LayerCount: 2
Fore
SplineSet
183 603 m 0
 183 637 211 670 241 670 c 0
 262 670 277 653 277 629 c 0
 277 591 254 562 223 562 c 0
 198 562 183 578 183 603 c 0
EndSplineSet
Validated: 1
EndChar

StartChar: macron
Encoding: 264 175 8
Width: 333
VWidth: 0
Flags: W
TeX: 589 0
HStem: 591 51<85 375>
VStem: 74 312
LayerCount: 2
Fore
SplineSet
74 591 m 1
 85 642 l 1
 386 642 l 1
 375 591 l 1
 74 591 l 1
EndSplineSet
Validated: 1
AlternateSubs2: "'aalt' Access All Alternates lookup 0 subtable" macron.alt
AlternateSubs2: "'aalt' Access All Alternates in Latin lookup 0 subtable" macron.alt
Substitution2: "'ss04' Style Set 4 in Latin lookup 18 subtable" macron.alt
Substitution2: "'ss01' Style Set 1 in Latin lookup 15 subtable" macron.alt
Substitution2: "'salt' Stylistic Alternatives in Latin lookup 14 subtable" macron.alt
EndChar

StartChar: ring
Encoding: 265 730 9
Width: 333
VWidth: 0
Flags: W
TeX: 718 0
HStem: 516 36<185.717 274.065> 680 36<185.024 274.25>
VStem: 130 38<568.351 663.649> 292 38<568.351 663.428>
LayerCount: 2
Fore
SplineSet
130 616 m 0
 130 672 175 716 231 716 c 0
 285 716 330 671 330 616 c 0
 330 560 285 516 230 516 c 0
 174 516 130 560 130 616 c 0
168 616 m 0
 168 578 193 552 230 552 c 0
 267 552 292 578 292 616 c 0
 292 654 267 680 230 680 c 0
 193 680 168 654 168 616 c 0
EndSplineSet
Validated: 1
EndChar

StartChar: hungarumlaut
Encoding: 266 733 10
Width: 333
VWidth: 0
Flags: W
TeX: 731 0
HStem: 531 169
LayerCount: 2
Fore
SplineSet
85 531 m 1
 238 682 l 2
 250 694 261 700 271 700 c 0
 291 700 309 685 309 669 c 0
 309 654 302 645 281 632 c 2
 119 531 l 1
 85 531 l 1
215 531 m 1
 368 682 l 2
 380 694 391 700 401 700 c 0
 421 700 439 685 439 669 c 0
 439 654 432 645 411 632 c 2
 249 531 l 1
 215 531 l 1
EndSplineSet
Validated: 1
EndChar

StartChar: caron
Encoding: 267 711 11
Width: 333
VWidth: 0
Flags: W
TeX: 679 0
HStem: 532 169
VStem: 96 305
LayerCount: 2
Fore
SplineSet
96 701 m 1
 133 701 l 1
 223 596 l 1
 365 701 l 1
 401 701 l 1
 238 532 l 1
 192 532 l 1
 96 701 l 1
EndSplineSet
Validated: 1
EndChar

StartChar: tilde
Encoding: 268 732 12
Width: 333
VWidth: 0
Flags: W
TeX: 638 0
HStem: 565 60<246.073 351.827> 609 59<107.881 215.972>
VStem: 366 28<647.655 668>
LayerCount: 2
Fore
SplineSet
67 565 m 1xa0
 87 638 116 668 165 668 c 0x60
 184 668 205 663 228 654 c 2
 288 630 l 2
 295 627 306 625 315 625 c 0xa0
 335 625 346 634 366 668 c 1
 394 668 l 1x60
 382 603 346 565 297 565 c 0xa0
 284 565 256 572 233 581 c 0
 228 583 195 594 186 600 c 0
 169 607 159 609 148 609 c 0x60
 123 609 111 599 96 565 c 1
 67 565 l 1xa0
EndSplineSet
Validated: 1
EndChar

StartChar: space_uni0309
Encoding: 269 -1 13
Width: 333
VWidth: 0
Flags: W
TeX: 726 0
HStem: 689 37<191.755 262.149>
VStem: 183 33<574 590.597> 263 53<643.392 687.543>
LayerCount: 2
Fore
SplineSet
163 666 m 1
 183 714 l 1
 205 723 221 726 239 726 c 0
 285 726 316 707 316 676 c 0
 316 656 306 641 280 622 c 2
 234 592 l 2
 219 582 216 578 216 574 c 2
 216 574 223 567 241 554 c 1
 207 546 l 1
 192 554 183 563 183 576 c 0
 183 590 191 602 210 618 c 2
 241 643 l 2
 256 656 263 663 263 672 c 0
 263 682 248 689 230 689 c 0
 214 689 205 687 197 677 c 2
 185 663 l 1
 163 666 l 1
EndSplineSet
Validated: 1
EndChar

StartChar: space_uni0309.cap
Encoding: 270 -1 14
Width: 333
VWidth: 0
Flags: W
TeX: 697 0
HStem: 660 37<186.755 257.149>
VStem: 178 33<545 561.597> 258 53<614.392 658.543>
LayerCount: 2
Fore
SplineSet
158 637 m 1
 178 685 l 1
 200 694 216 697 234 697 c 0
 280 697 311 678 311 647 c 0
 311 627 301 612 275 593 c 2
 229 563 l 2
 214 553 211 549 211 545 c 2
 211 545 218 538 236 525 c 1
 202 517 l 1
 187 525 178 534 178 547 c 0
 178 561 186 573 205 589 c 2
 236 614 l 2
 251 627 258 634 258 643 c 0
 258 653 243 660 225 660 c 0
 209 660 200 658 192 648 c 2
 180 634 l 1
 158 637 l 1
EndSplineSet
Validated: 1
EndChar

StartChar: cedilla
Encoding: 271 184 15
Width: 333
VWidth: 0
Flags: W
TeX: 0 -216
HStem: -216 35<4.11955 118.715> -98 36<66.9375 123.001>
VStem: 130 72<-172.644 -103.905>
LayerCount: 2
Fore
SplineSet
-9 -196 m 1
 8 -167 l 1
 43 -178 58 -181 77 -181 c 0
 108 -181 130 -162 130 -136 c 0
 130 -114 111 -98 83 -98 c 0
 76 -98 67 -99 57 -102 c 2
 50 -104 l 1
 41 -96 l 1
 103 5 l 1
 141 5 l 1
 96 -64 l 1
 107 -63 114 -62 120 -62 c 0
 170 -62 202 -89 202 -132 c 0
 202 -183 154 -216 79 -216 c 0
 52 -216 33 -212 -9 -196 c 1
EndSplineSet
Validated: 1
EndChar

StartChar: ogonek
Encoding: 272 731 16
Width: 333
VWidth: 0
Flags: W
TeX: 15 -250
HStem: -250 58<71.5 153.368>
VStem: 42 192
LayerCount: 2
Fore
SplineSet
42 -158 m 0
 57 -74 126 -23 191 15 c 1
 226 15 l 1
 172 -18 122 -56 107 -142 c 0
 101 -173 120 -192 147 -192 c 0
 162 -192 179 -183 215 -156 c 0
 221 -152 222 -151 230 -145 c 1
 234 -166 l 1
 150 -237 123 -250 88 -250 c 0
 55 -250 32 -218 42 -158 c 0
EndSplineSet
Validated: 33
EndChar

StartChar: dotlessi
Encoding: 273 305 17
Width: 278
VWidth: 0
GlyphClass: 2
Flags: W
TeX: 462 0
HStem: -9 65<71.5 149> 412 70<116.5 207.062>
VStem: 51 80<14.0122 136> 138 83<374.253 463.327>
AnchorPoint: "bot_acc" 84 -154 basechar 0
AnchorPoint: "dotbelow" 84 -154 basechar 0
AnchorPoint: "ogon_acc" 84 -154 basechar 0
AnchorPoint: "top_accl" 220 616 basechar 0
AnchorPoint: "dotabove" 220 616 basechar 0
LayerCount: 2
Fore
SplineSet
34 388 m 1
 62 408 l 2
 138 462 174 482 196 482 c 0
 213 482 221 473 221 456 c 0
 221 447 219 437 215 420 c 2
 138 116 l 2
 132 94 131 86 131 76 c 0
 131 65 137 56 144 56 c 0
 154 56 175 66 205 86 c 2
 231 103 l 1
 241 85 l 1
 144 13 107 -9 81 -9 c 0
 62 -9 51 6 51 30 c 0
 51 50 55 75 64 107 c 2
 130 347 l 2
 134 362 138 383 138 391 c 0
 138 403 131 412 121 412 c 0
 112 412 102 408 73 389 c 2
 41 368 l 1
 34 388 l 1
EndSplineSet
Validated: 1
AlternateSubs2: "'aalt' Access All Alternates lookup 0 subtable" dotlessi.sc
AlternateSubs2: "'aalt' Access All Alternates in Latin lookup 0 subtable" dotlessi.sc
Substitution2: "'smcp' Lowercase to Small Capitals in Latin lookup 2 subtable" dotlessi.sc
EndChar

StartChar: i
Encoding: 105 105 18
Width: 278
VWidth: 0
GlyphClass: 2
Flags: W
TeX: 652 0
ItalicCorrection: 16
HStem: -9 65<71.5 149> 412 70<116.5 207.062> 562 108<189.153 252.384>
VStem: 51 80<14.0122 136> 138 83<374.253 463.327> 172 94<575.017 653.325>
AnchorPoint: "bot_acc" 84 -154 basechar 0
AnchorPoint: "dotbelow" 84 -154 basechar 0
AnchorPoint: "ogon_acc" 84 -154 basechar 0
LayerCount: 2
Fore
SplineSet
34 388 m 1xf8
 62 408 l 2
 138 462 174 482 196 482 c 0
 213 482 221 473 221 456 c 0
 221 447 219 437 215 420 c 2
 138 116 l 2
 132 94 131 86 131 76 c 0
 131 65 137 56 144 56 c 0
 154 56 175 66 205 86 c 2
 231 103 l 1
 241 85 l 1
 144 13 107 -9 81 -9 c 0
 62 -9 51 6 51 30 c 0
 51 50 55 75 64 107 c 2
 130 347 l 2
 134 362 138 383 138 391 c 0
 138 403 131 412 121 412 c 0
 112 412 102 408 73 389 c 2
 41 368 l 1
 34 388 l 1xf8
172 603 m 0xf4
 172 637 200 670 230 670 c 0
 251 670 266 653 266 629 c 0
 266 591 243 562 212 562 c 0
 187 562 172 578 172 603 c 0xf4
EndSplineSet
Validated: 1
AlternateSubs2: "'aalt' Access All Alternates lookup 0 subtable" dotlessi i.sc
AlternateSubs2: "'aalt' Access All Alternates in Latin lookup 0 subtable" dotlessi i.sc
Substitution2: "ccmp_sub_acc subtable" dotlessi
Substitution2: "'smcp' Lowercase to Small Capitals in Latin lookup 2 subtable" i.sc
EndChar

StartChar: dotlessj
Encoding: 274 567 19
Width: 278
VWidth: 0
GlyphClass: 2
Flags: W
TeX: 462 -276
HStem: -276 45<-64.2871 15.4608> 414 68<119.5 214.082>
VStem: 145 83<371.002 463.709>
AnchorPoint: "bot_acc" 42 -430 basechar 0
AnchorPoint: "dotbelow" 42 -430 basechar 0
AnchorPoint: "ogon_acc" -13 -430 basechar 0
AnchorPoint: "top_accl" 227 616 basechar 0
AnchorPoint: "dotabove" 227 616 basechar 0
LayerCount: 2
Fore
SplineSet
-70 -269 m 1
 -62 -212 l 1
 -40 -225 -23 -231 -9 -231 c 0
 9 -231 27 -196 38 -144 c 2
 138 351 l 2
 141 364 145 378 145 391 c 0
 145 404 137 414 127 414 c 0
 112 414 94 395 80 389 c 2
 48 368 l 1
 41 388 l 1
 69 408 l 2
 145 462 181 482 203 482 c 0
 219 482 228 473 228 457 c 0
 228 452 226 437 222 420 c 2
 146 70 l 2
 117 -62 103 -111 82 -158 c 0
 46 -236 7 -276 -32 -276 c 0
 -47 -276 -60 -274 -70 -269 c 1
EndSplineSet
Validated: 1
AlternateSubs2: "'aalt' Access All Alternates lookup 0 subtable" dotlessj.sc
AlternateSubs2: "'aalt' Access All Alternates in Latin lookup 0 subtable" dotlessj.sc
Substitution2: "'smcp' Lowercase to Small Capitals in Latin lookup 2 subtable" dotlessj.sc
EndChar

StartChar: j
Encoding: 106 106 20
Width: 278
VWidth: 0
GlyphClass: 2
Flags: W
TeX: 652 275
ItalicCorrection: 22
HStem: -276 45<-64.2871 15.4608> 414 68<119.5 214.082> 562 108<196.153 259.384>
VStem: 145 83<371.002 463.709> 179 94<575.017 653.325>
AnchorPoint: "bot_acc" 42 -430 basechar 0
AnchorPoint: "dotbelow" 42 -430 basechar 0
AnchorPoint: "ogon_acc" -13 -430 basechar 0
LayerCount: 2
Fore
SplineSet
-70 -269 m 1xf0
 -62 -212 l 1
 -40 -225 -23 -231 -9 -231 c 0
 9 -231 27 -196 38 -144 c 2
 138 351 l 2
 141 364 145 378 145 391 c 0
 145 404 137 414 127 414 c 0
 112 414 94 395 80 389 c 2
 48 368 l 1
 41 388 l 1
 69 408 l 2
 145 462 181 482 203 482 c 0
 219 482 228 473 228 457 c 0
 228 452 226 437 222 420 c 2
 146 70 l 2
 117 -62 103 -111 82 -158 c 0
 46 -236 7 -276 -32 -276 c 0
 -47 -276 -60 -274 -70 -269 c 1xf0
179 603 m 0xe8
 179 637 207 670 237 670 c 0
 258 670 273 653 273 629 c 0
 273 591 250 562 219 562 c 0
 194 562 179 578 179 603 c 0xe8
EndSplineSet
Validated: 1
AlternateSubs2: "'aalt' Access All Alternates lookup 0 subtable" dotlessj j.sc
AlternateSubs2: "'aalt' Access All Alternates in Latin lookup 0 subtable" dotlessj j.sc
Substitution2: "ccmp_sub_acc subtable" dotlessj
Substitution2: "'smcp' Lowercase to Small Capitals in Latin lookup 2 subtable" j.sc
EndChar

StartChar: f_f
Encoding: 275 64256 21
Width: 518
VWidth: 0
GlyphClass: 3
Flags: W
TeX: 733 -276
HStem: -276 63<-138.718 -58.7431 101.282 181.257> 383 63<432.25 531.289> 383 54<192 349 432 530.147> 673 60<283.859 360.578 523.859 600.578>
LayerCount: 2
Fore
SplineSet
-162 -268 m 1xb0
 -157 -259 -143 -211 -139 -188 c 1
 -125 -184 l 1
 -108 -206 -96 -213 -73 -213 c 0
 -37 -213 -8 -182 11 -123 c 0
 33 -54 69 132 100 327 c 2
 109 383 l 1
 28 383 l 1
 33 405 l 1
 58 414 78 422 119 442 c 1
 134 521 l 2
 145 578 157 608 179 630 c 0
 202 654 284 715 308 726 c 0
 316 730 332 733 343 733 c 0
 367 733 396 728 413 720 c 1
 385 638 l 1
 375 634 l 1
 360 658 333 673 303 673 c 0
 257 673 229 635 213 549 c 2
 192 437 l 1
 358 437 l 1
 374 521 l 2
 385 578 397 608 419 630 c 0
 442 654 524 715 548 726 c 0
 556 730 572 733 583 733 c 0
 607 733 636 728 653 720 c 1
 625 638 l 1
 615 634 l 1
 600 658 573 673 543 673 c 0
 497 673 469 635 453 549 c 2
 432 437 l 1
 448 437 l 2xb0
 481 437 507 437 539 446 c 1
 543 439 l 1
 537 425 530 402 526 383 c 1xd0
 422 383 l 1
 416 350 408 320 403 295 c 0
 329 -57 308 -126 247 -198 c 0
 208 -245 154 -276 113 -276 c 0
 102 -276 87 -273 78 -268 c 1
 83 -259 97 -211 101 -188 c 1
 115 -184 l 1
 132 -206 144 -213 167 -213 c 0
 203 -213 232 -182 251 -123 c 0
 273 -54 309 132 340 327 c 2
 349 383 l 1
 182 383 l 1
 176 350 168 320 163 295 c 0
 89 -57 68 -126 7 -198 c 0
 -32 -245 -86 -276 -127 -276 c 0
 -138 -276 -153 -273 -162 -268 c 1xb0
EndSplineSet
Validated: 1
Ligature2: "liga_f_f_l subtable" f f
EndChar

StartChar: f_f_i
Encoding: 276 64259 22
Width: 756
VWidth: 0
GlyphClass: 3
Flags: W
TeX: 733 -276
HStem: -276 63<-138.718 -58.7431 101.282 181.257> -9 63<560 637.5> 383 54<192 349 432 512> 462 20G<671 679.5> 562 108<658.153 721.384> 673 60<283.859 360.578 514.716 571.681>
VStem: 641 94<575.017 653.325>
LayerCount: 2
Fore
SplineSet
-162 -268 m 1
 -157 -259 -143 -211 -139 -188 c 1
 -125 -184 l 1
 -108 -206 -96 -213 -73 -213 c 0
 -37 -213 -8 -182 11 -123 c 0
 33 -54 69 132 100 327 c 2
 109 383 l 1
 28 383 l 1
 33 405 l 1
 58 414 78 422 119 442 c 1
 134 521 l 2
 145 578 157 608 179 630 c 0
 202 654 284 715 308 726 c 0
 316 730 332 733 343 733 c 0
 367 733 396 728 413 720 c 1
 385 638 l 1
 375 634 l 1
 360 658 333 673 303 673 c 0
 257 673 229 635 213 549 c 2
 192 437 l 1
 358 437 l 1
 359 443 356 427 374 521 c 0
 385 578 397 608 419 630 c 0
 450 662 519 718 536 726 c 0
 545 730 559 733 571 733 c 0
 584 733 595 731 615 724 c 1
 607 701 603 681 594 635 c 1
 582 632 l 1
 572 658 554 673 532 673 c 0
 497 673 468 628 453 549 c 2
 432 437 l 1
 521 432 l 2
 547 431 573 439 633 467 c 0
 655 477 667 482 675 482 c 0
 684 482 690 469 690 448 c 0
 690 434 689 425 685 406 c 2
 624 108 l 2
 620 91 619 82 619 74 c 0
 619 61 623 54 631 54 c 0
 644 54 661 62 679 75 c 2
 713 101 l 1
 722 81 l 1
 647 21 597 -9 571 -9 c 0
 549 -9 537 6 537 33 c 0
 537 47 539 63 543 81 c 2
 602 355 l 2
 604 359 610 389 610 393 c 0
 610 406 602 415 591 415 c 0
 585 415 582 414 564 406 c 2
 512 383 l 1
 422 383 l 1
 403 295 l 2
 328 -54 308 -126 247 -198 c 0
 208 -245 154 -276 113 -276 c 0
 102 -276 87 -273 78 -268 c 1
 83 -259 97 -211 101 -188 c 1
 115 -184 l 1
 132 -206 144 -213 167 -213 c 0
 203 -213 232 -182 251 -123 c 0
 273 -54 309 132 340 327 c 2
 349 383 l 1
 182 383 l 1
 176 350 168 320 163 295 c 0
 89 -57 68 -126 7 -198 c 0
 -32 -245 -86 -276 -127 -276 c 0
 -138 -276 -153 -273 -162 -268 c 1
641 603 m 0
 641 637 669 670 699 670 c 0
 720 670 735 653 735 629 c 0
 735 591 712 562 681 562 c 0
 656 562 641 578 641 603 c 0
EndSplineSet
Validated: 33
Ligature2: "liga_PLK subtable" f_f i
Ligature2: "liga_NLDb subtable" f_f i
Ligature2: "liga_f_i subtable" f_f i
EndChar

StartChar: f_f_l
Encoding: 277 64260 23
Width: 787
VWidth: 0
GlyphClass: 3
Flags: W
TeX: 733 -276
HStem: -276 63<-138.718 -58.7431 101.282 181.257> -9 65<566.5 648.5> 383 63<432.25 531.289> 383 54<192 349 432 530.147> 673 60<283.859 360.578 523.312 590.448> 673 24<616 657.813>
VStem: 547 80<13.0184 146.456>
LayerCount: 2
Fore
SplineSet
-162 -268 m 1xd2
 -157 -259 -143 -211 -139 -188 c 1
 -125 -184 l 1
 -108 -206 -96 -213 -73 -213 c 0
 -37 -213 -8 -182 11 -123 c 0
 33 -54 69 132 100 327 c 2
 109 383 l 1
 28 383 l 1
 33 405 l 1
 58 414 78 422 119 442 c 1
 134 521 l 2
 145 578 157 608 179 630 c 0
 202 654 284 715 308 726 c 0
 316 730 332 733 343 733 c 0
 367 733 396 728 413 720 c 1
 385 638 l 1
 375 634 l 1
 360 658 333 673 303 673 c 0
 257 673 229 635 213 549 c 2
 192 437 l 1
 358 437 l 1
 359 443 356 427 374 521 c 0
 385 578 397 607 419 630 c 0
 443 654 524 715 548 726 c 0
 557 730 572 733 585 733 c 0xda
 597 733 605 731 623 725 c 1
 616 697 l 1xc6
 662 698 703 709 744 733 c 1xca
 760 725 l 1
 637 150 l 2
 630 118 627 95 627 79 c 0
 627 64 632 56 643 56 c 0
 654 56 665 61 683 74 c 2
 731 108 l 1
 740 87 l 1
 705 61 l 2
 625 2 607 -9 576 -9 c 0
 557 -9 547 4 547 30 c 0
 547 52 555 85 560 107 c 2
 644 506 l 2
 663 598 664 602 666 642 c 1
 660 666 653 673 627 673 c 2
 611 673 l 1
 605 632 l 1
 595 632 l 1
 586 657 568 669 540 669 c 0
 493 669 469 636 453 549 c 2
 432 437 l 1
 448 437 l 2xd6
 481 437 507 437 539 446 c 1
 543 439 l 1
 537 425 530 402 526 383 c 1xe2
 422 383 l 1
 416 350 408 320 403 295 c 0
 329 -57 308 -126 247 -198 c 0
 208 -245 154 -276 113 -276 c 0
 102 -276 87 -273 78 -268 c 1
 83 -259 97 -211 101 -188 c 1
 115 -184 l 1
 132 -206 144 -213 167 -213 c 0
 203 -213 232 -182 251 -123 c 0
 273 -54 309 132 340 327 c 2
 349 383 l 1
 182 383 l 1
 176 350 168 320 163 295 c 0
 89 -57 68 -126 7 -198 c 0
 -32 -245 -86 -276 -127 -276 c 0
 -138 -276 -153 -273 -162 -268 c 1xd2
EndSplineSet
Validated: 1
Ligature2: "liga_f_f_l subtable" f f l
EndChar

StartChar: f_k
Encoding: 278 -1 24
Width: 731
VWidth: 0
GlyphClass: 3
Flags: W
TeX: 733 -276
HStem: -276 63<-138.718 -58.7431> -9 61<574.5 634.418> 383 63<192.25 291.289> 383 54<192 290.147> 416 66<623.419 722.29> 673 60<283.859 360.578>
LayerCount: 2
Fore
SplineSet
-162 -268 m 1xd4
 -157 -259 -143 -211 -139 -188 c 1
 -125 -184 l 1
 -108 -206 -96 -213 -73 -213 c 0
 -37 -213 -8 -182 11 -123 c 0
 33 -54 69 132 100 327 c 2
 109 383 l 1
 28 383 l 1xd4
 33 405 l 1
 58 414 78 422 119 442 c 1
 134 521 l 2
 145 578 157 608 179 630 c 0
 202 654 284 715 308 726 c 0
 316 730 332 733 343 733 c 0
 367 733 396 728 413 720 c 1
 410 712 407 705 405 698 c 1
 444 705 473 715 509 733 c 1
 521 722 l 1
 414 230 l 1
 539 406 622 482 688 482 c 0
 701 482 719 479 736 473 c 1
 719 410 l 1
 702 414 692 416 683 416 c 0xcc
 633 416 587 391 526 330 c 2
 512 316 l 1
 551 193 573 139 608 75 c 0
 617 58 624 52 634 52 c 0
 643 52 649 54 663 62 c 2
 706 86 l 1
 714 67 l 1
 668 35 l 2
 623 4 600 -9 587 -9 c 0
 562 -9 530 59 461 259 c 1
 427 225 403 180 394 132 c 2
 371 8 l 1
 304 -9 l 1
 295 1 l 1
 347 211 363 278 377 354 c 2
 425 622 l 2
 426 630 427 637 427 646 c 0
 427 662 419 670 395 670 c 1
 391 658 387 646 385 638 c 1
 375 634 l 1
 360 658 333 673 303 673 c 0
 257 673 229 635 213 549 c 2
 192 437 l 1
 208 437 l 2xd4
 241 437 267 437 299 446 c 1
 303 439 l 1
 297 425 290 402 286 383 c 1xe4
 182 383 l 1
 176 350 168 320 163 295 c 0
 89 -57 68 -126 7 -198 c 0
 -32 -245 -86 -276 -127 -276 c 0
 -138 -276 -153 -273 -162 -268 c 1xd4
EndSplineSet
Validated: 1
Ligature2: "liga_PLK subtable" f k
EndChar

StartChar: exclam
Encoding: 33 33 25
Width: 333
VWidth: 0
Flags: W
TeX: 685 0
HStem: -8 117<93.3542 163.845> 713 20G<215.615 292>
VStem: 76 105<9.19895 92.6118>
LayerCount: 2
Fore
SplineSet
76 39 m 0
 76 77 103 109 136 109 c 0
 161 109 181 88 181 61 c 0
 181 24 153 -8 120 -8 c 0
 93 -8 76 10 76 39 c 0
133 194 m 1
 154 348 l 1
 189 636 l 1
 196 707 l 1
 281 733 l 1
 292 724 l 1
 169 208 l 1
 139 191 l 1
 133 194 l 1
EndSplineSet
Validated: 1
EndChar

StartChar: numbersign
Encoding: 35 35 26
Width: 500
VWidth: 0
Flags: W
TeX: 685 0
ItalicCorrection: 22
HStem: 227 56<4 111 178 303 370 470> 423 56<31 141 207 332 398 495> 672 20G<177.089 238 367.183 428>
LayerCount: 2
Fore
SplineSet
4 227 m 1
 4 283 l 1
 120 283 l 1
 141 423 l 1
 31 423 l 1
 31 479 l 1
 149 479 l 1
 180 692 l 1
 238 692 l 1
 207 479 l 1
 340 479 l 1
 370 692 l 1
 428 692 l 1
 398 479 l 1
 495 479 l 1
 495 423 l 1
 390 423 l 1
 370 283 l 1
 470 283 l 1
 470 227 l 1
 361 227 l 1
 330 0 l 1
 272 0 l 1
 303 227 l 1
 169 227 l 1
 136 0 l 1
 78 0 l 1
 111 227 l 1
 4 227 l 1
178 283 m 1
 312 283 l 1
 332 423 l 1
 199 423 l 1
 178 283 l 1
EndSplineSet
Validated: 1
EndChar

StartChar: dollar
Encoding: 36 36 27
Width: 500
VWidth: 0
Flags: W
TeX: 719 113
HStem: -12 44<105.225 170 212 281.96> 301 70<192.883 222 267 314.359> 713 20G<286.097 326>
VStem: 37 26<73.9365 175> 72 67<416.902 539.985> 360 74<134.192 261.128> 403 24<514 575.506>
LayerCount: 2
Fore
SplineSet
15 30 m 1xfc
 24 68 30 104 37 175 c 1
 63 175 l 1
 63 85 l 1
 87 57 119 42 178 32 c 1
 222 305 l 1
 112 329 72 368 72 449 c 0
 72 513 100 570 154 613 c 0
 187 640 215 653 280 671 c 1
 289 733 l 1
 326 733 l 1
 316 673 l 1
 374 672 413 663 450 639 c 1
 452 629 l 1
 442 592 433 552 427 514 c 1
 403 514 l 1
 403 586 l 1xfa
 383 608 346 624 308 628 c 1
 267 371 l 1
 334 360 364 349 391 326 c 0
 419 303 434 268 434 224 c 0
 434 152 394 82 324 34 c 0
 286 8 258 -3 205 -11 c 1
 191 -113 l 1
 150 -113 l 1
 170 -12 l 1
 79 -2 43 8 15 30 c 1xfc
139 480 m 0
 139 425 166 396 234 377 c 1
 274 628 l 1
 241 627 223 622 200 605 c 0
 163 579 139 530 139 480 c 0
212 32 m 1
 248 34 268 40 294 59 c 0
 335 89 360 140 360 193 c 0xfc
 360 255 334 282 255 301 c 1
 212 32 l 1
EndSplineSet
Validated: 1
AlternateSubs2: "'aalt' Access All Alternates lookup 0 subtable" dollar.oldstyle
AlternateSubs2: "'aalt' Access All Alternates in Latin lookup 0 subtable" dollar.oldstyle
Substitution2: "'onum' Oldstyle Figures in Latin lookup 3 subtable" dollar.oldstyle
EndChar

StartChar: percent
Encoding: 37 37 28
Width: 889
VWidth: 0
Flags: W
TeX: 685 0
HStem: 0 23<600.973 673.976> 297 23<638.201 713.96> 379 23<177.973 250.976> 676 23<215.201 290.96>
VStem: 74 70<443.73 601.683> 320 66<475.994 639.516> 497 70<64.7302 222.683> 743 66<96.9935 260.516>
LayerCount: 2
Fore
SplineSet
74 522 m 0
 74 616 159 699 254 699 c 0
 330 699 386 641 386 562 c 0
 386 459 311 379 215 379 c 0
 134 379 74 440 74 522 c 0
144 499 m 0
 144 439 171 402 214 402 c 0
 243 402 268 419 288 453 c 0
 307 487 320 542 320 589 c 0
 320 644 296 676 254 676 c 0
 192 676 144 599 144 499 c 0
206 -7 m 1
 630 710 l 1
 674 710 l 1
 247 -7 l 1
 206 -7 l 1
497 143 m 0
 497 237 582 320 677 320 c 0
 753 320 809 262 809 183 c 0
 809 80 734 0 638 0 c 0
 557 0 497 61 497 143 c 0
567 120 m 0
 567 60 594 23 637 23 c 0
 666 23 691 40 711 74 c 0
 730 108 743 163 743 210 c 0
 743 265 719 297 677 297 c 0
 615 297 567 220 567 120 c 0
EndSplineSet
Validated: 1
EndChar

StartChar: ampersand
Encoding: 38 38 29
Width: 778
VWidth: 0
Flags: W
TeX: 685 0
ItalicCorrection: 16
HStem: -18 47<228.152 417.096> 369 50<295.013 369> 642 50<325.003 447.582>
VStem: 47 83<116.249 265.02> 177 72<459.402 559.729> 374 23<206.391 243.743> 465 23<548 580.038> 564 70<150.839 258.883> 731 35<413.899 494.592>
LayerCount: 2
Fore
SplineSet
47 173 m 0
 47 230 67 280 107 314 c 0
 143 346 175 362 256 390 c 1
 200 416 177 445 177 490 c 0
 177 558 245 637 337 676 c 0
 362 687 388 692 417 692 c 0
 453 692 482 684 514 667 c 1
 488 548 l 1
 465 548 l 1
 465 610 l 1
 430 633 404 642 375 642 c 0
 305 642 249 589 249 522 c 0
 249 477 273 444 318 428 c 0
 339 420 349 419 389 419 c 1
 387 415 369 376 369 371 c 2
 369 369 l 1
 333 369 l 2
 213 369 130 297 130 194 c 0
 130 96 212 29 333 29 c 0
 456 29 564 109 564 199 c 0
 564 252 527 288 474 288 c 0
 427 288 412 271 397 205 c 1
 374 207 l 1
 382 306 l 1
 413 336 434 345 507 357 c 2
 618 375 l 2
 695 387 731 413 731 456 c 0
 731 481 723 492 693 508 c 1
 714 524 l 1
 752 506 766 484 766 444 c 0
 766 378 719 332 640 321 c 2
 555 309 l 1
 572 307 l 2
 604 303 634 262 634 223 c 0
 634 151 569 75 463 22 c 0
 415 -2 347 -18 287 -18 c 0
 140 -18 47 56 47 173 c 0
EndSplineSet
Validated: 1
AlternateSubs2: "'aalt' Access All Alternates lookup 0 subtable" ampersand
AlternateSubs2: "'aalt' Access All Alternates in Latin lookup 0 subtable" ampersand
Substitution2: "'lnum' Lining Figures in Latin lookup 4 subtable" ampersand
Substitution2: "'onum' Oldstyle Figures in Latin lookup 3 subtable" ampersand
EndChar

StartChar: comma
Encoding: 44 44 30
Width: 250
VWidth: 0
Flags: W
TeX: 117 140
HStem: -143 266
VStem: 8 195
LayerCount: 2
Fore
SplineSet
8 -133 m 1
 48 -82 73 -27 95 62 c 2
 103 94 l 1
 194 123 l 1
 203 110 l 1
 169 31 123 -40 50 -130 c 1
 15 -143 l 1
 8 -133 l 1
EndSplineSet
Validated: 1
EndChar

StartChar: hyphen
Encoding: 45 45 31
Width: 333
VWidth: 0
Flags: W
TeX: 279 0
HStem: 223 58<38 286>
VStem: 19 285
LayerCount: 2
Fore
SplineSet
19 223 m 1
 38 281 l 1
 304 281 l 1
 286 223 l 1
 19 223 l 1
EndSplineSet
Validated: 1
EndChar

StartChar: period
Encoding: 46 46 32
Width: 250
VWidth: 0
Flags: W
TeX: 117 0
HStem: -5 117<70.3542 140.845>
VStem: 53 105<12.1989 95.6118>
LayerCount: 2
Fore
SplineSet
53 42 m 0
 53 80 80 112 113 112 c 0
 138 112 158 91 158 64 c 0
 158 27 130 -5 97 -5 c 0
 70 -5 53 13 53 42 c 0
EndSplineSet
Validated: 1
EndChar

StartChar: zero
Encoding: 48 48 33
Width: 500
VWidth: 0
Flags: W
TeX: 685 0
ItalicCorrection: 8
HStem: -11 29<162.886 262.388> 670 29<249.783 351.008>
VStem: 36 76<96.7143 389.023> 404 76<298.788 590.436>
LayerCount: 2
Fore
SplineSet
36 231 m 0
 36 367 74 511 133 597 c 0
 180 665 238 699 308 699 c 0
 414 699 480 611 480 468 c 0
 480 345 449 210 400 121 c 0
 352 33 287 -11 208 -11 c 0
 98 -11 36 76 36 231 c 0
112 178 m 0
 112 72 145 18 212 18 c 0
 272 18 315 65 351 171 c 0
 381 258 404 403 404 502 c 0
 404 615 371 670 302 670 c 0
 231 670 187 610 150 465 c 0
 127 372 112 261 112 178 c 0
EndSplineSet
Validated: 1
AlternateSubs2: "'aalt' Access All Alternates lookup 0 subtable" zero.slash zero.prop zero.oldstyle
AlternateSubs2: "'aalt' Access All Alternates in Latin lookup 0 subtable" zero.slash zero.prop zero.oldstyle
Substitution2: "'zero' Slashed Zero in Latin lookup 21 subtable" zero.slash
Substitution2: "'pnum' Proportional Numbers in Latin lookup 5 subtable" zero.prop
Substitution2: "'onum' Oldstyle Figures in Latin lookup 3 subtable" zero.oldstyle
EndChar

StartChar: one
Encoding: 49 49 34
Width: 500
VWidth: 0
Flags: W
TeX: 685 0
HStem: -3 27<59 118.5 327 393> 679 20G<310.22 374>
LayerCount: 2
Fore
SplineSet
54 -3 m 1
 59 24 l 1
 144 34 l 2
 175 38 184 50 192 102 c 2
 278 629 l 1
 235 612 252 625 175 587 c 2
 91 546 l 1
 84 551 l 1
 95 610 l 1
 119 616 l 2
 191 634 221 642 259 658 c 2
 359 699 l 1
 374 688 l 1
 350 573 l 1
 276 136 l 2
 269 94 268 87 268 76 c 0
 268 41 281 31 327 28 c 2
 398 24 l 1
 393 -3 l 1
 337 -1 281 0 224 0 c 0
 167 0 111 -1 54 -3 c 1
EndSplineSet
Validated: 1
AlternateSubs2: "'aalt' Access All Alternates lookup 0 subtable" one.prop one.oldstyle
AlternateSubs2: "'aalt' Access All Alternates in Latin lookup 0 subtable" one.prop one.oldstyle
Substitution2: "'pnum' Proportional Numbers in Latin lookup 5 subtable" one.prop
Substitution2: "'onum' Oldstyle Figures in Latin lookup 3 subtable" one.oldstyle
EndChar

StartChar: two
Encoding: 50 50 35
Width: 500
VWidth: 0
Flags: W
TeX: 685 0
HStem: -3 77<183.031 415> -3 66<101 415> 634 65<172.394 309.304>
VStem: 352 85<435.997 592.291>
LayerCount: 2
Fore
SplineSet
12 -3 m 1x70
 12 15 l 1
 61 67 l 2
 139 149 209 232 251 286 c 0
 315 369 352 455 352 523 c 0
 352 589 307 634 241 634 c 0
 184 634 147 606 98 526 c 1
 76 535 l 1
 136 655 l 1
 180 687 217 699 268 699 c 0
 371 699 437 636 437 538 c 0
 437 469 405 394 348 332 c 2
 101 63 l 1
 311 63 l 2x70
 346 63 380 66 426 74 c 1
 432 66 l 1
 415 -3 l 1xb0
 348 -1 281 0 214 0 c 0
 147 0 79 -1 12 -3 c 1x70
EndSplineSet
Validated: 1
AlternateSubs2: "'aalt' Access All Alternates lookup 0 subtable" two.prop two.oldstyle
AlternateSubs2: "'aalt' Access All Alternates in Latin lookup 0 subtable" two.prop two.oldstyle
Substitution2: "'pnum' Proportional Numbers in Latin lookup 5 subtable" two.prop
Substitution2: "'onum' Oldstyle Figures in Latin lookup 3 subtable" two.oldstyle
EndChar

StartChar: three
Encoding: 51 51 36
Width: 500
VWidth: 0
Flags: W
TeX: 685 0
HStem: -11 34<121.121 260.163> 362 37<160.703 282.025> 638 61<191.732 326.813>
VStem: 50 24<141.75 174.458> 360 79<490.752 606.256> 361 86<139.344 309.584>
LayerCount: 2
Fore
SplineSet
22 33 m 1xf4
 50 178 l 1
 74 173 l 1
 71 149 70 140 70 130 c 0
 70 64 117 23 193 23 c 0
 234 23 270 38 297 66 c 0
 337 107 361 167 361 228 c 0xf4
 361 313 311 362 226 362 c 0
 201 362 184 359 148 346 c 1
 142 358 l 1
 160 401 l 1
 175 401 190 400 204 399 c 0
 291 395 360 464 360 545 c 0
 360 601 320 638 259 638 c 0
 215 638 191 625 152 580 c 2
 131 556 l 1
 112 569 l 1
 170 668 l 1
 220 691 250 699 286 699 c 0
 377 699 439 646 439 569 c 0xf8
 439 497 399 448 294 393 c 1
 347 380 370 371 395 353 c 0
 430 326 447 287 447 235 c 0
 447 99 323 -11 170 -11 c 0
 111 -11 70 1 22 33 c 1xf4
EndSplineSet
Validated: 33
AlternateSubs2: "'aalt' Access All Alternates lookup 0 subtable" three.prop three.oldstyle
AlternateSubs2: "'aalt' Access All Alternates in Latin lookup 0 subtable" three.prop three.oldstyle
Substitution2: "'pnum' Proportional Numbers in Latin lookup 5 subtable" three.prop
Substitution2: "'onum' Oldstyle Figures in Latin lookup 3 subtable" three.oldstyle
EndChar

StartChar: four
Encoding: 52 52 37
Width: 500
VWidth: 0
Flags: W
TeX: 685 0
ItalicCorrection: 5
HStem: -3 27<110 170.2 380.1 436> 192 56<75 268 346 462.941> 679 20G<352 429>
LayerCount: 2
Fore
SplineSet
15 192 m 1
 15 223 l 1
 352 684 l 1
 421 699 l 1
 429 694 l 1
 346 248 l 1
 474 248 l 1
 478 243 l 1
 462 188 l 1
 445 189 427 191 409 191 c 2
 336 191 l 1
 327 138 l 2
 321 103 318 75 318 54 c 0
 318 42 327 37 354 34 c 2
 441 24 l 1
 436 -3 l 1
 381 -1 326 0 271 0 c 0
 216 0 160 -1 105 -3 c 1
 110 24 l 1
 196 34 l 2
 229 38 240 48 248 90 c 2
 268 192 l 1
 15 192 l 1
75 248 m 1
 278 248 l 1
 345 621 l 1
 75 248 l 1
EndSplineSet
Validated: 1
AlternateSubs2: "'aalt' Access All Alternates lookup 0 subtable" four.prop four.oldstyle
AlternateSubs2: "'aalt' Access All Alternates in Latin lookup 0 subtable" four.prop four.oldstyle
Substitution2: "'pnum' Proportional Numbers in Latin lookup 5 subtable" four.prop
Substitution2: "'onum' Oldstyle Figures in Latin lookup 3 subtable" four.oldstyle
EndChar

StartChar: five
Encoding: 53 53 38
Width: 500
VWidth: 0
Flags: W
TeX: 685 0
ItalicCorrection: 19
HStem: -11 36<115.024 259.992> 389 45<180.348 308.691> 623 69<186.519 456> 673 20G<158 187>
VStem: 43 23<136.471 176.522> 359 86<162.023 336.108>
LayerCount: 2
Fore
SplineSet
14 41 m 1xec
 23 73 32 115 43 180 c 1
 66 175 l 1
 64 159 63 146 63 136 c 0
 63 69 113 25 187 25 c 0
 230 25 266 40 293 68 c 0
 335 111 359 177 359 247 c 0
 359 337 314 389 235 389 c 0
 189 389 158 373 115 329 c 1
 94 338 l 1
 158 688 l 1
 166 693 l 1xdc
 187 692 l 2
 248 689 276 686 333 686 c 2
 453 689 l 1
 485 690 l 1
 491 681 l 1
 456 623 l 1
 405 620 350 618 309 618 c 0
 271 618 229 620 188 623 c 1
 137 382 l 1
 177 418 220 434 276 434 c 0
 379 434 445 368 445 266 c 0
 445 223 431 172 407 128 c 0
 360 41 270 -11 169 -11 c 0
 106 -11 62 4 14 41 c 1xec
EndSplineSet
Validated: 1
AlternateSubs2: "'aalt' Access All Alternates lookup 0 subtable" five.prop five.oldstyle
AlternateSubs2: "'aalt' Access All Alternates in Latin lookup 0 subtable" five.prop five.oldstyle
Substitution2: "'pnum' Proportional Numbers in Latin lookup 5 subtable" five.prop
Substitution2: "'onum' Oldstyle Figures in Latin lookup 3 subtable" five.oldstyle
EndChar

StartChar: six
Encoding: 54 54 39
Width: 500
VWidth: 0
Flags: W
TeX: 685 0
HStem: -11 46<171.216 288.766> 362 55<225.686 330.836> 635 64<381.069 453> 653 46<315.686 453.629>
VStem: 49 76<86.6119 275.799> 372 76<154.308 318.536>
LayerCount: 2
Fore
SplineSet
49 200 m 0xdc
 49 332 96 463 182 568 c 0
 256 659 329 699 421 699 c 0
 440 699 455 697 469 694 c 1
 453 635 l 1
 445 635 l 1xec
 414 650 403 653 380 653 c 0
 314 653 254 610 209 531 c 0
 177 475 155 411 133 311 c 1
 195 387 245 417 312 417 c 0
 397 417 448 360 448 263 c 0
 448 215 436 166 413 125 c 0
 369 46 282 -11 202 -11 c 0
 106 -11 49 68 49 200 c 0xdc
125 174 m 0
 125 90 168 35 234 35 c 0
 313 35 372 120 372 236 c 0
 372 315 332 362 265 362 c 0
 184 362 125 283 125 174 c 0
EndSplineSet
Validated: 1
AlternateSubs2: "'aalt' Access All Alternates lookup 0 subtable" six.prop six.oldstyle
AlternateSubs2: "'aalt' Access All Alternates in Latin lookup 0 subtable" six.prop six.oldstyle
Substitution2: "'pnum' Proportional Numbers in Latin lookup 5 subtable" six.prop
Substitution2: "'onum' Oldstyle Figures in Latin lookup 3 subtable" six.oldstyle
EndChar

StartChar: seven
Encoding: 55 55 40
Width: 500
VWidth: 0
Flags: W
TeX: 685 0
ItalicCorrection: 30
HStem: -3 21G<53 65 140 177> 613 74<101 432>
LayerCount: 2
Fore
SplineSet
53 5 m 1
 78 43 60 13 154 164 c 2
 432 613 l 1
 190 613 l 2
 157 613 124 610 91 608 c 1
 85 612 l 1
 101 690 l 1
 199 688 297 687 395 687 c 0
 431 687 466 688 502 690 c 1
 502 688 502 653 502 653 c 1
 376 450 l 2
 297 323 214 163 140 -3 c 1
 140 -3 117 0 102 0 c 0
 85 0 72 -1 58 -3 c 1
 53 5 l 1
EndSplineSet
Validated: 1
AlternateSubs2: "'aalt' Access All Alternates lookup 0 subtable" seven.prop seven.oldstyle
AlternateSubs2: "'aalt' Access All Alternates in Latin lookup 0 subtable" seven.prop seven.oldstyle
Substitution2: "'pnum' Proportional Numbers in Latin lookup 5 subtable" seven.prop
Substitution2: "'onum' Oldstyle Figures in Latin lookup 3 subtable" seven.oldstyle
EndChar

StartChar: eight
Encoding: 56 56 41
Width: 500
VWidth: 0
Flags: W
TeX: 685 0
HStem: -11 42<153.528 280.402> 657 42<251.427 365.365>
VStem: 36 76<72.1646 215.233> 117 68<457.358 570.248> 355 76<137.169 271.621> 401 68<492.136 621.56>
LayerCount: 2
Fore
SplineSet
36 130 m 0xf8
 36 181 57 229 98 272 c 0
 129 304 155 322 217 352 c 1
 148 391 117 434 117 490 c 0
 117 594 228 699 336 699 c 0
 417 699 469 651 469 576 c 0xf4
 469 500 434 454 320 378 c 1
 407 330 431 297 431 228 c 0
 431 102 316 -11 188 -11 c 0
 96 -11 36 45 36 130 c 0xf8
112 148 m 0
 112 75 152 31 221 31 c 0
 299 31 355 100 355 195 c 0xf8
 355 255 337 284 273 321 c 2
 244 338 l 1
 156 292 112 229 112 148 c 0
185 522 m 0
 185 478 211 439 257 413 c 2
 291 394 l 1
 364 441 401 495 401 556 c 0xf4
 401 616 362 657 304 657 c 0
 236 657 185 599 185 522 c 0
EndSplineSet
Validated: 1
AlternateSubs2: "'aalt' Access All Alternates lookup 0 subtable" eight.prop eight.oldstyle
AlternateSubs2: "'aalt' Access All Alternates in Latin lookup 0 subtable" eight.prop eight.oldstyle
Substitution2: "'pnum' Proportional Numbers in Latin lookup 5 subtable" eight.prop
Substitution2: "'onum' Oldstyle Figures in Latin lookup 3 subtable" eight.oldstyle
EndChar

StartChar: nine
Encoding: 57 57 42
Width: 500
VWidth: 0
Flags: W
TeX: 685 0
HStem: -11 48<99.7879 229.281> 276 54<191.636 300.69> 654 45<219.648 344.027>
VStem: 71 76<379.334 544.16> 392 76<408.907 600.182>
LayerCount: 2
Fore
SplineSet
32 111 m 1
 53 119 l 1
 84 60 117 37 168 37 c 0
 232 37 285 79 324 162 c 0
 349 214 365 270 386 377 c 1
 327 303 282 276 219 276 c 0
 130 276 71 341 71 440 c 0
 71 579 183 699 312 699 c 0
 414 699 468 623 468 481 c 0
 468 345 427 213 355 118 c 0
 293 36 215 -11 142 -11 c 0
 116 -11 89 -5 63 8 c 1
 61 16 60 19 56 34 c 0
 46 73 41 90 32 111 c 1
147 469 m 0
 147 381 188 330 259 330 c 0
 336 330 392 405 392 508 c 0
 392 596 349 654 283 654 c 0
 204 654 147 577 147 469 c 0
EndSplineSet
Validated: 1
AlternateSubs2: "'aalt' Access All Alternates lookup 0 subtable" nine.prop nine.oldstyle
AlternateSubs2: "'aalt' Access All Alternates in Latin lookup 0 subtable" nine.prop nine.oldstyle
Substitution2: "'pnum' Proportional Numbers in Latin lookup 5 subtable" nine.prop
Substitution2: "'onum' Oldstyle Figures in Latin lookup 3 subtable" nine.oldstyle
EndChar

StartChar: colon
Encoding: 58 58 43
Width: 250
VWidth: 0
Flags: W
TeX: 450 0
HStem: -5 117<61.3542 131.845> 341 117<119.354 190.269>
VStem: 44 105<12.1989 95.6118> 102 105<357.862 441.612>
LayerCount: 2
Fore
SplineSet
44 42 m 0xe0
 44 80 71 112 104 112 c 0
 129 112 149 91 149 64 c 0
 149 27 121 -5 88 -5 c 0
 61 -5 44 13 44 42 c 0xe0
102 388 m 0xd0
 102 426 129 458 162 458 c 0
 187 458 207 437 207 410 c 0
 207 372 180 341 146 341 c 0
 119 341 102 359 102 388 c 0xd0
EndSplineSet
Validated: 1
EndChar

StartChar: semicolon
Encoding: 59 59 44
Width: 250
VWidth: 0
Flags: W
TeX: 450 147
HStem: 339 117<131.354 202.269>
VStem: 114 105<355.862 439.612>
LayerCount: 2
Fore
SplineSet
-9 -136 m 1
 31 -85 56 -30 78 59 c 2
 86 91 l 1
 177 120 l 1
 186 107 l 1
 152 28 106 -43 33 -133 c 1
 -2 -146 l 1
 -9 -136 l 1
114 386 m 0
 114 424 141 456 174 456 c 0
 199 456 219 435 219 408 c 0
 219 370 192 339 158 339 c 0
 131 339 114 357 114 386 c 0
EndSplineSet
Validated: 1
EndChar

StartChar: question
Encoding: 63 63 45
Width: 500
VWidth: 0
Flags: W
TeX: 685 0
HStem: -8 117<131.354 201.845> 647 59<182.177 312.579>
VStem: 114 105<9.19895 92.6118> 163 36<210.021 292.943> 345 82<494.284 615.497>
LayerCount: 2
Fore
SplineSet
114 39 m 0xe8
 114 77 141 109 174 109 c 0
 199 109 219 88 219 61 c 0
 219 24 191 -8 158 -8 c 0
 131 -8 114 10 114 39 c 0xe8
115 571 m 1
 155 669 l 1
 199 696 230 706 270 706 c 0
 364 706 427 652 427 572 c 0
 427 520 405 477 353 427 c 2
 249 327 l 2
 211 291 199 272 199 250 c 0
 199 233 207 219 226 199 c 1
 201 193 l 1
 176 209 163 230 163 256 c 0xd8
 163 291 179 323 218 367 c 2
 288 446 l 2
 326 489 345 527 345 562 c 0
 345 611 303 647 246 647 c 0
 205 647 183 634 157 595 c 2
 137 565 l 1
 115 571 l 1
EndSplineSet
Validated: 1
EndChar

StartChar: at
Encoding: 64 64 46
Width: 747
VWidth: 0
Flags: W
TeX: 685 0
HStem: -18 45<275.541 514.945> 138 27<271.852 335.402 484.08 544.401> 494 24<347.098 419.881> 661 45<271.875 506.711>
VStem: 27 45<228.1 459.668> 160 76<210.779 365.812> 677 41<310.248 501.957>
LayerCount: 2
Fore
SplineSet
27 338 m 0
 27 545 186 706 389 706 c 0
 575 706 718 578 718 413 c 0
 718 338 692 271 645 221 c 0
 599 172 533 138 486 138 c 0
 444 138 418 170 414 226 c 1
 365 161 340 144 292 144 c 0
 218 144 160 209 160 292 c 0
 160 406 266 518 374 518 c 0
 424 518 451 493 463 433 c 1
 483 509 l 1
 558 509 l 1
 479 218 l 2
 478 214 477 206 477 202 c 0
 477 181 491 165 508 165 c 0
 530 165 568 188 597 217 c 0
 648 270 677 339 677 410 c 0
 677 550 551 661 391 661 c 0
 210 661 72 523 72 344 c 0
 72 163 212 27 399 27 c 0
 470 27 533 48 589 92 c 0
 618 114 635 132 666 176 c 1
 713 176 l 1
 683 124 667 103 636 75 c 0
 568 14 484 -18 394 -18 c 0
 187 -18 27 138 27 338 c 0
236 260 m 0
 236 208 265 168 303 168 c 0
 339 168 371 192 398 241 c 0
 425 288 446 366 446 417 c 0
 446 461 422 494 389 494 c 0
 363 494 336 481 315 459 c 0
 268 409 236 328 236 260 c 0
EndSplineSet
Validated: 1
AlternateSubs2: "'aalt' Access All Alternates lookup 0 subtable" at.alt
AlternateSubs2: "'aalt' Access All Alternates in Latin lookup 0 subtable" at.alt
Substitution2: "'ss02' Style Set 2 in Latin lookup 16 subtable" at.alt
Substitution2: "'ss01' Style Set 1 in Latin lookup 15 subtable" at.alt
Substitution2: "'salt' Stylistic Alternatives in Latin lookup 14 subtable" at.alt
EndChar

StartChar: at.alt
Encoding: 279 -1 47
Width: 747
VWidth: 0
Flags: W
TeX: 562 -162
HStem: -162 45<275.541 514.945> -6 27<271.852 335.402 484.08 544.401> 350 24<347.098 419.881> 517 45<271.875 506.711>
VStem: 27 45<84.1003 315.668> 160 76<66.7788 221.812> 677 41<166.248 357.957>
LayerCount: 2
Fore
SplineSet
27 194 m 0
 27 401 186 562 389 562 c 0
 575 562 718 434 718 269 c 0
 718 194 692 127 645 77 c 0
 599 28 533 -6 486 -6 c 0
 444 -6 418 26 414 82 c 1
 365 17 340 0 292 0 c 0
 218 0 160 65 160 148 c 0
 160 262 266 374 374 374 c 0
 424 374 451 349 463 289 c 1
 483 365 l 1
 558 365 l 1
 479 74 l 2
 478 70 477 62 477 58 c 0
 477 37 491 21 508 21 c 0
 530 21 568 44 597 73 c 0
 648 126 677 195 677 266 c 0
 677 406 551 517 391 517 c 0
 210 517 72 379 72 200 c 0
 72 19 212 -117 399 -117 c 0
 470 -117 533 -96 589 -52 c 0
 618 -30 635 -12 666 32 c 1
 713 32 l 1
 683 -20 667 -41 636 -69 c 0
 568 -130 484 -162 394 -162 c 0
 187 -162 27 -6 27 194 c 0
236 116 m 0
 236 64 265 24 303 24 c 0
 339 24 371 48 398 97 c 0
 425 144 446 222 446 273 c 0
 446 317 422 350 389 350 c 0
 363 350 336 337 315 315 c 0
 268 265 236 184 236 116 c 0
EndSplineSet
Validated: 1
EndChar

StartChar: A
Encoding: 65 65 48
Width: 722
VWidth: 0
GlyphClass: 2
Flags: W
TeX: 685 0
HStem: -3 28<-19 1 148 200 433 477 651 677> 277 36<270 486> 685 20G<449.42 510.784>
AnchorPoint: "bot_acc" 334 -154 basechar 0
AnchorPoint: "dotbelow" 334 -154 basechar 0
AnchorPoint: "ogon_acc" 526 -154 basechar 0
AnchorPoint: "top_accu" 505 817 basechar 0
AnchorPoint: "dotabove" 505 817 basechar 0
LayerCount: 2
Fore
SplineSet
-19 -3 m 1
 -19 27 l 1
 1 32 l 2
 35 40 54 56 89 112 c 2
 462 705 l 1
 508 705 l 1
 595 80 l 2
 601 35 604 33 651 28 c 2
 677 25 l 1
 677 -3 l 1
 637 -1 596 0 555 0 c 0
 514 0 474 -1 433 -3 c 1
 433 25 l 1
 477 28 l 2
 505 30 520 39 520 55 c 0
 520 60 519 68 518 77 c 2
 491 277 l 1
 245 277 l 1
 143 102 l 2
 123 68 117 55 117 47 c 0
 117 38 131 29 148 28 c 2
 200 25 l 1
 200 -3 l 1
 165 -1 129 0 93 0 c 0
 56 0 18 -1 -19 -3 c 1
270 313 m 1
 486 313 l 1
 449 601 l 1
 270 313 l 1
EndSplineSet
Validated: 1
AlternateSubs2: "'aalt' Access All Alternates lookup 0 subtable" a.sc
AlternateSubs2: "'aalt' Access All Alternates in Latin lookup 0 subtable" a.sc
Substitution2: "'c2sc' Capitals to Small Capitals in Latin lookup 13 subtable" a.sc
Position2: "'cpsp' Capital Spacing in Latin lookup 12 subtable" dx=7 dy=0 dh=14 dv=0
EndChar

StartChar: B
Encoding: 66 66 49
Width: 611
VWidth: 0
GlyphClass: 2
Flags: W
TeX: 685 0
HStem: -3 37<143.139 362.686> -3 26<31 76.2325> 340 36<223 384.176> 655 37<272 429.896> 662 30<100 182.634>
VStem: 455 88<139.549 289.971> 473 86<482.16 617.615>
AnchorPoint: "bot_acc" 215 -154 basechar 0
AnchorPoint: "dotbelow" 215 -154 basechar 0
AnchorPoint: "ogon_acc" 215 -154 basechar 0
AnchorPoint: "top_accu" 386 817 basechar 0
AnchorPoint: "dotabove" 386 817 basechar 0
LayerCount: 2
Fore
SplineSet
26 -3 m 1x64
 31 23 l 1
 73 30 86 37 89 55 c 2
 176 559 l 2
 181 589 185 621 185 635 c 0
 185 653 174 661 150 662 c 2
 97 664 l 1
 100 692 l 1x6c
 150 690 200 689 251 689 c 0
 301 689 351 692 401 692 c 0
 478 692 559 644 559 562 c 0x32
 559 511 535 465 490 425 c 0
 458 398 434 385 377 365 c 1
 446 355 476 346 502 325 c 0
 529 303 543 270 543 227 c 0
 543 151 499 83 420 36 c 0
 373 8 326 -3 278 -3 c 0xb4
 224 -3 171 0 117 0 c 0
 87 0 56 -1 26 -3 c 1x64
166 41 m 1
 182 40 194 39 200 38 c 0
 233 35 262 34 282 34 c 0xa4
 382 34 455 108 455 211 c 0
 455 298 405 340 302 340 c 2
 217 340 l 1
 166 41 l 1
223 376 m 1
 275 376 l 2
 399 376 473 439 473 544 c 0
 473 619 433 655 352 655 c 0x32
 325 655 299 650 272 650 c 1
 223 376 l 1
EndSplineSet
Validated: 1
AlternateSubs2: "'aalt' Access All Alternates lookup 0 subtable" b.sc
AlternateSubs2: "'aalt' Access All Alternates in Latin lookup 0 subtable" b.sc
Substitution2: "'c2sc' Capitals to Small Capitals in Latin lookup 13 subtable" b.sc
Position2: "'cpsp' Capital Spacing in Latin lookup 12 subtable" dx=7 dy=0 dh=14 dv=0
EndChar

StartChar: C
Encoding: 67 67 50
Width: 667
VWidth: 0
GlyphClass: 2
Flags: W
TeX: 685 0
ItalicCorrection: 11
HStem: -18 53<266.464 479.902> 653 53<324.803 542.292>
VStem: 45 88<177.597 428.573> 597 27<519 609.283>
AnchorPoint: "bot_acc" 304 -154 basechar 0
AnchorPoint: "dotbelow" 304 -154 basechar 0
AnchorPoint: "ogon_acc" 304 -154 basechar 0
AnchorPoint: "top_accu" 476 817 basechar 0
AnchorPoint: "dotabove" 476 817 basechar 0
LayerCount: 2
Fore
SplineSet
45 284 m 0
 45 437 105 555 222 634 c 0
 292 681 374 706 456 706 c 0
 518 706 574 694 651 665 c 1
 637 619 629 576 624 519 c 1
 597 519 l 1
 597 603 l 1
 541 639 490 653 418 653 c 0
 339 653 275 629 228 581 c 0
 167 519 133 421 133 309 c 0
 133 131 218 35 376 35 c 0
 454 35 506 52 600 110 c 1
 610 103 l 1
 600 67 l 1
 509 5 439 -18 343 -18 c 0
 151 -18 45 90 45 284 c 0
EndSplineSet
Validated: 1
AlternateSubs2: "'aalt' Access All Alternates lookup 0 subtable" c.sc
AlternateSubs2: "'aalt' Access All Alternates in Latin lookup 0 subtable" c.sc
Substitution2: "'c2sc' Capitals to Small Capitals in Latin lookup 13 subtable" c.sc
Position2: "'cpsp' Capital Spacing in Latin lookup 12 subtable" dx=7 dy=0 dh=14 dv=0
EndChar

StartChar: D
Encoding: 68 68 51
Width: 778
VWidth: 0
GlyphClass: 2
Flags: W
TeX: 685 0
HStem: -3 44<171.174 448.375> -3 26<33 71.616> 655 37<268 512.361> 662 30<97 179.634>
VStem: 649 92<297.658 534.7>
AnchorPoint: "bot_acc" 275 -154 basechar 0
AnchorPoint: "dotbelow" 275 -154 basechar 0
AnchorPoint: "ogon_acc" 275 -154 basechar 0
AnchorPoint: "top_accu" 446 817 basechar 0
AnchorPoint: "dotabove" 446 817 basechar 0
LayerCount: 2
Fore
SplineSet
28 -3 m 1x48
 33 23 l 1
 52 28 82 32 86 55 c 2
 173 559 l 2
 178 589 182 621 182 635 c 0
 182 653 171 661 147 662 c 2
 94 664 l 1
 97 692 l 1x58
 138 690 179 689 220 689 c 0
 288 689 356 692 424 692 c 0
 508 692 604 675 650 642 c 0
 711 599 741 529 741 431 c 0
 741 265 645 114 489 34 c 0
 437 8 388 -3 316 -3 c 0xa8
 251 -3 186 0 121 0 c 0
 90 0 59 -1 28 -3 c 1x48
168 56 m 1
 236 46 285 41 329 41 c 0
 416 41 489 69 543 124 c 0
 611 193 649 298 649 415 c 0
 649 579 566 655 384 655 c 0xa8
 345 655 307 650 268 650 c 1
 172 93 l 2
 169 75 168 68 168 56 c 1
EndSplineSet
Validated: 1
AlternateSubs2: "'aalt' Access All Alternates lookup 0 subtable" d.sc
AlternateSubs2: "'aalt' Access All Alternates in Latin lookup 0 subtable" d.sc
Substitution2: "'c2sc' Capitals to Small Capitals in Latin lookup 13 subtable" d.sc
Position2: "'cpsp' Capital Spacing in Latin lookup 12 subtable" dx=7 dy=0 dh=14 dv=0
EndChar

StartChar: E
Encoding: 69 69 52
Width: 611
VWidth: 0
GlyphClass: 2
Flags: W
TeX: 685 0
HStem: -3 42<178.927 477.457> -3 26<35 82.0265> 334 42<229 470> 650 42<274.111 516.041> 662 30<105 188.906>
VStem: 512 27<134.75 161> 525 24<537 614.875>
AnchorPoint: "bot_acc" 235 -154 basechar 0
AnchorPoint: "dotbelow" 235 -154 basechar 0
AnchorPoint: "ogon_acc" 381 -154 basechar 0
AnchorPoint: "top_accu" 406 817 basechar 0
AnchorPoint: "dotabove" 406 817 basechar 0
LayerCount: 2
Fore
SplineSet
30 -3 m 1x64
 35 23 l 1
 79 30 92 37 95 55 c 2
 182 559 l 2
 188 591 191 621 191 636 c 0
 191 653 180 661 156 662 c 2
 102 664 l 1
 105 692 l 1x6c
 158 690 211 689 265 689 c 0
 344 689 423 692 501 692 c 0
 524 692 548 691 570 689 c 1
 559 651 552 601 549 537 c 1
 525 537 l 1x32
 517 626 l 2
 516 641 475 650 410 650 c 0
 311 648 336 648 280 646 c 1
 276 638 274 630 271 614 c 2
 229 376 l 1
 266 376 l 1
 485 382 l 1
 489 375 l 1
 470 330 l 1
 439 331 464 334 338 334 c 2
 221 334 l 1
 178 81 l 2
 176 69 176 58 176 46 c 1
 239 40 266 39 307 39 c 0
 367 39 438 44 457 49 c 0
 478 54 487 66 496 101 c 2
 512 161 l 1
 539 161 l 1
 531 120 523 78 518 36 c 2
 514 0 l 1
 475 -1 495 -3 409 -3 c 0xb4
 334 -3 259 0 184 0 c 0
 133 0 81 -1 30 -3 c 1x64
EndSplineSet
Validated: 1
AlternateSubs2: "'aalt' Access All Alternates lookup 0 subtable" e.sc
AlternateSubs2: "'aalt' Access All Alternates in Latin lookup 0 subtable" e.sc
Substitution2: "'c2sc' Capitals to Small Capitals in Latin lookup 13 subtable" e.sc
Position2: "'cpsp' Capital Spacing in Latin lookup 12 subtable" dx=7 dy=0 dh=14 dv=0
EndChar

StartChar: F
Encoding: 70 70 53
Width: 556
VWidth: 0
GlyphClass: 2
Flags: W
TeX: 685 0
ItalicCorrection: 19
HStem: -3 28<4 40 172.656 265> 301 42<214 455> 650 42<263.068 493.557> 662 30<94 179.345>
VStem: 503 24<537 614.875>
AnchorPoint: "bot_acc" 175 -154 basechar 0
AnchorPoint: "dotbelow" 175 -154 basechar 0
AnchorPoint: "ogon_acc" 105 -154 basechar 0
AnchorPoint: "top_accu" 346 817 basechar 0
AnchorPoint: "dotabove" 346 817 basechar 0
LayerCount: 2
Fore
SplineSet
0 -3 m 1xe8
 4 25 l 1
 40 28 l 2
 81 31 82 33 98 125 c 2
 173 559 l 2
 178 589 182 621 182 635 c 0
 182 652 171 661 147 662 c 2
 91 664 l 1
 94 692 l 1xd8
 144 690 195 689 246 689 c 0
 324 689 403 692 481 692 c 0
 498 692 526 691 548 689 c 1
 537 651 530 600 527 537 c 1
 503 537 l 1
 495 626 l 2
 494 641 454 650 392 650 c 0
 266 645 289 646 269 646 c 1
 264 635 263 630 260 614 c 2
 214 343 l 1
 251 343 l 1
 470 349 l 1
 474 342 l 1
 455 297 l 1
 424 298 449 301 323 301 c 2
 206 301 l 1
 170 78 l 2
 169 74 168 63 168 57 c 0
 168 37 177 29 204 28 c 2
 268 25 l 1
 265 -3 l 1
 219 -1 173 0 127 0 c 0
 85 0 42 -1 0 -3 c 1xe8
EndSplineSet
Validated: 33
AlternateSubs2: "'aalt' Access All Alternates lookup 0 subtable" f.sc
AlternateSubs2: "'aalt' Access All Alternates in Latin lookup 0 subtable" f.sc
Substitution2: "'c2sc' Capitals to Small Capitals in Latin lookup 13 subtable" f.sc
Position2: "'cpsp' Capital Spacing in Latin lookup 12 subtable" dx=7 dy=0 dh=14 dv=0
EndChar

StartChar: G
Encoding: 71 71 54
Width: 722
VWidth: 0
GlyphClass: 2
Flags: W
TeX: 685 0
HStem: -18 45<269.318 493.596> 246 26<440 469 660 692> 653 53<329.053 565.444>
VStem: 50 88<165.542 417.434> 553 57<75.9844 125.087> 621 27<519 609.283>
AnchorPoint: "bot_acc" 314 -154 basechar 0
AnchorPoint: "dotbelow" 314 -154 basechar 0
AnchorPoint: "ogon_acc" 314 -154 basechar 0
AnchorPoint: "top_accu" 486 817 basechar 0
AnchorPoint: "dotabove" 486 817 basechar 0
LayerCount: 2
Fore
SplineSet
50 274 m 0
 50 424 112 548 229 632 c 0
 301 683 374 706 466 706 c 0
 535 706 592 695 675 665 c 1
 661 619 653 576 648 519 c 1
 621 519 l 1
 621 603 l 1
 565 639 511 653 434 653 c 0
 351 653 286 629 237 579 c 0
 173 515 138 414 138 297 c 0
 138 120 224 27 390 27 c 0
 444 27 483 36 528 60 c 1
 546 153 l 2
 551 177 553 197 553 212 c 0
 553 236 544 240 469 244 c 2
 435 246 l 1
 440 272 l 1
 483 270 526 269 569 269 c 0
 610 269 652 270 694 272 c 1
 692 246 l 1
 660 240 l 2
 647 238 635 228 633 219 c 2
 610 84 l 2
 608 71 610 57 612 44 c 1
 608 37 l 1
 595 35 578 31 552 22 c 0
 486 0 425 -18 355 -18 c 0
 159 -18 50 87 50 274 c 0
EndSplineSet
Validated: 33
AlternateSubs2: "'aalt' Access All Alternates lookup 0 subtable" g.sc
AlternateSubs2: "'aalt' Access All Alternates in Latin lookup 0 subtable" g.sc
Substitution2: "'c2sc' Capitals to Small Capitals in Latin lookup 13 subtable" g.sc
Position2: "'cpsp' Capital Spacing in Latin lookup 12 subtable" dx=7 dy=0 dh=14 dv=0
EndChar

StartChar: H
Encoding: 72 72 55
Width: 778
VWidth: 0
GlyphClass: 2
Flags: W
TeX: 685 0
ItalicCorrection: 50
HStem: -3 28<1 42 206 252 436 520.886 618.935 705> 343 42<221 583.919> 664 28<104 179.019 314 356 550 626.019 761 797>
AnchorPoint: "bot_acc" 312 -154 basechar 0
AnchorPoint: "dotbelow" 312 -154 basechar 0
AnchorPoint: "ogon_acc" 541 -154 basechar 0
AnchorPoint: "top_accu" 484 817 basechar 0
AnchorPoint: "dotabove" 484 817 basechar 0
LayerCount: 2
Fore
SplineSet
-3 -3 m 1
 1 25 l 1
 42 28 l 2
 82 31 84 33 100 125 c 2
 174 559 l 2
 179 590 183 621 183 635 c 0
 183 653 172 661 148 662 c 2
 101 664 l 1
 104 692 l 1
 151 690 198 689 245 689 c 0
 283 689 321 690 359 692 c 1
 356 664 l 1
 314 661 l 2
 277 658 270 652 263 613 c 2
 221 385 l 1
 591 385 l 1
 621 559 l 2
 626 589 630 621 630 635 c 0
 630 653 619 661 595 662 c 2
 547 664 l 1
 550 692 l 1
 597 690 645 689 693 689 c 0
 729 689 764 690 800 692 c 1
 797 664 l 1
 761 661 l 2
 723 658 717 652 710 613 c 2
 618 93 l 2
 615 76 614 67 614 58 c 0
 614 37 624 29 650 28 c 2
 708 25 l 1
 705 -3 l 1
 661 -1 617 0 573 0 c 0
 526 0 479 -1 432 -3 c 1
 436 25 l 1
 486 28 l 2
 508 29 519 34 523 42 c 0
 528 48 535 76 544 125 c 2
 584 340 l 1
 584 340 472 343 400 343 c 0
 328 343 216 340 216 340 c 1
 174 93 l 2
 171 74 170 67 170 58 c 0
 170 37 179 30 206 28 c 2
 255 25 l 1
 252 -3 l 1
 211 -1 170 0 129 0 c 0
 85 0 41 -1 -3 -3 c 1
EndSplineSet
Validated: 1
AlternateSubs2: "'aalt' Access All Alternates lookup 0 subtable" h.sc
AlternateSubs2: "'aalt' Access All Alternates in Latin lookup 0 subtable" h.sc
Substitution2: "'c2sc' Capitals to Small Capitals in Latin lookup 13 subtable" h.sc
Position2: "'cpsp' Capital Spacing in Latin lookup 12 subtable" dx=7 dy=0 dh=14 dv=0
EndChar

StartChar: I
Encoding: 73 73 56
Width: 333
VWidth: 0
GlyphClass: 2
Flags: W
TeX: 685 0
ItalicCorrection: 49
HStem: -3 28<10 46 210 259> 664 28<106 181.019 316 351>
AnchorPoint: "bot_acc" 90 -154 basechar 0
AnchorPoint: "dotbelow" 90 -154 basechar 0
AnchorPoint: "ogon_acc" 90 -154 basechar 0
AnchorPoint: "top_accu" 261 817 basechar 0
AnchorPoint: "dotabove" 261 817 basechar 0
LayerCount: 2
Fore
SplineSet
7 -3 m 1
 10 25 l 1
 46 28 l 2
 86 31 89 36 104 125 c 2
 176 559 l 2
 180 581 185 627 185 636 c 0
 185 653 174 661 150 662 c 2
 103 664 l 1
 106 692 l 1
 151 690 196 689 242 689 c 0
 279 689 317 690 354 692 c 1
 351 664 l 1
 316 661 l 2
 277 658 272 652 265 613 c 2
 176 78 l 2
 175 73 174 64 174 57 c 0
 174 37 183 30 210 28 c 2
 262 25 l 1
 259 -3 l 1
 217 -1 175 0 133 0 c 0
 91 0 49 -1 7 -3 c 1
EndSplineSet
Validated: 1
AlternateSubs2: "'aalt' Access All Alternates lookup 0 subtable" i.sc
AlternateSubs2: "'aalt' Access All Alternates in Latin lookup 0 subtable" i.sc
Substitution2: "'c2sc' Capitals to Small Capitals in Latin lookup 13 subtable" i.sc
Position2: "'cpsp' Capital Spacing in Latin lookup 12 subtable" dx=7 dy=0 dh=14 dv=0
EndChar

StartChar: J
Encoding: 74 74 57
Width: 333
VWidth: 0
GlyphClass: 2
Flags: W
TeX: 685 203
ItalicCorrection: 52
HStem: -206 32<-31.9101 33.1008> 664 28<103 178.019 313 355>
AnchorPoint: "bot_acc" 49 -360 basechar 0
AnchorPoint: "dotbelow" 49 -360 basechar 0
AnchorPoint: "ogon_acc" 42 -360 basechar 0
AnchorPoint: "top_accu" 257 817 basechar 0
AnchorPoint: "dotabove" 257 817 basechar 0
AnchorPoint: "ccmped" 436 634 basechar 0
LayerCount: 2
Fore
SplineSet
-35 -170 m 1
 -27 -173 -18 -174 -6 -174 c 0
 41 -174 71 -124 86 -21 c 2
 181 622 l 2
 182 627 182 630 182 635 c 0
 182 653 171 661 147 662 c 2
 100 664 l 1
 103 692 l 1
 150 690 197 689 244 689 c 0
 282 689 320 690 358 692 c 1
 355 664 l 1
 313 661 l 2
 275 658 268 651 262 613 c 2
 177 54 l 2
 168 -8 159 -40 143 -78 c 0
 109 -159 57 -206 3 -206 c 0
 -9 -206 -21 -203 -32 -196 c 1
 -35 -170 l 1
EndSplineSet
Validated: 1
AlternateSubs2: "'aalt' Access All Alternates lookup 0 subtable" j.sc
AlternateSubs2: "'aalt' Access All Alternates in Latin lookup 0 subtable" j.sc
Substitution2: "'c2sc' Capitals to Small Capitals in Latin lookup 13 subtable" j.sc
Position2: "'cpsp' Capital Spacing in Latin lookup 12 subtable" dx=7 dy=0 dh=14 dv=0
EndChar

StartChar: K
Encoding: 75 75 58
Width: 667
VWidth: 0
GlyphClass: 2
Flags: W
TeX: 685 0
ItalicCorrection: 44
HStem: -3 28<17 58 222 268 589.323 646> 665 27<119 192.845 329 371 623.337 683>
AnchorPoint: "bot_acc" 270 -154 basechar 0
AnchorPoint: "dotbelow" 270 -154 basechar 0
AnchorPoint: "ogon_acc" 551 -154 basechar 0
AnchorPoint: "top_accu" 441 817 basechar 0
AnchorPoint: "dotabove" 441 817 basechar 0
LayerCount: 2
Fore
SplineSet
13 -3 m 1
 17 25 l 1
 58 28 l 2
 98 31 100 33 116 125 c 2
 189 559 l 2
 195 592 198 621 198 635 c 0
 198 653 187 661 163 662 c 2
 116 664 l 1
 119 692 l 1
 166 690 213 689 260 689 c 0
 298 689 336 690 374 692 c 1
 371 664 l 1
 329 661 l 2
 292 658 285 651 278 613 c 2
 233 353 l 1
 297 403 338 439 382 484 c 2
 510 614 l 2
 538 642 548 655 548 663 c 2
 548 692 l 1
 570 690 592 689 615 689 c 0
 638 689 660 690 683 692 c 1
 683 665 l 1
 662 665 l 2
 645 665 624 655 608 640 c 2
 316 367 l 1
 562 65 l 2
 583 39 603 27 626 27 c 2
 646 27 l 1
 646 -3 l 1
 624 -1 601 0 578 0 c 0
 555 0 532 -1 509 -3 c 1
 404 140 381 169 231 340 c 1
 188 78 l 2
 187 74 186 63 186 57 c 0
 186 37 195 30 222 28 c 2
 271 25 l 1
 268 -3 l 1
 227 -1 186 0 145 0 c 0
 101 0 57 -1 13 -3 c 1
EndSplineSet
Validated: 1
AlternateSubs2: "'aalt' Access All Alternates lookup 0 subtable" k.sc
AlternateSubs2: "'aalt' Access All Alternates in Latin lookup 0 subtable" k.sc
Substitution2: "'c2sc' Capitals to Small Capitals in Latin lookup 13 subtable" k.sc
Position2: "'cpsp' Capital Spacing in Latin lookup 12 subtable" dx=7 dy=0 dh=14 dv=0
EndChar

StartChar: L
Encoding: 76 76 59
Width: 556
VWidth: 0
GlyphClass: 2
Flags: W
TeX: 685 0
HStem: -3 42<164.879 447.391> -3 26<21 68.0265> 664 28<97 172.019 307 349>
VStem: 492 31<139.471 165>
AnchorPoint: "bot_acc" 83 -154 basechar 0
AnchorPoint: "dotbelow" 83 -154 basechar 0
AnchorPoint: "ogon_acc" 368 -154 basechar 0
AnchorPoint: "top_accu" 255 817 basechar 0
AnchorPoint: "dotabove" 255 817 basechar 0
AnchorPoint: "ccmped" 430 634 basechar 0
LayerCount: 2
Fore
SplineSet
16 -3 m 1x70
 21 23 l 1x70
 65 30 78 37 81 55 c 2
 167 559 l 2
 173 592 176 621 176 636 c 0
 176 653 165 661 141 662 c 2
 94 664 l 1
 97 692 l 1
 142 690 187 689 232 689 c 0
 272 689 312 690 352 692 c 1
 349 664 l 1
 307 661 l 2
 270 658 263 651 256 613 c 2
 164 81 l 2
 162 69 162 58 162 46 c 1
 224 40 249 39 304 39 c 0
 360 39 436 44 448 50 c 0
 458 54 466 71 475 103 c 2
 492 165 l 1
 523 165 l 1
 510 103 499 25 500 0 c 1
 465 -3 436 -3 395 -3 c 0xb0
 320 -3 245 0 170 0 c 0
 119 0 67 -1 16 -3 c 1x70
EndSplineSet
Validated: 33
AlternateSubs2: "'aalt' Access All Alternates lookup 0 subtable" l.sc
AlternateSubs2: "'aalt' Access All Alternates in Latin lookup 0 subtable" l.sc
Substitution2: "'c2sc' Capitals to Small Capitals in Latin lookup 13 subtable" l.sc
Position2: "'cpsp' Capital Spacing in Latin lookup 12 subtable" dx=7 dy=0 dh=14 dv=0
EndChar

StartChar: M
Encoding: 77 77 60
Width: 944
VWidth: 0
GlyphClass: 2
Flags: W
TeX: 685 0
ItalicCorrection: 24
HStem: -3 28<-16 39.5496 168 203 635 666 865 899> 662 30<124.25 206.688 859.267 937>
AnchorPoint: "bot_acc" 383 -154 basechar 0
AnchorPoint: "dotbelow" 383 -154 basechar 0
AnchorPoint: "ogon_acc" 738 -154 basechar 0
AnchorPoint: "top_accu" 555 817 basechar 0
AnchorPoint: "dotabove" 555 817 basechar 0
LayerCount: 2
Fore
SplineSet
-19 -3 m 1
 -16 23 l 1
 39 28 55 41 70 93 c 2
 215 602 l 2
 217 609 218 616 218 622 c 0
 218 648 200 658 148 662 c 2
 122 664 l 1
 125 692 l 1
 152 690 180 689 208 689 c 0
 236 689 264 690 292 692 c 1
 442 114 l 1
 688 536 l 2
 773 682 754 655 773 692 c 1
 800 690 828 689 856 689 c 0
 884 689 912 690 940 692 c 1
 937 664 l 1
 899 662 l 2
 870 660 854 650 853 631 c 2
 812 100 l 1
 811 63 l 2
 810 42 829 31 865 28 c 2
 902 25 l 1
 899 -3 l 1
 855 -1 811 0 766 0 c 0
 721 0 677 -1 632 -3 c 1
 635 25 l 1
 666 28 l 2
 717 33 731 39 733 67 c 2
 770 587 l 1
 718 500 l 1
 479 86 l 1
 422 -18 l 1
 399 -18 l 1
 250 560 l 1
 126 96 l 2
 121 78 119 65 119 55 c 0
 119 40 136 31 168 28 c 2
 206 25 l 1
 203 -3 l 1
 167 -1 130 0 93 0 c 0
 56 0 18 -1 -19 -3 c 1
EndSplineSet
Validated: 33
AlternateSubs2: "'aalt' Access All Alternates lookup 0 subtable" m.sc
AlternateSubs2: "'aalt' Access All Alternates in Latin lookup 0 subtable" m.sc
Substitution2: "'c2sc' Capitals to Small Capitals in Latin lookup 13 subtable" m.sc
Position2: "'cpsp' Capital Spacing in Latin lookup 12 subtable" dx=7 dy=0 dh=14 dv=0
EndChar

StartChar: N
Encoding: 78 78 61
Width: 778
VWidth: 0
GlyphClass: 2
Flags: W
TeX: 685 0
ItalicCorrection: 53
HStem: -3 28<7 38 186 223> 664 28<73.75 147.069 589 663.887 762 799>
AnchorPoint: "bot_acc" 327 -154 basechar 0
AnchorPoint: "dotbelow" 327 -154 basechar 0
AnchorPoint: "ogon_acc" 558 -154 basechar 0
AnchorPoint: "top_accu" 498 817 basechar 0
AnchorPoint: "dotabove" 498 817 basechar 0
LayerCount: 2
Fore
SplineSet
2 -3 m 1
 7 25 l 1
 38 28 l 2
 74 31 80 40 92 102 c 2
 180 576 l 2
 182 582 185 599 185 606 c 0
 185 614 170 633 155 645 c 0
 144 654 122 661 105 662 c 2
 70 664 l 1
 75 692 l 1
 102 690 129 689 156 689 c 0
 183 689 210 690 237 692 c 1
 582 103 l 1
 662 592 l 2
 664 605 667 631 667 638 c 0
 667 654 657 661 631 662 c 2
 584 664 l 1
 589 692 l 1
 624 690 659 689 694 689 c 0
 731 689 767 690 804 692 c 1
 799 664 l 1
 762 662 l 2
 725 660 721 655 702 542 c 2
 608 -11 l 1
 558 -11 l 1
 220 566 l 1
 140 102 l 2
 138 91 137 80 137 72 c 0
 137 39 146 31 186 28 c 2
 228 25 l 1
 223 -3 l 1
 187 -1 150 0 113 0 c 0
 76 0 39 -1 2 -3 c 1
EndSplineSet
Validated: 1
AlternateSubs2: "'aalt' Access All Alternates lookup 0 subtable" n.sc
AlternateSubs2: "'aalt' Access All Alternates in Latin lookup 0 subtable" n.sc
Substitution2: "'c2sc' Capitals to Small Capitals in Latin lookup 13 subtable" n.sc
Position2: "'cpsp' Capital Spacing in Latin lookup 12 subtable" dx=7 dy=0 dh=14 dv=0
EndChar

StartChar: O
Encoding: 79 79 62
Width: 778
VWidth: 0
GlyphClass: 2
Flags: W
TeX: 685 0
HStem: -18 42<254.328 461.042> 664 42<334.344 538.202>
VStem: 53 88<145.637 415.746> 660 88<283.379 538.923>
AnchorPoint: "bot_acc" 312 -154 basechar 0
AnchorPoint: "dotbelow" 312 -154 basechar 0
AnchorPoint: "ogon_acc" 312 -154 basechar 0
AnchorPoint: "top_accu" 484 817 basechar 0
AnchorPoint: "dotabove" 484 817 basechar 0
LayerCount: 2
Fore
SplineSet
53 272 m 0
 53 523 227 706 464 706 c 0
 644 706 748 603 748 425 c 0
 748 267 670 120 544 42 c 0
 479 1 408 -18 323 -18 c 0
 147 -18 53 83 53 272 c 0
141 277 m 0
 141 110 216 24 360 24 c 0
 438 24 503 50 552 100 c 0
 620 170 660 283 660 409 c 0
 660 519 628 594 563 632 c 0
 530 652 481 664 433 664 c 0
 357 664 297 641 250 593 c 0
 181 524 141 407 141 277 c 0
EndSplineSet
Validated: 1
AlternateSubs2: "'aalt' Access All Alternates lookup 0 subtable" o.sc
AlternateSubs2: "'aalt' Access All Alternates in Latin lookup 0 subtable" o.sc
Substitution2: "'c2sc' Capitals to Small Capitals in Latin lookup 13 subtable" o.sc
Position2: "'cpsp' Capital Spacing in Latin lookup 12 subtable" dx=7 dy=0 dh=14 dv=0
EndChar

StartChar: P
Encoding: 80 80 63
Width: 611
VWidth: 0
GlyphClass: 2
Flags: W
TeX: 685 0
ItalicCorrection: 10
HStem: -3 28<13 54 186.935 280> 288 35<281.891 409.865> 656 36<285.673 444.619> 662 30<108 192.634>
VStem: 506 88<438.464 603.42>
AnchorPoint: "bot_acc" 217 -154 basechar 0
AnchorPoint: "dotbelow" 217 -154 basechar 0
AnchorPoint: "ogon_acc" 117 -154 basechar 0
AnchorPoint: "top_accu" 388 817 basechar 0
AnchorPoint: "dotabove" 388 817 basechar 0
LayerCount: 2
Fore
SplineSet
9 -3 m 1xe8
 13 25 l 1
 54 28 l 2
 94 31 96 34 112 125 c 2
 186 559 l 2
 191 590 195 621 195 635 c 0
 195 653 184 661 160 662 c 2
 105 664 l 1
 108 692 l 1xd8
 163 690 218 689 274 689 c 0
 320 689 366 692 412 692 c 0
 499 692 594 642 594 541 c 0
 594 405 484 288 355 288 c 0
 326 288 306 293 269 311 c 1
 267 342 l 1
 304 328 324 323 346 323 c 0
 434 323 506 411 506 519 c 0
 506 612 457 656 355 656 c 0
 336 656 320 654 284 648 c 1
 281 635 278 625 277 620 c 0
 272 601 268 580 268 580 c 1
 186 93 l 2
 183 74 182 67 182 58 c 0
 182 37 192 29 218 28 c 2
 283 25 l 1
 280 -3 l 1
 234 -1 188 0 141 0 c 0
 97 0 53 -1 9 -3 c 1xe8
EndSplineSet
Validated: 1
AlternateSubs2: "'aalt' Access All Alternates lookup 0 subtable" p.sc
AlternateSubs2: "'aalt' Access All Alternates in Latin lookup 0 subtable" p.sc
Substitution2: "'c2sc' Capitals to Small Capitals in Latin lookup 13 subtable" p.sc
Position2: "'cpsp' Capital Spacing in Latin lookup 12 subtable" dx=7 dy=0 dh=14 dv=0
EndChar

StartChar: Q
Encoding: 81 81 64
Width: 778
VWidth: 0
GlyphClass: 2
Flags: W
TeX: 685 203
HStem: -201 61<537.668 658.702> -59 44<175.697 310.005> -18 42<254.328 461.042> 664 42<334.344 538.202>
VStem: 53 88<145.637 415.746> 127 24<-159 -142.007> 660 88<283.379 538.923> 683 25<-106.286 -61>
AnchorPoint: "bot_acc" 299 -338 basechar 0
AnchorPoint: "dotbelow" 299 -338 basechar 0
AnchorPoint: "ogon_acc" 358 3962 basechar 0
AnchorPoint: "top_accu" 502 817 basechar 0
AnchorPoint: "dotabove" 502 817 basechar 0
LayerCount: 2
Fore
SplineSet
53 272 m 0xba
 53 523 227 706 464 706 c 0
 644 706 748 603 748 425 c 0
 748 267 670 120 544 42 c 0
 479 1 408 -18 323 -18 c 0
 147 -18 53 83 53 272 c 0xba
126 -142 m 2
 122 -66 177 -15 251 -15 c 0
 274 -15 292 -19 317 -29 c 2
 553 -125 l 2
 579 -135 598 -140 615 -140 c 0
 655 -140 677 -115 683 -61 c 1
 708 -61 l 1
 698 -158 662 -201 587 -201 c 0
 547 -201 529 -195 469 -164 c 2
 324 -88 l 2
 285 -67 257 -59 228 -59 c 0
 175 -59 151 -95 151 -172 c 1
 127 -159 l 1xd5
 126 -151 126 -142 126 -142 c 2
141 277 m 0xba
 141 110 216 24 360 24 c 0
 438 24 503 50 552 100 c 0
 620 170 660 283 660 409 c 0
 660 519 628 594 563 632 c 0
 530 652 481 664 433 664 c 0
 357 664 297 641 250 593 c 0
 181 524 141 407 141 277 c 0xba
EndSplineSet
Validated: 33
AlternateSubs2: "'aalt' Access All Alternates lookup 0 subtable" q.sc
AlternateSubs2: "'aalt' Access All Alternates in Latin lookup 0 subtable" q.sc
Substitution2: "'c2sc' Capitals to Small Capitals in Latin lookup 13 subtable" q.sc
Position2: "'cpsp' Capital Spacing in Latin lookup 12 subtable" dx=7 dy=0 dh=14 dv=0
EndChar

StartChar: R
Encoding: 82 82 65
Width: 667
VWidth: 0
GlyphClass: 2
Flags: W
TeX: 685 0
HStem: -3 28<13 54 218 264 593.426 639> 656 36<288.353 444.269> 662 30<108 193.634>
VStem: 496 88<476.759 613.629>
AnchorPoint: "bot_acc" 260 -154 basechar 0
AnchorPoint: "dotbelow" 260 -154 basechar 0
AnchorPoint: "ogon_acc" 546 -154 basechar 0
AnchorPoint: "top_accu" 431 817 basechar 0
AnchorPoint: "dotabove" 431 817 basechar 0
LayerCount: 2
Fore
SplineSet
9 -3 m 1xd0
 13 25 l 1
 54 28 l 2
 94 31 96 34 112 125 c 2
 187 559 l 2
 192 589 196 621 196 635 c 0
 196 653 185 661 161 662 c 2
 105 664 l 1
 108 692 l 1xb0
 158 690 208 689 259 689 c 0
 309 689 359 692 409 692 c 0
 492 692 584 646 584 560 c 0
 584 499 553 444 495 402 c 0
 459 376 430 364 375 354 c 1
 559 79 l 2
 587 37 599 29 639 24 c 1
 639 -3 l 1
 620 -1 601 0 581 0 c 0
 556 0 532 -1 507 -3 c 1
 432 124 401 172 267 367 c 1
 270 378 l 1
 314 378 l 2
 418 378 496 448 496 543 c 0
 496 617 450 656 363 656 c 0
 336 656 316 654 287 648 c 1
 280 620 l 1
 271 580 l 1
 186 93 l 2
 183 76 182 67 182 58 c 0
 182 38 191 30 218 28 c 2
 267 25 l 1
 264 -3 l 1
 223 -1 182 0 141 0 c 0
 97 0 53 -1 9 -3 c 1xd0
EndSplineSet
Validated: 1
AlternateSubs2: "'aalt' Access All Alternates lookup 0 subtable" r.sc
AlternateSubs2: "'aalt' Access All Alternates in Latin lookup 0 subtable" r.sc
Substitution2: "'c2sc' Capitals to Small Capitals in Latin lookup 13 subtable" r.sc
Position2: "'cpsp' Capital Spacing in Latin lookup 12 subtable" dx=7 dy=0 dh=14 dv=0
EndChar

StartChar: S
Encoding: 83 83 66
Width: 556
VWidth: 0
GlyphClass: 2
Flags: W
TeX: 685 0
HStem: -18 48<132.58 308.918> 658 48<268.254 422.929>
VStem: 66 30<67.218 172> 108 72<432.861 564.606> 406 79<141.7 261.956> 451 30<537 626.603>
AnchorPoint: "bot_acc" 196 -154 basechar 0
AnchorPoint: "dotbelow" 196 -154 basechar 0
AnchorPoint: "ogon_acc" 196 -154 basechar 0
AnchorPoint: "top_accu" 367 817 basechar 0
AnchorPoint: "dotabove" 367 817 basechar 0
LayerCount: 2
Fore
SplineSet
42 20 m 1xf8
 53 72 60 117 66 172 c 1
 96 172 l 1
 96 73 l 1
 140 42 178 30 232 30 c 0
 335 30 406 95 406 191 c 0xf8
 406 249 380 283 325 296 c 2
 230 319 l 2
 146 339 108 386 108 471 c 0
 108 530 129 580 171 622 c 0
 225 675 300 706 374 706 c 0
 422 706 460 696 506 672 c 1
 492 629 485 591 481 537 c 1
 451 537 l 1
 451 613 l 1xf4
 421 645 388 658 339 658 c 0
 247 658 180 595 180 508 c 0
 180 442 210 405 276 391 c 2
 341 377 l 2
 442 355 485 313 485 234 c 0
 485 98 352 -18 197 -18 c 0
 144 -18 92 -5 42 20 c 1xf8
EndSplineSet
Validated: 1
AlternateSubs2: "'aalt' Access All Alternates lookup 0 subtable" s.sc
AlternateSubs2: "'aalt' Access All Alternates in Latin lookup 0 subtable" s.sc
Substitution2: "'c2sc' Capitals to Small Capitals in Latin lookup 13 subtable" s.sc
Position2: "'cpsp' Capital Spacing in Latin lookup 12 subtable" dx=7 dy=0 dh=14 dv=0
EndChar

StartChar: T
Encoding: 84 84 67
Width: 611
VWidth: 0
GlyphClass: 2
Flags: W
TeX: 685 0
ItalicCorrection: 52
HStem: -3 31<113 202.375 294.507 384> 646 43<115.305 308 390 581.325>
VStem: 53 29<528 556> 580 28<528 570.519>
AnchorPoint: "bot_acc" 208 -154 basechar 0
AnchorPoint: "dotbelow" 208 -154 basechar 0
AnchorPoint: "ogon_acc" 208 -154 basechar 0
AnchorPoint: "top_accu" 379 817 basechar 0
AnchorPoint: "dotabove" 379 817 basechar 0
LayerCount: 2
Fore
SplineSet
53 528 m 1
 71 692 l 1
 165 690 259 689 353 689 c 0
 447 689 541 690 635 692 c 1
 608 528 l 1
 580 528 l 1
 584 592 l 2
 585 602 583 621 580 629 c 0
 577 641 541 646 463 646 c 2
 390 646 l 1
 296 93 l 2
 292 72 292 68 292 58 c 0
 292 37 302 29 328 28 c 2
 387 25 l 1
 384 -3 l 1
 340 -1 296 0 251 0 c 0
 204 0 156 -1 109 -3 c 1
 113 25 l 1
 164 28 l 2
 204 30 207 34 222 125 c 2
 308 646 l 1
 196 646 l 2
 159 646 121 640 115 633 c 0
 109 626 102 610 97 588 c 2
 82 528 l 1
 53 528 l 1
EndSplineSet
Validated: 33
AlternateSubs2: "'aalt' Access All Alternates lookup 0 subtable" t.sc
AlternateSubs2: "'aalt' Access All Alternates in Latin lookup 0 subtable" t.sc
Substitution2: "'c2sc' Capitals to Small Capitals in Latin lookup 13 subtable" t.sc
Position2: "'cpsp' Capital Spacing in Latin lookup 12 subtable" dx=7 dy=0 dh=14 dv=0
EndChar

StartChar: U
Encoding: 85 85 68
Width: 778
VWidth: 0
GlyphClass: 2
Flags: W
TeX: 685 0
ItalicCorrection: 47
HStem: -19 58<226.874 382.243> -3 32<620.359 705.25> 664 28<90.25 172.119 548 623.685 759 795>
VStem: 97 78<87.1243 291.711>
AnchorPoint: "bot_acc" 304 -154 basechar 0
AnchorPoint: "dotbelow" 304 -154 basechar 0
AnchorPoint: "ogon_acc" 587 -154 basechar 0
AnchorPoint: "top_accu" 475 817 basechar 0
AnchorPoint: "dotabove" 475 817 basechar 0
LayerCount: 2
Fore
SplineSet
88 664 m 1xb0
 91 692 l 1
 121 690 151 689 181 689 c 0
 211 689 240 690 270 692 c 1
 182 215 l 2
 176 184 175 173 175 155 c 0
 175 83 228 39 314 39 c 0xb0
 401 39 480 84 556 177 c 1
 627 622 l 2
 631 649 623 661 593 662 c 2
 545 664 l 1
 548 692 l 1
 593 690 639 689 685 689 c 0
 723 689 760 690 798 692 c 1
 795 664 l 1
 759 661 l 2
 721 658 714 651 708 613 c 2
 623 106 l 2
 617 68 617 66 617 50 c 0
 617 37 626 31 649 29 c 2
 709 25 l 1
 704 -3 l 1
 676 -1 648 0 619 0 c 0
 589 0 560 -1 530 -3 c 1x70
 525 2 l 1
 538 57 544 83 552 129 c 1
 500 69 469 45 409 15 c 0
 361 -9 321 -19 276 -19 c 0
 164 -19 97 42 97 145 c 0
 97 161 99 184 103 206 c 2
 167 581 l 2
 171 604 174 629 174 639 c 0
 174 656 166 661 140 662 c 2
 88 664 l 1xb0
EndSplineSet
Validated: 33
AlternateSubs2: "'aalt' Access All Alternates lookup 0 subtable" u.sc
AlternateSubs2: "'aalt' Access All Alternates in Latin lookup 0 subtable" u.sc
Substitution2: "'c2sc' Capitals to Small Capitals in Latin lookup 13 subtable" u.sc
Position2: "'cpsp' Capital Spacing in Latin lookup 12 subtable" dx=7 dy=0 dh=14 dv=0
EndChar

StartChar: V
Encoding: 86 86 69
Width: 722
VWidth: 0
GlyphClass: 2
Flags: W
TeX: 685 0
ItalicCorrection: 60
HStem: 664 28<75 100 243.668 323 534 560 736 754>
AnchorPoint: "bot_acc" 268 -154 basechar 0
AnchorPoint: "dotbelow" 268 -154 basechar 0
AnchorPoint: "ogon_acc" 268 -154 basechar 0
AnchorPoint: "top_accu" 439 817 basechar 0
AnchorPoint: "dotabove" 439 817 basechar 0
LayerCount: 2
Fore
SplineSet
75 664 m 1
 75 692 l 1
 116 690 157 689 199 689 c 0
 240 689 282 690 323 692 c 1
 323 664 l 1
 281 662 l 2
 253 661 235 655 239 624 c 2
 310 96 l 1
 601 588 l 2
 613 608 617 619 617 630 c 0
 617 649 598 659 560 662 c 2
 534 664 l 1
 534 692 l 1
 575 690 616 689 658 689 c 0
 690 689 722 690 754 692 c 1
 754 664 l 1
 736 662 l 2
 707 659 699 651 674 611 c 2
 296 -8 l 1
 247 -8 l 1
 159 614 l 2
 154 651 144 658 100 662 c 2
 75 664 l 1
EndSplineSet
Validated: 33
AlternateSubs2: "'aalt' Access All Alternates lookup 0 subtable" v.sc
AlternateSubs2: "'aalt' Access All Alternates in Latin lookup 0 subtable" v.sc
Substitution2: "'c2sc' Capitals to Small Capitals in Latin lookup 13 subtable" v.sc
Position2: "'cpsp' Capital Spacing in Latin lookup 12 subtable" dx=7 dy=0 dh=14 dv=0
EndChar

StartChar: W
Encoding: 87 87 70
Width: 944
VWidth: 0
GlyphClass: 2
Flags: W
TeX: 685 0
ItalicCorrection: 64
HStem: 664 28<71 89 266 303 785 856.332 960 980> 680 20G<518.714 551.524>
VStem: 182 50<-8 43.1345>
AnchorPoint: "bot_acc" 383 -154 basechar 0
AnchorPoint: "dotbelow" 383 -154 basechar 0
AnchorPoint: "ogon_acc" 658 -154 basechar 0
AnchorPoint: "top_accu" 554 817 basechar 0
AnchorPoint: "dotabove" 554 817 basechar 0
LayerCount: 2
Fore
SplineSet
71 664 m 1xa0
 71 692 l 1
 108 690 145 689 182 689 c 0
 222 689 263 690 303 692 c 1
 303 664 l 1xa0
 266 662 l 2
 234 660 219 646 221 616 c 2
 252 132 l 1
 476 588 l 1
 528 700 l 1
 546 700 l 1x60
 704 128 l 1
 851 590 l 2
 857 608 860 626 860 639 c 0
 860 653 848 661 819 662 c 2
 780 664 l 1
 785 692 l 1
 817 690 850 689 883 689 c 0
 915 689 948 690 980 692 c 1
 980 664 l 1
 960 662 l 2
 938 660 923 648 917 631 c 2
 746 124 l 2
 733 85 726 58 715 18 c 2
 708 -8 l 1
 657 -8 l 1
 644 53 633 102 618 154 c 2
 506 546 l 1
 282 102 l 2
 264 66 246 27 232 -8 c 1
 182 -8 l 1
 181 44 179 92 174 158 c 2
 142 588 l 2
 138 645 130 657 89 662 c 2
 71 664 l 1xa0
EndSplineSet
Validated: 33
AlternateSubs2: "'aalt' Access All Alternates lookup 0 subtable" w.sc
AlternateSubs2: "'aalt' Access All Alternates in Latin lookup 0 subtable" w.sc
Substitution2: "'c2sc' Capitals to Small Capitals in Latin lookup 13 subtable" w.sc
Position2: "'cpsp' Capital Spacing in Latin lookup 12 subtable" dx=7 dy=0 dh=14 dv=0
EndChar

StartChar: X
Encoding: 88 88 71
Width: 722
VWidth: 0
GlyphClass: 2
Flags: W
TeX: 685 0
ItalicCorrection: 39
HStem: -3 28<20 48 232 264 416 501.953 659 684> 664 28<95 121 324 361 505 538 706 734>
AnchorPoint: "bot_acc" 302 -154 basechar 0
AnchorPoint: "dotbelow" 302 -154 basechar 0
AnchorPoint: "ogon_acc" 521 -154 basechar 0
AnchorPoint: "top_accu" 473 817 basechar 0
AnchorPoint: "dotabove" 473 817 basechar 0
LayerCount: 2
Fore
SplineSet
20 -3 m 1
 20 25 l 1
 48 28 l 2
 72 31 95 43 110 61 c 2
 348 343 l 1
 202 613 l 2
 182 650 170 658 121 662 c 2
 95 664 l 1
 95 692 l 1
 139 690 183 689 228 689 c 0
 272 689 317 690 361 692 c 1
 361 664 l 1
 324 662 l 2
 294 660 281 654 281 642 c 0
 281 634 286 622 295 604 c 2
 399 405 l 1
 560 601 l 2
 578 623 583 632 583 643 c 0
 583 655 570 660 538 662 c 2
 505 664 l 1
 505 692 l 1
 543 690 581 689 620 689 c 0
 658 689 696 690 734 692 c 1
 734 664 l 1
 706 662 l 2
 680 660 670 654 641 620 c 2
 420 368 l 1
 591 61 l 2
 605 37 618 30 659 27 c 2
 684 25 l 1
 684 -3 l 1
 640 -1 596 0 551 0 c 0
 506 0 461 -1 416 -3 c 1
 416 25 l 1
 461 29 451 28 470 29 c 0
 495 31 502 32 502 40 c 0
 502 49 497 62 488 80 c 2
 369 306 l 1
 187 75 l 2
 181 67 177 58 177 50 c 0
 177 38 194 32 232 28 c 2
 264 25 l 1
 264 -3 l 1
 225 -1 185 0 145 0 c 0
 103 0 62 -1 20 -3 c 1
EndSplineSet
Validated: 1
AlternateSubs2: "'aalt' Access All Alternates lookup 0 subtable" x.sc
AlternateSubs2: "'aalt' Access All Alternates in Latin lookup 0 subtable" x.sc
Substitution2: "'c2sc' Capitals to Small Capitals in Latin lookup 13 subtable" x.sc
Position2: "'cpsp' Capital Spacing in Latin lookup 12 subtable" dx=7 dy=0 dh=14 dv=0
EndChar

StartChar: Y
Encoding: 89 89 72
Width: 667
VWidth: 0
GlyphClass: 2
Flags: W
TeX: 685 0
ItalicCorrection: 36
HStem: -3 28<158 206 370 416> 626 71<620.119 669> 685 20G<103.759 177>
AnchorPoint: "bot_acc" 253 -154 basechar 0
AnchorPoint: "dotbelow" 253 -154 basechar 0
AnchorPoint: "ogon_acc" 253 -154 basechar 0
AnchorPoint: "top_accu" 424 817 basechar 0
AnchorPoint: "dotabove" 424 817 basechar 0
LayerCount: 2
Fore
SplineSet
52 647 m 1xc0
 131 705 l 1xa0
 223 704 271 616 346 310 c 1
 374 384 412 453 474 536 c 0
 548 637 602 678 675 697 c 1
 669 626 l 1
 610 616 568 586 510 512 c 0
 436 419 371 301 362 246 c 2
 336 78 l 2
 335 73 334 63 334 57 c 0
 334 37 343 30 370 28 c 2
 419 25 l 1
 416 -3 l 1
 375 -1 334 0 293 0 c 0
 247 0 200 -1 154 -3 c 1
 158 25 l 1
 206 28 l 2
 246 31 249 34 264 125 c 2
 286 257 l 2
 286 273 248 410 224 477 c 0
 183 589 147 635 100 635 c 0
 89 635 78 632 55 623 c 1
 52 647 l 1xc0
EndSplineSet
Validated: 1
AlternateSubs2: "'aalt' Access All Alternates lookup 0 subtable" y.sc
AlternateSubs2: "'aalt' Access All Alternates in Latin lookup 0 subtable" y.sc
Substitution2: "'c2sc' Capitals to Small Capitals in Latin lookup 13 subtable" y.sc
Position2: "'cpsp' Capital Spacing in Latin lookup 12 subtable" dx=7 dy=0 dh=14 dv=0
EndChar

StartChar: Z
Encoding: 90 90 73
Width: 667
VWidth: 0
GlyphClass: 2
Flags: W
TeX: 685 0
HStem: -3 21G<20 20 544 584> 0 39<133 538.896> 652 37<164.612 522>
VStem: 109 26<533 590.099> 580 26<142 164>
AnchorPoint: "bot_acc" 229 -154 basechar 0
AnchorPoint: "dotbelow" 229 -154 basechar 0
AnchorPoint: "ogon_acc" 439 -154 basechar 0
AnchorPoint: "top_accu" 401 817 basechar 0
AnchorPoint: "dotabove" 401 817 basechar 0
LayerCount: 2
Fore
SplineSet
20 -3 m 1xb8
 20 19 l 1
 522 652 l 1
 342 652 l 2
 256 652 218 649 162 639 c 1
 156 619 l 2
 144 580 138 555 135 533 c 1
 109 533 l 1
 117 606 120 645 120 691 c 1
 238 692 l 2
 317 690 396 689 475 689 c 0
 529 689 583 690 637 692 c 1
 637 672 l 1
 133 39 l 1
 414 39 l 2x78
 458 39 496 43 541 52 c 1
 551 78 547 60 573 142 c 2
 580 164 l 1
 606 164 l 1
 593 95 585 38 583 -3 c 1xb8
 505 -2 387 0 261 0 c 0x78
 167 0 20 -3 20 -3 c 1xb8
EndSplineSet
Validated: 1
AlternateSubs2: "'aalt' Access All Alternates lookup 0 subtable" z.sc
AlternateSubs2: "'aalt' Access All Alternates in Latin lookup 0 subtable" z.sc
Substitution2: "'c2sc' Capitals to Small Capitals in Latin lookup 13 subtable" z.sc
Position2: "'cpsp' Capital Spacing in Latin lookup 12 subtable" dx=7 dy=0 dh=14 dv=0
EndChar

StartChar: asciicircum
Encoding: 94 94 74
Width: 606
VWidth: 0
Flags: W
TeX: 685 0
HStem: 669 20G<259.212 346.739>
LayerCount: 2
Fore
SplineSet
51 283 m 1
 270 689 l 1
 336 689 l 1
 554 283 l 1
 493 283 l 1
 303 627 l 1
 112 283 l 1
 51 283 l 1
EndSplineSet
Validated: 1
EndChar

StartChar: underscore
Encoding: 95 95 75
Width: 500
VWidth: 0
Flags: W
TeX: 0 125
ItalicCorrection: 27
HStem: -125 50<0 500>
LayerCount: 2
Fore
SplineSet
0 -75 m 1
 500 -75 l 1
 500 -125 l 1
 0 -125 l 1
 0 -75 l 1
EndSplineSet
Validated: 1
EndChar

StartChar: a
Encoding: 97 97 76
Width: 444
VWidth: 0
GlyphClass: 2
Flags: W
TeX: 450 0
HStem: -11 70<48.135 108.797> 433 49<192.25 317.609>
VStem: 4 72<26.6453 207.299> 236 73<26 102.4>
AnchorPoint: "bot_acc" 162 -154 basechar 0
AnchorPoint: "dotbelow" 162 -154 basechar 0
AnchorPoint: "ogon_acc" 234 -154 basechar 0
AnchorPoint: "top_accl" 298 616 basechar 0
AnchorPoint: "dotabove" 298 616 basechar 0
LayerCount: 2
Fore
SplineSet
4 66 m 0
 4 146 35 265 79 354 c 0
 104 403 136 433 199 464 c 0
 226 477 246 482 274 482 c 0
 301 482 320 478 359 463 c 1
 392 481 l 1
 402 472 l 1
 310 93 l 2
 309 90 309 87 309 83 c 0
 309 67 314 59 324 59 c 0
 339 59 354 68 386 95 c 0
 391 99 392 100 399 106 c 1
 406 85 l 1
 324 17 283 -11 260 -11 c 0
 245 -11 236 3 236 26 c 0
 236 42 238 59 242 77 c 2
 271 204 l 1
 216 126 176 79 133 42 c 0
 96 10 59 -11 38 -11 c 0
 19 -11 4 23 4 66 c 0
76 99 m 0
 76 72 82 59 94 59 c 0
 127 59 190 120 245 204 c 0
 278 255 297 307 319 414 c 1
 276 429 257 433 234 433 c 0
 185 433 161 415 137 357 c 0
 102 274 76 163 76 99 c 0
EndSplineSet
Validated: 1
AlternateSubs2: "'aalt' Access All Alternates lookup 0 subtable" a.sc
AlternateSubs2: "'aalt' Access All Alternates in Latin lookup 0 subtable" a.sc
Substitution2: "'smcp' Lowercase to Small Capitals in Latin lookup 2 subtable" a.sc
EndChar

StartChar: b
Encoding: 98 98 77
Width: 463
VWidth: 0
GlyphClass: 2
Flags: W
TeX: 719 0
HStem: -11 47<126.639 222.881> 424 58<295.801 384.5> 670 21<63 133.995> 713 20G<197 235>
VStem: 37 75<50.0034 183.544> 361 72<241.228 419.57>
AnchorPoint: "bot_acc" 130 -154 basechar 0
AnchorPoint: "dotbelow" 130 -154 basechar 0
AnchorPoint: "ogon_acc" 130 -154 basechar 0
AnchorPoint: "top_accu" 222 887 basechar 0
AnchorPoint: "dotabove" 392 616 basechar 0
LayerCount: 2
Fore
SplineSet
37 61 m 0
 37 64 37 68 38 71 c 2
 139 622 l 2
 140 628 141 639 141 646 c 0
 141 663 131 670 107 670 c 2
 59 670 l 1
 63 691 l 1
 135 698 171 707 223 733 c 1
 235 722 l 1
 149 324 l 1
 211 403 244 433 295 460 c 0
 323 474 353 482 377 482 c 0
 392 482 405 477 412 468 c 0
 424 453 433 414 433 376 c 0
 433 244 367 107 271 39 c 0
 228 8 177 -11 140 -11 c 0
 85 -11 37 22 37 61 c 0
112 101 m 0
 112 59 137 36 183 36 c 0
 237 36 277 68 310 137 c 0
 340 202 361 288 361 352 c 0
 361 401 348 424 322 424 c 0
 293 424 241 395 208 361 c 0
 168 319 144 271 125 191 c 0
 116 154 112 126 112 101 c 0
EndSplineSet
Validated: 1
AlternateSubs2: "'aalt' Access All Alternates lookup 0 subtable" b.sc
AlternateSubs2: "'aalt' Access All Alternates in Latin lookup 0 subtable" b.sc
Substitution2: "'smcp' Lowercase to Small Capitals in Latin lookup 2 subtable" b.sc
EndChar

StartChar: c
Encoding: 99 99 78
Width: 407
VWidth: 0
GlyphClass: 2
Flags: W
TeX: 450 0
ItalicCorrection: 10
HStem: -11 51<131.069 237.731> 433 49<216.088 330.81>
VStem: 25 76<71.2031 274.314> 342 23<330 406.677>
AnchorPoint: "bot_acc" 157 -154 basechar 0
AnchorPoint: "dotbelow" 157 -154 basechar 0
AnchorPoint: "ogon_acc" 157 -154 basechar 0
AnchorPoint: "top_accl" 293 616 basechar 0
AnchorPoint: "dotabove" 293 616 basechar 0
LayerCount: 2
Fore
SplineSet
25 136 m 0
 25 243 63 347 120 397 c 0
 177 447 248 482 293 482 c 0
 331 482 364 474 389 458 c 1
 380 432 373 395 365 330 c 1
 342 330 l 1
 342 390 l 2
 342 414 306 433 261 433 c 0
 229 433 204 425 183 407 c 0
 135 368 101 265 101 159 c 0
 101 80 130 40 186 40 c 0
 221 40 259 57 331 105 c 2
 346 115 l 1
 354 95 l 1
 304 54 l 2
 249 9 201 -11 147 -11 c 0
 67 -11 25 40 25 136 c 0
EndSplineSet
Validated: 1
AlternateSubs2: "'aalt' Access All Alternates lookup 0 subtable" c.sc
AlternateSubs2: "'aalt' Access All Alternates in Latin lookup 0 subtable" c.sc
Substitution2: "'smcp' Lowercase to Small Capitals in Latin lookup 2 subtable" c.sc
EndChar

StartChar: d
Encoding: 100 100 79
Width: 500
VWidth: 0
GlyphClass: 2
Flags: W
TeX: 719 0
ItalicCorrection: 10
HStem: -11 70<61.4338 126.687> 433 49<203.265 346.218> 670 21<311 381.995> 713 20G<445 483>
VStem: 17 72<59.894 244.637> 274 75<10.7538 147.656>
AnchorPoint: "bot_acc" 189 -154 basechar 0
AnchorPoint: "dotbelow" 189 -154 basechar 0
AnchorPoint: "ogon_acc" 274 -154 basechar 0
AnchorPoint: "top_accu" 470 887 basechar 0
AnchorPoint: "dotabove" 219 616 basechar 0
AnchorPoint: "ccmped" 565 634 basechar 0
LayerCount: 2
Fore
SplineSet
17 86 m 0
 17 170 37 265 68 323 c 0
 114 410 208 482 277 482 c 0
 302 482 329 477 359 468 c 1
 387 622 l 2
 388 629 389 638 389 646 c 0
 389 663 379 670 355 670 c 2
 307 670 l 1
 311 691 l 1
 383 698 419 707 471 733 c 1
 483 722 l 1
 357 128 l 2
 351 99 349 90 349 82 c 0
 349 68 355 59 363 59 c 0
 372 59 388 66 402 76 c 2
 446 107 l 1
 456 88 l 1
 375 28 l 2
 341 3 317 -11 300 -11 c 0
 283 -11 274 3 274 24 c 0
 274 50 279 82 290 126 c 2
 313 217 l 1
 246 116 213 77 159 33 c 0
 125 6 88 -11 61 -11 c 0
 32 -11 17 21 17 86 c 0
89 98 m 0
 89 73 98 59 114 59 c 0
 133 59 173 83 208 116 c 0
 270 175 319 263 337 351 c 2
 349 410 l 1
 316 427 287 433 243 433 c 0
 216 433 197 428 184 418 c 0
 135 380 89 224 89 98 c 0
EndSplineSet
Validated: 1
AlternateSubs2: "'aalt' Access All Alternates lookup 0 subtable" d.sc
AlternateSubs2: "'aalt' Access All Alternates in Latin lookup 0 subtable" d.sc
Substitution2: "'smcp' Lowercase to Small Capitals in Latin lookup 2 subtable" d.sc
EndChar

StartChar: e
Encoding: 101 101 80
Width: 389
VWidth: 0
GlyphClass: 2
Flags: W
TeX: 450 0
ItalicCorrection: 13
HStem: -11 47<114.729 216.657> 440 42<212.489 316.419>
VStem: 15 76<60.4311 230.199> 300 74<334.212 432.506>
AnchorPoint: "bot_acc" 138 -154 basechar 0
AnchorPoint: "dotbelow" 138 -154 basechar 0
AnchorPoint: "ogon_acc" 138 -154 basechar 0
AnchorPoint: "top_accl" 274 616 basechar 0
AnchorPoint: "dotabove" 274 616 basechar 0
LayerCount: 2
Fore
SplineSet
15 112 m 0
 15 182 46 302 76 351 c 0
 116 415 225 482 290 482 c 0
 341 482 374 451 374 404 c 0
 374 342 335 297 250 259 c 0
 224 248 198 238 181 234 c 2
 99 214 l 1
 93 185 91 160 91 134 c 0
 91 73 119 36 167 36 c 0
 203 36 251 56 304 94 c 2
 328 111 l 1
 336 92 l 1
 243 17 188 -11 131 -11 c 0
 59 -11 15 35 15 112 c 0
104 237 m 1
 149 247 185 259 213 272 c 0
 265 297 300 344 300 388 c 0
 300 420 281 440 252 440 c 0
 227 440 195 427 176 409 c 0
 149 384 129 341 113 274 c 2
 104 237 l 1
EndSplineSet
Validated: 1
AlternateSubs2: "'aalt' Access All Alternates lookup 0 subtable" e.sc
AlternateSubs2: "'aalt' Access All Alternates in Latin lookup 0 subtable" e.sc
Substitution2: "'smcp' Lowercase to Small Capitals in Latin lookup 2 subtable" e.sc
EndChar

StartChar: f
Encoding: 102 102 81
Width: 278
VWidth: 0
GlyphClass: 2
Flags: W
TeX: 719 275
ItalicCorrection: 163
HStem: -276 63<-138.718 -58.7431> 383 54<192 290.884> 673 60<283.859 360.578>
AnchorPoint: "bot_acc" 10 -430 basechar 0
AnchorPoint: "dotbelow" 10 -430 basechar 0
AnchorPoint: "ogon_acc" -172 -430 basechar 0
AnchorPoint: "top_accl" 239 870 basechar 0
AnchorPoint: "dotabove" 239 870 basechar 0
LayerCount: 2
Fore
SplineSet
-162 -268 m 1
 -157 -259 -143 -211 -139 -188 c 1
 -125 -184 l 1
 -108 -206 -96 -213 -73 -213 c 0
 -37 -213 -8 -182 11 -123 c 0
 33 -54 69 132 100 327 c 2
 109 383 l 1
 28 383 l 1
 33 405 l 1
 58 414 78 422 119 442 c 1
 134 521 l 2
 145 578 157 608 179 630 c 0
 202 654 284 715 308 726 c 0
 316 730 332 733 343 733 c 0
 367 733 396 728 413 720 c 1
 408 705 l 1
 385 638 l 1
 375 634 l 1
 360 658 333 673 303 673 c 0
 257 673 229 635 213 549 c 2
 192 437 l 1
 208 437 l 2
 257 437 268 437 292 444 c 2
 299 446 l 1
 303 439 l 1
 297 425 290 402 286 383 c 1
 182 383 l 1
 176 350 168 320 163 295 c 0
 89 -57 68 -126 7 -198 c 0
 -32 -245 -86 -276 -127 -276 c 0
 -138 -276 -153 -273 -162 -268 c 1
EndSplineSet
Validated: 1
AlternateSubs2: "'aalt' Access All Alternates lookup 0 subtable" f.sc
AlternateSubs2: "'aalt' Access All Alternates in Latin lookup 0 subtable" f.sc
Substitution2: "'smcp' Lowercase to Small Capitals in Latin lookup 2 subtable" f.sc
EndChar

StartChar: longs
Encoding: 280 383 82
Width: 278
VWidth: 0
Flags: W
TeX: 733 -276
HStem: -276 63<-138.718 -58.7431> 673 60<283.859 360.578>
LayerCount: 2
Fore
SplineSet
-162 -268 m 1
 -157 -259 -143 -211 -139 -188 c 1
 -125 -184 l 1
 -108 -206 -96 -213 -73 -213 c 0
 -37 -213 -8 -182 11 -123 c 0
 33 -54 69 132 100 327 c 2
 109 383 l 1
 28 383 l 1
 33 405 l 1
 58 414 78 422 119 442 c 1
 134 521 l 2
 145 578 157 608 179 630 c 0
 202 654 284 715 308 726 c 0
 316 730 332 733 343 733 c 0
 367 733 396 728 413 720 c 1
 408 705 l 1
 385 638 l 1
 375 634 l 1
 360 658 333 673 303 673 c 0
 257 673 229 635 213 549 c 2
 163 295 l 1
 89 -57 68 -126 7 -198 c 0
 -32 -245 -86 -276 -127 -276 c 0
 -138 -276 -153 -273 -162 -268 c 1
EndSplineSet
Validated: 1
EndChar

StartChar: g
Encoding: 103 103 83
Width: 500
VWidth: 0
GlyphClass: 2
Flags: W
TeX: 450 275
ItalicCorrection: 25
HStem: -276 28<92.7403 236.133> 136 32<165.497 238.858> 378 46<405 487.931> 448 34<202.392 304.98>
VStem: -37 64<-202.061 -87.6702> 55 71<201.993 354.227> 139 74<47 119.606> 318 66<-181.109 -98.7478> 337 72<258.58 377.596>
AnchorPoint: "bot_acc" 95 -430 basechar 0
AnchorPoint: "dotbelow" 95 -430 basechar 0
AnchorPoint: "ogon_acc" 95 -430 basechar 0
AnchorPoint: "top_accl" 280 616 basechar 0
AnchorPoint: "dotabove" 280 616 basechar 0
AnchorPoint: "ccmped" 280 616 basechar 0
LayerCount: 2
Fore
SplineSet
-37 -159 m 0xff
 -37 -119 -18 -80 16 -52 c 0
 53 -21 84 -6 160 19 c 1
 146 31 139 42 139 52 c 0
 139 66 150 84 166 99 c 2
 207 137 l 1
 196 136 185 136 177 136 c 0
 100 136 55 182 55 259 c 0
 55 330 84 388 140 430 c 0
 184 463 234 482 275 482 c 0
 296 482 321 477 342 469 c 0
 367 459 377 450 393 424 c 1
 447 424 467 426 495 433 c 1
 498 427 l 1
 489 382 l 1
 466 379 456 378 439 378 c 2
 405 378 l 1
 406 375 l 2
 409 360 409 351 409 342 c 0xfe80
 409 253 338 170 240 146 c 0
 238 143 237 142 234 138 c 0
 219 119 213 109 213 100 c 0
 213 81 226 62 260 35 c 2
 320 -14 l 2
 363 -49 384 -85 384 -121 c 0
 384 -204 271 -276 142 -276 c 0
 33 -276 -37 -230 -37 -159 c 0xff
27 -145 m 0
 27 -206 84 -248 166 -248 c 0
 249 -248 318 -206 318 -154 c 0xff
 318 -121 299 -94 253 -58 c 2
 176 1 l 1
 125 -14 103 -24 77 -45 c 0
 45 -72 27 -107 27 -145 c 0
126 288 m 0
 126 209 158 168 219 168 c 0
 289 168 337 238 337 341 c 0xfe80
 337 412 308 448 250 448 c 0
 177 448 126 383 126 288 c 0
EndSplineSet
Validated: 1
AlternateSubs2: "'aalt' Access All Alternates lookup 0 subtable" g.sc
AlternateSubs2: "'aalt' Access All Alternates in Latin lookup 0 subtable" g.sc
Substitution2: "'smcp' Lowercase to Small Capitals in Latin lookup 2 subtable" g.sc
EndChar

StartChar: h
Encoding: 104 104 84
Width: 500
VWidth: 0
GlyphClass: 2
Flags: W
TeX: 719 0
HStem: -9 65<301.5 379> 414 68<317 423> 670 21<64 134.995> 713 20G<198 236>
AnchorPoint: "bot_acc" 172 -154 basechar 0
AnchorPoint: "dotbelow" 172 -154 basechar 0
AnchorPoint: "ogon_acc" 285 -154 basechar 0
AnchorPoint: "top_accu" 223 887 basechar 0
AnchorPoint: "dotabove" 393 616 basechar 0
LayerCount: 2
Fore
SplineSet
10 2 m 1
 31 65 71 237 98 388 c 2
 140 622 l 2
 141 629 142 638 142 646 c 0
 142 663 132 670 108 670 c 2
 60 670 l 1
 64 691 l 1
 136 698 172 707 224 733 c 1
 236 722 l 1
 138 265 l 1
 158 290 l 2
 205 348 221 367 256 396 c 0
 319 449 380 482 414 482 c 0
 432 482 443 468 443 446 c 0
 443 429 438 398 432 372 c 2
 368 116 l 2
 362 94 361 86 361 76 c 0
 361 65 367 56 374 56 c 0
 384 56 406 67 435 86 c 2
 461 103 l 1
 471 85 l 1
 373 12 337 -9 311 -9 c 0
 292 -9 281 6 281 30 c 0
 281 49 285 71 294 107 c 2
 345 303 l 2
 354 336 360 374 360 392 c 0
 360 405 351 414 338 414 c 0
 296 414 192 317 148 236 c 0
 119 183 102 122 86 7 c 1
 17 -9 l 1
 10 2 l 1
EndSplineSet
Validated: 1
AlternateSubs2: "'aalt' Access All Alternates lookup 0 subtable" h.sc
AlternateSubs2: "'aalt' Access All Alternates in Latin lookup 0 subtable" h.sc
Substitution2: "'smcp' Lowercase to Small Capitals in Latin lookup 2 subtable" h.sc
EndChar

StartChar: k
Encoding: 107 107 85
Width: 444
VWidth: 0
GlyphClass: 2
Flags: W
TeX: 719 0
ItalicCorrection: 32
HStem: -9 61<287.5 347.56> 416 66<336.419 435.061> 670 21<62 132.995> 713 20G<196 234>
AnchorPoint: "bot_acc" 150 -154 basechar 0
AnchorPoint: "dotbelow" 150 -154 basechar 0
AnchorPoint: "ogon_acc" 274 -154 basechar 0
AnchorPoint: "top_accu" 221 887 basechar 0
AnchorPoint: "dotabove" 391 616 basechar 0
LayerCount: 2
Fore
SplineSet
8 1 m 1
 60 210 77 279 90 354 c 2
 138 622 l 2
 139 629 140 638 140 646 c 0
 140 663 130 670 106 670 c 2
 58 670 l 1
 62 691 l 1
 134 698 170 707 222 733 c 1
 234 722 l 1
 127 230 l 1
 252 405 335 482 401 482 c 0
 413 482 431 479 449 473 c 1
 432 410 l 1
 415 414 404 416 396 416 c 0
 346 416 300 391 239 330 c 2
 225 316 l 1
 264 193 286 139 321 75 c 0
 330 58 337 52 347 52 c 0
 355 52 362 54 376 62 c 2
 419 86 l 1
 427 67 l 1
 381 35 l 2
 337 4 313 -9 300 -9 c 0
 275 -9 243 59 174 259 c 1
 140 225 116 180 107 132 c 2
 84 8 l 1
 17 -9 l 1
 8 1 l 1
EndSplineSet
Validated: 1
AlternateSubs2: "'aalt' Access All Alternates lookup 0 subtable" k.sc
AlternateSubs2: "'aalt' Access All Alternates in Latin lookup 0 subtable" k.sc
Substitution2: "'smcp' Lowercase to Small Capitals in Latin lookup 2 subtable" k.sc
EndChar

StartChar: l
Encoding: 108 108 86
Width: 278
VWidth: 0
GlyphClass: 2
Flags: W
TeX: 719 0
HStem: -9 65<56.5 134> 670 21<79 149.995> 713 20G<213 251>
VStem: 36 80<14.0122 140.43>
AnchorPoint: "bot_acc" 57 -154 basechar 0
AnchorPoint: "dotbelow" 57 -154 basechar 0
AnchorPoint: "ogon_acc" 57 -154 basechar 0
AnchorPoint: "top_accu" 277 887 basechar 0
AnchorPoint: "dotabove" 277 887 basechar 0
AnchorPoint: "ccmped" 333 634 basechar 0
LayerCount: 2
Fore
SplineSet
36 30 m 0
 36 52 41 80 55 132 c 2
 151 600 l 2
 153 612 157 635 157 648 c 0
 157 663 147 670 123 670 c 2
 75 670 l 1
 79 691 l 1
 151 698 187 707 239 733 c 1
 251 722 l 1
 122 113 l 2
 119 101 116 89 116 76 c 0
 116 65 122 56 129 56 c 0
 139 56 160 66 190 86 c 2
 216 103 l 1
 226 85 l 1
 129 13 92 -9 66 -9 c 0
 47 -9 36 6 36 30 c 0
EndSplineSet
Validated: 1
AlternateSubs2: "'aalt' Access All Alternates lookup 0 subtable" l.sc
AlternateSubs2: "'aalt' Access All Alternates in Latin lookup 0 subtable" l.sc
Substitution2: "'smcp' Lowercase to Small Capitals in Latin lookup 2 subtable" l.sc
EndChar

StartChar: m
Encoding: 109 109 87
Width: 778
VWidth: 0
GlyphClass: 2
Flags: W
TeX: 450 0
HStem: -9 65<570.5 648> 462 20G<174.5 192 414 437 678.5 701>
VStem: 128 80<345.09 460.967> 371 84<342.026 462.561> 550 80<14.5458 139.047> 631 88<356.063 463.224>
AnchorPoint: "bot_acc" 313 -154 basechar 0
AnchorPoint: "dotbelow" 313 -154 basechar 0
AnchorPoint: "ogon_acc" 554 -154 basechar 0
AnchorPoint: "top_accl" 449 616 basechar 0
AnchorPoint: "dotabove" 449 616 basechar 0
LayerCount: 2
Fore
SplineSet
24 388 m 1
 52 408 l 2
 126 461 164 482 185 482 c 0
 199 482 208 470 208 451 c 0
 208 439 206 424 202 408 c 2
 169 275 l 1
 234 363 254 384 298 418 c 0
 353 460 399 482 429 482 c 0
 445 482 455 470 455 451 c 0
 455 444 452 429 448 409 c 2
 418 272 l 1
 467 341 502 376 565 421 c 0
 626 464 664 482 693 482 c 0
 709 482 719 471 719 454 c 0
 719 446 716 430 712 413 c 2
 637 116 l 2
 632 95 630 86 630 76 c 0
 630 65 636 56 643 56 c 0
 653 56 675 67 704 86 c 2
 730 103 l 1
 740 85 l 1
 642 12 606 -9 580 -9 c 0
 561 -9 550 6 550 31 c 0
 550 53 555 79 563 107 c 2
 606 264 l 2
 630 351 631 365 631 389 c 0
 631 405 626 414 618 414 c 0
 586 414 536 379 481 318 c 0
 437 269 403 194 387 113 c 2
 366 6 l 1
 297 -9 l 1
 292 2 l 1
 308 69 l 2
 350 244 371 358 371 393 c 0
 371 406 367 414 360 414 c 0
 332 414 287 384 245 338 c 0
 190 278 163 219 139 108 c 2
 117 6 l 1
 49 -9 l 1
 46 2 l 1
 87 145 128 338 128 389 c 0
 128 404 121 414 110 414 c 0
 103 414 99 413 63 389 c 2
 31 368 l 1
 24 388 l 1
EndSplineSet
Validated: 1
AlternateSubs2: "'aalt' Access All Alternates lookup 0 subtable" m.sc
AlternateSubs2: "'aalt' Access All Alternates in Latin lookup 0 subtable" m.sc
Substitution2: "'smcp' Lowercase to Small Capitals in Latin lookup 2 subtable" m.sc
EndChar

StartChar: n
Encoding: 110 110 88
Width: 556
VWidth: 0
GlyphClass: 2
Flags: W
TeX: 450 0
HStem: -9 65<344.5 422> 462 20G<174.5 192.5 431 462>
VStem: 128 80<342.274 459.774>
AnchorPoint: "bot_acc" 206 -154 basechar 0
AnchorPoint: "dotbelow" 206 -154 basechar 0
AnchorPoint: "ogon_acc" 328 -154 basechar 0
AnchorPoint: "top_accl" 342 616 basechar 0
AnchorPoint: "dotabove" 342 616 basechar 0
LayerCount: 2
Fore
SplineSet
24 388 m 1
 52 408 l 2
 125 460 164 482 185 482 c 0
 200 482 208 470 208 449 c 0
 208 438 206 426 202 408 c 2
 164 247 l 1
 216 320 244 354 282 389 c 0
 341 444 410 482 452 482 c 0
 472 482 483 469 483 446 c 0
 483 429 479 401 472 372 c 2
 406 96 l 2
 405 92 404 81 404 76 c 0
 404 65 410 56 417 56 c 0
 427 56 449 67 478 86 c 2
 504 103 l 1
 514 85 l 1
 416 12 380 -9 354 -9 c 0
 335 -9 324 6 324 31 c 0
 324 47 328 70 337 107 c 2
 389 319 l 2
 397 351 400 372 400 390 c 0
 400 405 394 414 383 414 c 0
 338 414 264 352 209 268 c 0
 164 199 142 134 123 8 c 1
 101 4 78 -2 53 -9 c 1
 46 2 l 1
 87 145 128 338 128 389 c 0
 128 404 121 414 110 414 c 0
 103 414 99 413 63 389 c 2
 31 368 l 1
 24 388 l 1
EndSplineSet
Validated: 1
AlternateSubs2: "'aalt' Access All Alternates lookup 0 subtable" n.sc
AlternateSubs2: "'aalt' Access All Alternates in Latin lookup 0 subtable" n.sc
Substitution2: "'smcp' Lowercase to Small Capitals in Latin lookup 2 subtable" n.sc
EndChar

StartChar: o
Encoding: 111 111 89
Width: 444
VWidth: 0
GlyphClass: 2
Flags: W
TeX: 450 0
HStem: -11 38<130.143 229.237> 444 38<196.067 297.195>
VStem: 17 76<63.6086 288.125> 335 76<201.507 407.237>
AnchorPoint: "bot_acc" 151 -154 basechar 0
AnchorPoint: "dotbelow" 151 -154 basechar 0
AnchorPoint: "ogon_acc" 151 -154 basechar 0
AnchorPoint: "top_accl" 286 616 basechar 0
AnchorPoint: "dotabove" 286 616 basechar 0
LayerCount: 2
Fore
SplineSet
17 152 m 0
 17 274 62 375 143 433 c 0
 188 465 235 482 278 482 c 0
 361 482 411 425 411 331 c 0
 411 230 367 116 305 57 c 0
 260 15 200 -11 145 -11 c 0
 62 -11 17 46 17 152 c 0
93 151 m 0
 93 72 127 27 185 27 c 0
 216 27 242 39 260 60 c 0
 304 113 335 219 335 315 c 0
 335 399 302 444 241 444 c 0
 217 444 194 438 181 427 c 0
 132 387 93 264 93 151 c 0
EndSplineSet
Validated: 1
AlternateSubs2: "'aalt' Access All Alternates lookup 0 subtable" o.sc
AlternateSubs2: "'aalt' Access All Alternates in Latin lookup 0 subtable" o.sc
Substitution2: "'smcp' Lowercase to Small Capitals in Latin lookup 2 subtable" o.sc
EndChar

StartChar: p
Encoding: 112 112 90
Width: 500
VWidth: 0
GlyphClass: 2
Flags: W
TeX: 450 275
HStem: -276 21G<-7 10.5> -11 47<127.51 246.565> 424 58<333.552 413.971>
VStem: 112 79<286.75 461.497> 393 72<245.412 419.486>
AnchorPoint: "bot_acc" 96 -430 basechar 0
AnchorPoint: "dotbelow" 170 -154 basechar 0
AnchorPoint: "ogon_acc" 4 -430 basechar 0
AnchorPoint: "top_accl" 281 616 basechar 0
AnchorPoint: "dotabove" 281 616 basechar 0
LayerCount: 2
Fore
SplineSet
-7 -270 m 1
 1 -233 l 1
 50 8 l 1
 108 351 l 2
 110 361 112 381 112 389 c 0
 112 403 105 412 95 412 c 0
 86 412 75 407 47 389 c 2
 15 368 l 1
 8 388 l 1
 36 408 l 2
 110 461 148 482 169 482 c 0
 183 482 191 471 191 452 c 0
 191 440 189 425 186 408 c 2
 162 289 l 1
 198 348 219 373 259 409 c 0
 312 455 364 482 406 482 c 0
 442 482 465 438 465 371 c 0
 465 296 431 186 390 125 c 0
 347 62 232 -11 176 -11 c 0
 165 -11 150 -9 124 0 c 2
 115 3 l 1
 73 -259 l 1
 41 -264 21 -269 0 -276 c 1
 -7 -270 l 1
125 59 m 1
 151 43 176 36 207 36 c 0
 248 36 280 51 300 80 c 0
 353 156 393 275 393 356 c 0
 393 402 381 424 355 424 c 0
 272 424 165 293 143 165 c 2
 125 59 l 1
EndSplineSet
Validated: 1
AlternateSubs2: "'aalt' Access All Alternates lookup 0 subtable" p.sc
AlternateSubs2: "'aalt' Access All Alternates in Latin lookup 0 subtable" p.sc
Substitution2: "'smcp' Lowercase to Small Capitals in Latin lookup 2 subtable" p.sc
EndChar

StartChar: q
Encoding: 113 113 91
Width: 463
VWidth: 0
GlyphClass: 2
Flags: W
TeX: 450 275
HStem: -276 21G<205 229.5> -11 70<48 119.406> 433 49<210.704 338.385>
VStem: 24 72<59.349 236.112>
AnchorPoint: "bot_acc" 99 -430 basechar 0
AnchorPoint: "dotbelow" 146 -154 basechar 0
AnchorPoint: "ogon_acc" 223 -430 basechar 0
AnchorPoint: "top_accl" 284 616 basechar 0
AnchorPoint: "dotabove" 284 616 basechar 0
LayerCount: 2
Fore
SplineSet
24 78 m 0
 24 181 63 327 103 374 c 0
 125 399 169 435 205 457 c 0
 233 474 257 482 284 482 c 0
 313 482 342 475 385 458 c 1
 418 480 l 1
 432 474 l 1
 422 443 416 417 405 356 c 2
 319 -100 l 2
 310 -150 304 -205 300 -259 c 1
 276 -262 245 -268 214 -276 c 1
 205 -262 l 1
 217 -249 228 -229 232 -205 c 2
 308 209 l 1
 271 143 205 73 141 25 c 2
 133 19 l 2
 102 -4 82 -11 60 -11 c 0
 36 -11 24 19 24 78 c 0
96 113 m 0
 96 80 104 59 118 59 c 0
 147 59 208 106 260 170 c 0
 297 216 319 260 330 311 c 2
 351 406 l 1
 303 427 282 433 254 433 c 0
 222 433 193 424 181 409 c 0
 139 359 96 209 96 113 c 0
EndSplineSet
Validated: 1
AlternateSubs2: "'aalt' Access All Alternates lookup 0 subtable" q.sc
AlternateSubs2: "'aalt' Access All Alternates in Latin lookup 0 subtable" q.sc
Substitution2: "'smcp' Lowercase to Small Capitals in Latin lookup 2 subtable" q.sc
EndChar

StartChar: r
Encoding: 114 114 92
Width: 389
VWidth: 0
GlyphClass: 2
Flags: W
TeX: 450 0
ItalicCorrection: 22
HStem: 384 98<313.298 362.759>
VStem: 47 77<2.15845 38.3077> 130 80<336.49 460.37> 266 118<384.138 434.761>
AnchorPoint: "bot_acc" 103 -154 basechar 0
AnchorPoint: "dotbelow" 103 -154 basechar 0
AnchorPoint: "ogon_acc" 58 -154 basechar 0
AnchorPoint: "top_accl" 239 616 basechar 0
AnchorPoint: "dotabove" 239 616 basechar 0
LayerCount: 2
Fore
SplineSet
26 388 m 1
 54 408 l 2
 128 461 166 482 187 482 c 0
 202 482 210 470 210 450 c 0
 210 427 203 404 198 382 c 2
 172 256 l 1
 197 310 232 358 266 407 c 0
 302 458 333 482 364 482 c 0
 369 482 373 481 384 476 c 1
 376 435 371 403 368 365 c 1
 354 365 l 1
 343 379 333 384 318 384 c 0
 296 384 269 363 235 319 c 0
 191 262 168 209 150 126 c 2
 124 6 l 1
 101 2 79 -2 57 -9 c 1
 47 -2 l 1
 87 126 130 332 130 390 c 0
 130 403 123 412 113 412 c 0
 104 412 93 407 65 389 c 2
 33 368 l 1
 26 388 l 1
EndSplineSet
Validated: 1
AlternateSubs2: "'aalt' Access All Alternates lookup 0 subtable" r.sc
AlternateSubs2: "'aalt' Access All Alternates in Latin lookup 0 subtable" r.sc
Substitution2: "'smcp' Lowercase to Small Capitals in Latin lookup 2 subtable" r.sc
EndChar

StartChar: s
Encoding: 115 115 93
Width: 389
VWidth: 0
GlyphClass: 2
Flags: W
TeX: 450 0
HStem: -11 40<77.1104 201.338> 442 40<165.455 278.008>
VStem: 31 25<60.6348 148> 47 59<298.435 385.112> 267 67<99.9565 189.001> 303 23<342 411.179>
AnchorPoint: "bot_acc" 118 -154 basechar 0
AnchorPoint: "dotbelow" 118 -154 basechar 0
AnchorPoint: "ogon_acc" 118 -154 basechar 0
AnchorPoint: "top_accl" 254 616 basechar 0
AnchorPoint: "dotabove" 254 616 basechar 0
LayerCount: 2
Fore
SplineSet
9 16 m 1xd8
 20 62 26 97 31 148 c 1
 56 148 l 1
 56 64 l 1
 84 40 114 29 150 29 c 0
 221 29 267 72 267 138 c 0xe8
 267 178 251 195 207 203 c 2
 144 215 l 2
 78 228 47 260 47 316 c 0
 47 352 58 377 84 404 c 0
 132 453 193 482 245 482 c 0
 278 482 306 474 345 455 c 1
 334 404 330 377 326 342 c 1
 303 342 l 1
 303 397 l 1xd4
 287 424 249 442 208 442 c 0
 150 442 106 401 106 348 c 0
 106 307 125 290 185 279 c 2
 228 271 l 2
 303 257 334 228 334 174 c 0
 334 124 313 87 262 47 c 0
 211 7 165 -11 116 -11 c 0
 81 -11 47 -3 9 16 c 1xd8
EndSplineSet
Validated: 1
AlternateSubs2: "'aalt' Access All Alternates lookup 0 subtable" s.sc
AlternateSubs2: "'aalt' Access All Alternates in Latin lookup 0 subtable" s.sc
Substitution2: "'smcp' Lowercase to Small Capitals in Latin lookup 2 subtable" s.sc
EndChar

StartChar: t
Encoding: 116 116 94
Width: 333
VWidth: 0
GlyphClass: 2
Flags: W
TeX: 652 0
ItalicCorrection: 5
HStem: -9 65<76.5 150.097> 390 44<200 299>
VStem: 56 80<13.3342 151.823> 156 89<562.4 618.438>
AnchorPoint: "bot_acc" 83 -154 basechar 0
AnchorPoint: "dotbelow" 83 -154 basechar 0
AnchorPoint: "ogon_acc" 42 -154 basechar 0
AnchorPoint: "top_accl" 232 800 basechar 0
AnchorPoint: "dotabove" 232 800 basechar 0
AnchorPoint: "ccmped" 344 634 basechar 0
LayerCount: 2
Fore
SplineSet
41 390 m 1
 43 403 l 1
 61 408 87 419 131 440 c 1
 156 610 l 1
 187 622 214 634 234 646 c 1
 245 631 l 1
 227 577 216 528 200 434 c 1
 238 434 272 436 310 440 c 1
 299 390 l 1
 192 390 l 1
 179 328 l 2
 148 180 136 102 136 76 c 0
 136 64 141 56 149 56 c 0
 161 56 180 65 210 86 c 2
 255 117 l 1
 265 99 l 1
 246 84 252 88 234 74 c 0
 155 11 121 -9 86 -9 c 0
 67 -9 56 6 56 31 c 0
 56 57 64 82 69 107 c 2
 125 390 l 1
 41 390 l 1
EndSplineSet
Validated: 1
AlternateSubs2: "'aalt' Access All Alternates lookup 0 subtable" t.sc
AlternateSubs2: "'aalt' Access All Alternates in Latin lookup 0 subtable" t.sc
Substitution2: "'smcp' Lowercase to Small Capitals in Latin lookup 2 subtable" t.sc
EndChar

StartChar: u
Encoding: 117 117 95
Width: 556
VWidth: 0
GlyphClass: 2
Flags: W
TeX: 450 0
HStem: -11 70<114.053 159.795 367.502 416.188> 462 20G<182.5 200 417 492>
VStem: 322 80<13.9068 138.734>
AnchorPoint: "bot_acc" 209 -154 basechar 0
AnchorPoint: "dotbelow" 209 -154 basechar 0
AnchorPoint: "ogon_acc" 326 -154 basechar 0
AnchorPoint: "top_accl" 345 616 basechar 0
AnchorPoint: "dotabove" 345 616 basechar 0
LayerCount: 2
Fore
SplineSet
32 388 m 1
 60 408 l 2
 135 462 172 482 193 482 c 0
 207 482 215 470 215 451 c 0
 215 438 213 424 210 408 c 2
 153 137 l 2
 148 111 146 100 146 85 c 0
 146 68 150 59 159 59 c 0
 200 59 280 133 339 225 c 0
 368 271 392 338 407 414 c 2
 417 465 l 1
 485 482 l 1
 492 473 l 1
 408 116 l 2
 405 104 402 89 402 76 c 0
 402 66 407 59 415 59 c 0
 427 59 451 70 476 86 c 2
 502 103 l 1
 512 85 l 1
 415 13 378 -11 352 -11 c 0
 333 -11 322 6 322 31 c 0
 322 47 326 72 333 97 c 2
 370 239 l 1
 286 101 165 -11 102 -11 c 0
 82 -11 67 7 67 29 c 0
 67 45 69 67 71 77 c 2
 134 374 l 2
 135 379 136 387 136 392 c 0
 136 403 129 412 119 412 c 0
 110 412 100 408 71 389 c 2
 39 368 l 1
 32 388 l 1
EndSplineSet
Validated: 1
AlternateSubs2: "'aalt' Access All Alternates lookup 0 subtable" u.sc
AlternateSubs2: "'aalt' Access All Alternates in Latin lookup 0 subtable" u.sc
Substitution2: "'smcp' Lowercase to Small Capitals in Latin lookup 2 subtable" u.sc
EndChar

StartChar: v
Encoding: 118 118 96
Width: 500
VWidth: 0
GlyphClass: 2
Flags: W
TeX: 450 0
ItalicCorrection: 5
HStem: -11 50<176.846 261.128> 413 69<365.5 433> 420 50<62.3041 227.789>
VStem: 76 72<68.0078 232.948> 413 64<272.752 407.052>
AnchorPoint: "bot_acc" 159 -154 basechar 0
AnchorPoint: "dotbelow" 159 -154 basechar 0
AnchorPoint: "ogon_acc" 159 -154 basechar 0
AnchorPoint: "top_accl" 294 616 basechar 0
AnchorPoint: "dotabove" 294 616 basechar 0
LayerCount: 2
Fore
SplineSet
21 352 m 1xb8
 34 407 45 443 59 470 c 1
 70 475 79 478 91 477 c 0
 132 474 173 470 214 470 c 0xb8
 242 470 255 473 275 482 c 1
 285 464 l 1
 187 342 148 251 148 146 c 0
 148 81 179 39 228 39 c 0
 316 39 413 202 413 350 c 0
 413 390 397 413 370 413 c 0xd8
 361 413 352 410 343 404 c 1
 332 423 l 1
 382 470 l 2xb8
 390 478 402 482 415 482 c 0xd8
 451 482 477 441 477 384 c 0
 477 344 460 277 438 227 c 0
 407 158 359 91 312 48 c 0
 266 7 228 -11 186 -11 c 0
 122 -11 76 44 76 121 c 0
 76 221 118 304 229 424 c 1
 203 421 187 420 166 420 c 0
 148 420 129 422 111 422 c 0
 87 422 67 411 60 394 c 2
 43 352 l 1
 21 352 l 1xb8
EndSplineSet
Validated: 33
AlternateSubs2: "'aalt' Access All Alternates lookup 0 subtable" v.sc
AlternateSubs2: "'aalt' Access All Alternates in Latin lookup 0 subtable" v.sc
Substitution2: "'smcp' Lowercase to Small Capitals in Latin lookup 2 subtable" v.sc
EndChar

StartChar: w
Encoding: 119 119 97
Width: 722
VWidth: 0
GlyphClass: 2
Flags: W
TeX: 450 0
ItalicCorrection: 5
HStem: -11 50<133.5 223.45 389.5 480.775> 413 69<587.5 655> 420 50<62.3041 224.837>
VStem: 72 73<58.1057 232.979> 338 65<54.4259 233.315> 635 64<273.283 407.052>
AnchorPoint: "bot_acc" 287 -154 basechar 0
AnchorPoint: "dotbelow" 287 -154 basechar 0
AnchorPoint: "ogon_acc" 387 -154 basechar 0
AnchorPoint: "top_accl" 423 616 basechar 0
AnchorPoint: "dotabove" 423 616 basechar 0
LayerCount: 2
Fore
SplineSet
21 352 m 1xbc
 34 407 45 443 59 470 c 1
 70 475 79 478 91 477 c 0
 132 474 173 470 214 470 c 0xbc
 242 470 255 473 275 482 c 1
 285 464 l 1
 186 352 145 255 145 136 c 0
 145 78 168 39 203 39 c 0
 233 39 271 80 311 155 c 0
 340 209 354 249 366 311 c 2
 395 460 l 1
 469 482 l 1
 476 474 l 1
 424 290 l 2
 412 247 403 181 403 134 c 0
 403 79 424 39 453 39 c 0
 538 39 635 205 635 350 c 0
 635 390 619 413 592 413 c 0xdc
 583 413 574 410 565 404 c 1
 554 423 l 1
 604 470 l 2xbc
 612 478 624 482 637 482 c 0xdc
 673 482 699 441 699 384 c 0
 699 344 682 277 660 227 c 0
 598 90 493 -11 412 -11 c 0
 367 -11 338 32 338 95 c 0
 338 118 341 143 350 187 c 1
 276 44 224 -11 160 -11 c 0
 107 -11 72 44 72 126 c 0
 72 211 106 283 196 388 c 0
 206 400 217 411 226 424 c 1
 201 421 188 420 167 420 c 0
 148 420 130 422 111 422 c 0
 87 422 67 411 60 394 c 2
 43 352 l 1
 21 352 l 1xbc
EndSplineSet
Validated: 33
AlternateSubs2: "'aalt' Access All Alternates lookup 0 subtable" w.sc
AlternateSubs2: "'aalt' Access All Alternates in Latin lookup 0 subtable" w.sc
Substitution2: "'smcp' Lowercase to Small Capitals in Latin lookup 2 subtable" w.sc
EndChar

StartChar: x
Encoding: 120 120 98
Width: 500
VWidth: 0
GlyphClass: 2
Flags: W
TeX: 450 0
ItalicCorrection: 11
HStem: -11 65<49.6611 105.514 296 369.14> 406 76<401.138 465.265> 416 66<113.849 176.806>
AnchorPoint: "bot_acc" 185 -154 basechar 0
AnchorPoint: "dotbelow" 185 -154 basechar 0
AnchorPoint: "ogon_acc" 289 -154 basechar 0
AnchorPoint: "top_accl" 321 616 basechar 0
AnchorPoint: "dotabove" 321 616 basechar 0
LayerCount: 2
Fore
SplineSet
9 1 m 1xc0
 10 8 11 11 13 23 c 0
 19 55 21 68 21 88 c 1
 41 91 l 1
 52 63 l 2
 54 58 65 54 80 54 c 0
 108 54 142 86 185 153 c 2
 225 215 l 1
 214 277 l 2
 197 375 175 416 142 416 c 0
 123 416 103 402 73 368 c 1
 56 378 l 1
 114 461 l 2
 123 474 145 482 171 482 c 0xa0
 230 482 257 446 269 347 c 2
 275 299 l 1
 312 354 l 2
 374 446 414 482 454 482 c 0
 463 482 472 479 484 472 c 1
 469 387 l 1
 455 383 l 1
 450 398 438 406 422 406 c 0
 391 406 364 383 317 318 c 2
 282 269 l 1
 300 168 l 2
 305 139 316 102 325 83 c 0
 335 63 348 53 363 53 c 0
 379 53 404 68 440 98 c 1
 449 79 l 1
 400 35 l 2
 368 6 336 -11 314 -11 c 0
 278 -11 256 28 242 113 c 2
 231 182 l 1
 155 65 l 2
 124 18 85 -11 52 -11 c 0
 40 -11 24 -7 9 1 c 1xc0
EndSplineSet
Validated: 1
AlternateSubs2: "'aalt' Access All Alternates lookup 0 subtable" x.sc
AlternateSubs2: "'aalt' Access All Alternates in Latin lookup 0 subtable" x.sc
Substitution2: "'smcp' Lowercase to Small Capitals in Latin lookup 2 subtable" x.sc
EndChar

StartChar: y
Encoding: 121 121 99
Width: 500
VWidth: 0
GlyphClass: 2
Flags: W
TeX: 450 275
ItalicCorrection: 17
HStem: -276 42<65.2521 148.443> -11 78<122.5 195> 410 72<85.5 168.5>
VStem: -8 57<-219.231 -171.882> 92 73<67.0348 194.5>
AnchorPoint: "bot_acc" 136 -430 basechar 0
AnchorPoint: "dotbelow" 408 -154 basechar 0
AnchorPoint: "ogon_acc" 89 -430 basechar 0
AnchorPoint: "top_accl" 320 616 basechar 0
AnchorPoint: "dotabove" 320 616 basechar 0
LayerCount: 2
Fore
SplineSet
-8 -198 m 0
 -8 -193 -8 -187 -7 -180 c 1
 41 -146 l 1
 51 -150 l 1
 50 -159 49 -167 49 -172 c 0
 49 -207 76 -234 111 -234 c 0
 181 -234 231 -161 282 16 c 2
 331 187 l 1
 256 74 172 -11 135 -11 c 0
 110 -11 91 18 92 60 c 2
 93 100 l 1
 110 343 l 2
 111 359 115 410 89 410 c 0
 82 410 69 402 64 398 c 2
 14 368 l 1
 3 386 l 1
 85 442 l 2
 133 475 147 482 160 482 c 0
 177 482 184 464 184 419 c 0
 184 391 182 353 180 322 c 2
 165 128 l 2
 164 115 162 67 184 67 c 0
 206 67 255 111 290 162 c 0
 323 211 358 284 370 331 c 2
 405 463 l 1
 427 465 450 471 479 482 c 1
 490 473 l 1
 349 33 l 2
 290 -152 180 -276 74 -276 c 0
 29 -276 -8 -241 -8 -198 c 0
EndSplineSet
Validated: 33
AlternateSubs2: "'aalt' Access All Alternates lookup 0 subtable" y.sc
AlternateSubs2: "'aalt' Access All Alternates in Latin lookup 0 subtable" y.sc
Substitution2: "'smcp' Lowercase to Small Capitals in Latin lookup 2 subtable" y.sc
EndChar

StartChar: z
Encoding: 122 122 100
Width: 444
VWidth: 0
GlyphClass: 2
Flags: W
TeX: 450 0
HStem: -11 68<196.849 356.625> 26 54<52.4488 224.732> 398 47<212.685 370.594> 413 69<90.376 238.803>
AnchorPoint: "bot_acc" 130 -154 basechar 0
AnchorPoint: "dotbelow" 130 -154 basechar 0
AnchorPoint: "ogon_acc" 130 -154 basechar 0
AnchorPoint: "top_accl" 266 616 basechar 0
AnchorPoint: "dotabove" 266 616 basechar 0
LayerCount: 2
Fore
SplineSet
-1 21 m 1x40
 352 421 l 1
 319 404 295 398 259 398 c 0x60
 238 398 212 401 178 408 c 0
 158 412 147 413 133 413 c 0
 120 413 111 412 94 408 c 1
 64 350 l 1
 43 350 l 1
 75 472 l 1
 99 479 119 482 136 482 c 0x10
 163 482 190 473 216 466 c 0
 264 453 316 445 350 445 c 0x20
 364 445 374 449 384 459 c 2
 407 482 l 1
 416 473 l 1
 410 441 l 1
 71 59 l 1
 107 74 134 80 166 80 c 0x50
 185 80 219 75 252 68 c 0
 274 63 297 57 319 57 c 0
 340 57 351 64 358 82 c 2
 380 142 l 1
 402 142 l 1
 391 95 383 61 372 -1 c 1
 343 -9 334 -11 322 -11 c 0x80
 295 -11 264 -5 204 9 c 0
 152 22 124 26 99 26 c 0
 64 26 37 17 8 -6 c 1
 -1 21 l 1x40
EndSplineSet
Validated: 1
AlternateSubs2: "'aalt' Access All Alternates lookup 0 subtable" z.sc
AlternateSubs2: "'aalt' Access All Alternates in Latin lookup 0 subtable" z.sc
Substitution2: "'smcp' Lowercase to Small Capitals in Latin lookup 2 subtable" z.sc
EndChar

StartChar: asciitilde
Encoding: 126 126 101
Width: 606
VWidth: 0
Flags: W
TeX: 323 0
HStem: 188 56<344.602 470.15> 259 57<136.49 267.833>
LayerCount: 2
Fore
SplineSet
51 196 m 1
 100 283 139 316 190 316 c 0
 220 316 247 308 318 277 c 0
 379 250 397 244 416 244 c 0
 453 244 490 273 521 328 c 1
 555 301 l 1
 512 223 468 188 417 188 c 0
 391 188 363 197 287 229 c 0
 224 256 215 259 191 259 c 0
 151 259 125 237 85 169 c 1
 51 196 l 1
EndSplineSet
Validated: 1
EndChar

StartChar: Euro
Encoding: 128 8364 102
Width: 500
VWidth: 0
Flags: W
TeX: 877 0
HStem: -20 35<279.852 419.696> 274 51<69.2941 124 212 416> 376 44<91.4 139 236 470> 654 35<386.571 527.911>
VStem: 124 83<101.915 276> 153 83<420 471.398> 480 32<120.368 155> 545 31<514 559>
LayerCount: 2
Fore
SplineSet
46 274 m 1xfb
 73 325 l 1
 88 322 97 320 129 320 c 1
 139 376 l 1
 110 376 78 376 65 375 c 1
 92 426 l 1
 105 422 127 420 153 420 c 1
 196 553 295 689 458 689 c 0
 562 689 600 654 614 640 c 1
 607 616 583 555 576 514 c 1
 545 514 l 1
 559 604 l 1
 545 638 500 654 447 654 c 0
 368 654 280 564 236 420 c 1xf7
 407 420 l 2
 440 420 471 422 497 426 c 1
 470 374 l 1
 223 376 l 1
 220 362 217 347 212 320 c 1
 287 320 369 320 443 325 c 1
 416 274 l 1
 207 276 l 1
 193 115 250 15 335 15 c 0
 379 15 433 29 461 61 c 1
 480 155 l 1
 512 155 l 1
 505 114 507 53 506 29 c 1
 488 15 437 -20 333 -20 c 0
 155 -20 111 133 124 276 c 1
 86 276 60 275 46 274 c 1xfb
EndSplineSet
Validated: 33
EndChar

StartChar: f_i
Encoding: 129 64257 103
Width: 528
VWidth: 0
GlyphClass: 3
Flags: W
TeX: 685 250
HStem: -276 63<-138.718 -58.7431> -9 63<320 397.5> 383 54<192 272> 415 17<281 351> 462 20G<431 439.5> 562 108<418.153 481.384> 673 60<274.716 331.681>
VStem: 297 82<15.3438 154.172> 401 94<575.017 653.325>
LayerCount: 2
Fore
SplineSet
-162 -268 m 1xef80
 -157 -259 -143 -211 -139 -188 c 1
 -125 -184 l 1
 -108 -206 -96 -213 -73 -213 c 0
 -37 -213 -8 -182 11 -123 c 0
 33 -54 69 132 100 327 c 2
 109 383 l 1
 28 383 l 1
 33 405 l 1
 58 414 78 422 119 442 c 1
 134 521 l 2
 145 578 157 608 179 630 c 0
 210 662 279 718 296 726 c 0
 305 730 319 733 331 733 c 0
 344 733 355 731 375 724 c 1
 367 701 363 681 354 635 c 1
 342 632 l 1
 332 658 314 673 292 673 c 0
 257 673 228 628 213 549 c 2
 192 437 l 1xef80
 281 432 l 2
 307 431 333 439 393 467 c 0
 415 477 427 482 435 482 c 0
 444 482 450 469 450 448 c 0
 450 434 449 425 445 406 c 2
 384 108 l 2
 380 91 379 82 379 74 c 0
 379 61 383 54 391 54 c 0
 404 54 421 62 439 75 c 2
 473 101 l 1
 482 81 l 1
 407 21 357 -9 331 -9 c 0
 309 -9 297 6 297 33 c 0
 297 47 299 63 303 81 c 2
 362 355 l 1
 363 357 l 1
 363 366 370 379 370 393 c 0
 370 406 362 415 351 415 c 0xdf80
 345 415 342 414 324 406 c 2
 272 383 l 1
 182 383 l 1
 163 295 l 2
 88 -54 68 -126 7 -198 c 0
 -32 -245 -86 -276 -127 -276 c 0
 -138 -276 -153 -273 -162 -268 c 1xef80
401 603 m 0
 401 637 429 670 459 670 c 0
 480 670 495 653 495 629 c 0
 495 591 472 562 441 562 c 0
 416 562 401 578 401 603 c 0
EndSplineSet
Validated: 33
Ligature2: "liga_PLK subtable" f i
Ligature2: "liga_NLDb subtable" f i
Ligature2: "liga_f_i subtable" f i
EndChar

StartChar: f_l
Encoding: 130 64258 104
Width: 545
VWidth: 0
GlyphClass: 3
Flags: W
TeX: 877 0
ItalicCorrection: 11
HStem: -276 63<-138.718 -58.7431> -9 65<326.5 408.5> 383 63<192.25 291.289> 383 54<192 290.147> 669 64<283.312 347.191> 673 24<376 419.616>
VStem: 307 80<13.0184 146.456>
LayerCount: 2
Fore
SplineSet
-162 -268 m 1xd2
 -157 -259 -143 -211 -139 -188 c 1
 -125 -184 l 1
 -108 -206 -96 -213 -73 -213 c 0
 -37 -213 -8 -182 11 -123 c 0
 33 -54 69 132 100 327 c 2
 109 383 l 1
 28 383 l 1
 33 405 l 1
 58 414 78 422 119 442 c 1
 134 521 l 2
 145 578 157 607 179 630 c 0
 203 654 284 715 308 726 c 0
 317 730 332 733 345 733 c 0xda
 357 733 365 731 383 725 c 1
 376 697 l 1xc6
 422 698 463 709 504 733 c 1xca
 520 725 l 1
 397 150 l 2
 390 118 387 95 387 79 c 0
 387 64 392 56 403 56 c 0
 414 56 425 61 443 74 c 2
 491 108 l 1
 500 87 l 1
 465 61 l 2
 385 2 367 -9 336 -9 c 0
 317 -9 307 4 307 30 c 0
 307 52 315 85 320 107 c 2
 404 506 l 2
 423 598 424 602 426 642 c 1
 426 642 426 657 420 664 c 0
 412 674 391 673 387 673 c 2
 371 673 l 1xc6
 365 632 l 1
 355 632 l 1
 346 657 328 669 300 669 c 0
 253 669 229 636 213 549 c 2
 192 437 l 1
 208 437 l 2xda
 241 437 267 437 299 446 c 1
 303 439 l 1
 297 425 290 402 286 383 c 1xe2
 182 383 l 1
 176 350 168 320 163 295 c 0
 89 -57 68 -126 7 -198 c 0
 -32 -245 -86 -276 -127 -276 c 0
 -138 -276 -153 -273 -162 -268 c 1xd2
EndSplineSet
Validated: 33
Ligature2: "liga_f_f_l subtable" f l
EndChar

StartChar: quotedblbase
Encoding: 132 8222 105
Width: 500
VWidth: 0
GlyphClass: 3
Flags: W
TeX: 877 0
HStem: -122 242
LayerCount: 2
Fore
SplineSet
43 -115 m 1
 82 -61 111 11 128 95 c 1
 216 120 l 1
 227 108 l 1
 183 19 139 -47 84 -110 c 1
 52 -122 l 1
 43 -115 l 1
240 -115 m 1
 279 -61 308 11 325 95 c 1
 413 120 l 1
 424 108 l 1
 380 19 336 -47 281 -110 c 1
 249 -122 l 1
 240 -115 l 1
EndSplineSet
Validated: 1
Ligature2: "'dlig' Discretionary Ligatures in Latin lookup 12 subtable" comma comma
EndChar

StartChar: dagger
Encoding: 134 8224 106
Width: 500
VWidth: 0
Flags: W
TeX: 685 250
HStem: 412 54<61 221 296 456> 672 20G<257 268 332 344>
VStem: 138 92<5 56.587> 257 87<598.088 689>
LayerCount: 2
Fore
SplineSet
48 411 m 1
 56 468 l 1
 61 472 l 1
 231 466 l 1
 245 548 247 571 257 689 c 1
 259 692 l 1
 277 690 286 690 300 690 c 0
 314 690 323 690 341 692 c 1
 344 689 l 1
 332 647 331 639 310 536 c 2
 296 466 l 1
 465 471 l 1
 469 467 l 1
 461 410 l 1
 456 406 l 1
 286 412 l 1
 276 344 l 1
 230 5 l 1
 225 0 l 1
 207 1 199 1 183 1 c 0
 167 1 159 1 141 0 c 1
 138 3 l 1
 163 102 198 267 208 329 c 2
 221 412 l 1
 52 407 l 1
 48 411 l 1
EndSplineSet
Validated: 1
EndChar

StartChar: daggerdbl
Encoding: 135 8225 107
Width: 500
VWidth: 0
Flags: W
TeX: 877 0
HStem: 37 61<31 163.5 253 406> 44 48<31 181 253 393> 429 61<105 237.5 326 479> 436 48<105 255 326 466> 672 20G<288 301.5 360.5 370>
VStem: 214 82<199.251 337.506>
LayerCount: 2
Fore
SplineSet
10 42 m 1x8c
 20 92 l 1x4c
 31 98 l 1x8c
 190 92 l 1
 203 167 l 2
 211 213 214 235 214 269 c 1
 226 293 230 307 244 380 c 2
 255 436 l 1x5c
 93 429 l 1x2c
 84 434 l 1
 94 484 l 1x1c
 105 490 l 1x2c
 264 484 l 1
 270 524 l 2
 277 573 283 628 288 687 c 1
 293 692 l 1
 310 690 318 690 331 690 c 0
 344 690 352 690 369 692 c 1
 370 687 l 1
 331 512 338 543 334 524 c 2
 326 486 l 1
 486 492 l 1
 494 484 l 1x1c
 488 434 l 1
 479 429 l 1x2c
 317 436 l 1
 305 361 l 2
 298 316 296 295 296 265 c 1
 284 240 277 216 267 164 c 2
 253 94 l 1
 413 100 l 1
 421 92 l 1x5c
 415 42 l 1
 406 37 l 1x8c
 244 44 l 1
 232 -24 l 2
 230 -28 225 -70 223 -109 c 0
 222 -117 222 -132 220 -152 c 1
 212 -162 l 1
 194 -160 185 -160 174 -160 c 0
 163 -160 154 -160 136 -162 c 1
 134 -152 l 1
 181 44 l 1x4c
 19 37 l 1
 10 42 l 1x8c
EndSplineSet
Validated: 1
EndChar

StartChar: OE
Encoding: 141 338 108
Width: 1028
VWidth: 0
Flags: W
TeX: 685 186
ItalicCorrection: 53
HStem: -18 42<245.76 410.266> -3 42<618.927 917.457> 334 42<669 910> 650 42<714.111 956.041> 665 42<325.671 525.722>
VStem: 56 88<149.304 411.366> 952 27<134.75 161> 965 24<537 614.875>
LayerCount: 2
Fore
SplineSet
56 264 m 0xa6
 56 392 104 517 186 599 c 0
 256 670 345 707 448 707 c 0xae
 534 707 581 686 635 623 c 1
 645 692 l 1
 665 690 685 689 705 689 c 0
 784 689 863 692 941 692 c 0
 964 692 988 691 1010 689 c 1
 999 651 992 601 989 537 c 1
 965 537 l 1x35
 957 626 l 2
 956 641 915 652 850 650 c 0
 751 648 776 648 720 646 c 1
 716 638 714 630 711 614 c 2
 669 376 l 1
 706 376 l 1
 925 382 l 1
 929 375 l 1
 910 330 l 1
 879 331 904 334 778 334 c 2
 661 334 l 1
 618 81 l 2
 616 69 616 58 616 46 c 1
 679 40 706 39 747 39 c 0
 807 39 878 44 897 49 c 0
 918 54 927 66 936 101 c 2
 952 161 l 1
 979 161 l 1
 971 120 963 78 958 36 c 2
 954 0 l 1
 915 -1 935 -3 849 -3 c 0
 774 -3 699 0 624 0 c 0
 589 0 555 -1 520 -3 c 1x76
 544 90 l 1
 502 44 478 26 438 8 c 0
 399 -9 357 -18 310 -18 c 0
 149 -18 56 85 56 264 c 0xa6
144 285 m 0
 144 124 213 24 325 24 c 0
 440 24 547 131 571 270 c 2
 600 439 l 2
 603 458 605 478 605 496 c 0
 605 606 542 665 427 665 c 0
 358 665 298 641 255 596 c 0
 185 523 144 407 144 285 c 0
EndSplineSet
Validated: 33
AlternateSubs2: "'aalt' Access All Alternates lookup 0 subtable" oe.sc
AlternateSubs2: "'aalt' Access All Alternates in Latin lookup 0 subtable" oe.sc
Substitution2: "'c2sc' Capitals to Small Capitals in Latin lookup 13 subtable" oe.sc
Position2: "'cpsp' Capital Spacing in Latin lookup 12 subtable" dx=7 dy=0 dh=14 dv=0
EndChar

StartChar: quoteleft
Encoding: 145 8216 109
Width: 278
VWidth: 0
Flags: W
TeX: 877 0
HStem: 488 245
VStem: 78 180
LayerCount: 2
Fore
SplineSet
78 506 m 1
 127 600 168 662 219 720 c 1
 251 733 l 1
 258 724 l 1
 211 651 186 588 176 513 c 1
 149 508 121 500 87 488 c 1
 78 506 l 1
EndSplineSet
Validated: 1
EndChar

StartChar: quoteright
Encoding: 146 8217 110
Width: 278
VWidth: 0
Flags: W
TeX: 877 0
ItalicCorrection: 24
HStem: 488 245
VStem: 78 180
LayerCount: 2
Fore
SplineSet
78 497 m 1
 125 570 150 632 160 708 c 1
 186 712 216 721 249 733 c 1
 258 715 l 1
 209 621 168 559 117 501 c 1
 85 488 l 1
 78 497 l 1
EndSplineSet
Validated: 1
EndChar

StartChar: quotedblleft
Encoding: 147 8220 111
Width: 500
VWidth: 0
GlyphClass: 3
Flags: W
TeX: 685 250
HStem: 488 245
LayerCount: 2
Fore
SplineSet
98 506 m 1
 147 600 188 662 239 720 c 1
 271 733 l 1
 278 724 l 1
 231 651 206 588 196 513 c 1
 169 508 141 500 107 488 c 1
 98 506 l 1
295 506 m 1
 344 600 385 662 436 720 c 1
 468 733 l 1
 475 724 l 1
 428 651 403 588 393 513 c 1
 366 508 338 500 304 488 c 1
 295 506 l 1
EndSplineSet
Validated: 1
Ligature2: "'dlig' Discretionary Ligatures in Latin lookup 12 subtable" quoteleft quoteleft
EndChar

StartChar: quotedblright
Encoding: 148 8221 112
Width: 500
VWidth: 0
GlyphClass: 3
Flags: W
TeX: 877 0
ItalicCorrection: 52
HStem: 488 245
LayerCount: 2
Fore
SplineSet
98 497 m 1
 145 570 170 632 180 708 c 1
 206 712 236 721 269 733 c 1
 278 715 l 1
 229 621 188 559 137 501 c 1
 105 488 l 1
 98 497 l 1
295 497 m 1
 342 570 367 632 377 708 c 1
 403 712 433 721 466 733 c 1
 475 715 l 1
 426 621 385 559 334 501 c 1
 302 488 l 1
 295 497 l 1
EndSplineSet
Validated: 1
Ligature2: "'dlig' Discretionary Ligatures in Latin lookup 12 subtable" quoteright quoteright
EndChar

StartChar: endash
Encoding: 150 8211 113
Width: 500
VWidth: 0
GlyphClass: 3
Flags: W
TeX: 877 0
ItalicCorrection: 47
HStem: 228 50<0 500>
LayerCount: 2
Fore
SplineSet
-10 228 m 1
 0 278 l 1
 510 278 l 1
 500 228 l 1
 -10 228 l 1
EndSplineSet
Validated: 1
Ligature2: "'dlig' Discretionary Ligatures in Latin lookup 12 subtable" hyphen hyphen
EndChar

StartChar: emdash
Encoding: 151 8212 114
Width: 1000
VWidth: 0
GlyphClass: 3
Flags: W
TeX: 931 0
ItalicCorrection: 47
HStem: 228 50<0 1000>
LayerCount: 2
Fore
SplineSet
-10 228 m 1
 0 278 l 1
 1010 278 l 1
 1000 228 l 1
 -10 228 l 1
EndSplineSet
Validated: 1
Ligature2: "'dlig' Discretionary Ligatures in Latin lookup 12 subtable" hyphen hyphen hyphen hyphen
EndChar

StartChar: oe
Encoding: 157 339 115
Width: 669
VWidth: 0
Flags: W
TeX: 877 0
ItalicCorrection: 49
HStem: -11 47<399.706 507.208> -11 38<127.762 230.667> 444 38<195.047 295.479 503.344 597.5>
VStem: 17 76<61.0507 283.825> 332 43<127 326> 580 74<334.1 434.02>
LayerCount: 2
Fore
SplineSet
17 152 m 0x7c
 17 247 48 334 103 396 c 0
 150 449 217 482 274 482 c 0
 331 482 371 455 400 396 c 1
 489 462 529 482 574 482 c 0
 621 482 654 448 654 401 c 0
 654 355 629 317 578 284 c 0
 537 258 488 239 384 210 c 1
 377 171 375 149 375 127 c 0
 375 71 405 36 454 36 c 0
 492 36 535 55 591 95 c 2
 613 111 l 1
 619 88 l 1
 529 14 477 -11 419 -11 c 0xbc
 361 -11 322 18 310 71 c 1
 251 10 210 -11 148 -11 c 0
 60 -11 17 42 17 152 c 0x7c
93 153 m 0
 93 68 123 27 187 27 c 0x7c
 224 27 254 44 273 76 c 0
 307 134 332 239 332 326 c 0
 332 403 299 444 238 444 c 0
 188 444 156 415 129 346 c 0
 105 285 93 222 93 153 c 0
388 234 m 1
 512 262 580 316 580 387 c 0
 580 421 564 440 535 440 c 0
 492 440 450 411 425 366 c 0
 409 336 401 307 388 234 c 1
EndSplineSet
Validated: 1
AlternateSubs2: "'aalt' Access All Alternates lookup 0 subtable" oe.sc
AlternateSubs2: "'aalt' Access All Alternates in Latin lookup 0 subtable" oe.sc
Substitution2: "'smcp' Lowercase to Small Capitals in Latin lookup 2 subtable" oe.sc
EndChar

StartChar: Lslash
Encoding: 163 321 116
Width: 556
VWidth: 0
GlyphClass: 2
Flags: W
TeX: 685 0
ItalicCorrection: 85
HStem: -3 42<164.879 447.391> -3 26<21 68.0265> 664 28<97 172.019 307 349>
VStem: 492 31<139.471 165>
AnchorPoint: "bot_acc" 210 -154 basechar 0
AnchorPoint: "dotbelow" 210 -154 basechar 0
AnchorPoint: "ogon_acc" 368 -154 basechar 0
AnchorPoint: "top_accu" 255 817 basechar 0
AnchorPoint: "dotabove" 255 817 basechar 0
LayerCount: 2
Fore
SplineSet
16 -3 m 1x70
 21 23 l 1x70
 65 30 78 37 81 55 c 2
 123 301 l 1
 42 239 l 1
 27 266 l 1
 131 346 l 1
 167 559 l 2
 173 592 176 621 176 636 c 0
 176 653 165 661 141 662 c 2
 94 664 l 1
 97 692 l 1
 142 690 187 689 232 689 c 0
 272 689 312 690 352 692 c 1
 349 664 l 1
 307 661 l 2
 270 658 263 651 256 613 c 2
 220 408 l 1
 370 525 l 1
 385 498 l 1
 212 363 l 1
 164 81 l 2
 162 69 162 58 162 46 c 1
 224 40 249 39 304 39 c 0
 360 39 436 44 448 50 c 0
 458 54 466 71 475 103 c 2
 492 165 l 1
 523 165 l 1
 510 103 499 25 500 0 c 1
 465 -3 436 -3 395 -3 c 0xb0
 320 -3 245 0 170 0 c 0
 119 0 67 -1 16 -3 c 1x70
EndSplineSet
Validated: 33
AlternateSubs2: "'aalt' Access All Alternates lookup 0 subtable" lslash.sc
AlternateSubs2: "'aalt' Access All Alternates in Latin lookup 0 subtable" lslash.sc
Substitution2: "'c2sc' Capitals to Small Capitals in Latin lookup 13 subtable" lslash.sc
Position2: "'cpsp' Capital Spacing in Latin lookup 12 subtable" dx=7 dy=0 dh=14 dv=0
EndChar

StartChar: currency
Encoding: 164 164 117
Width: 500
VWidth: 0
Flags: W
TeX: 719 0
ItalicCorrection: 175
HStem: 102 59<170.445 327.59> 465 59<172.338 328.239>
VStem: 37 59<236.529 388.822> 404 59<236.827 389.418>
LayerCount: 2
Fore
SplineSet
30 141 m 1
 79 190 l 1
 49 228 37 262 37 313 c 0
 37 365 49 401 79 435 c 1
 30 484 l 1
 77 531 l 1
 125 483 l 1
 162 511 202 524 250 524 c 0
 298 524 337 511 375 483 c 1
 423 531 l 1
 470 484 l 1
 421 435 l 1
 451 401 463 365 463 313 c 0
 463 263 451 228 421 190 c 1
 470 141 l 1
 425 96 l 1
 377 144 l 1
 339 114 303 102 250 102 c 0
 196 102 160 114 123 144 c 1
 75 96 l 1
 30 141 l 1
96 313 m 0
 96 229 165 161 250 161 c 0
 335 161 404 229 404 314 c 0
 404 397 334 465 248 465 c 0
 165 465 96 395 96 313 c 0
EndSplineSet
Validated: 1
EndChar

StartChar: Aogonek
Encoding: 165 260 118
Width: 722
VWidth: 0
GlyphClass: 3
Flags: W
TeX: 685 0
ItalicCorrection: 83
HStem: -250 58<485.5 567.688> -3 28<-19 1 148 200 433 477 651 677> 277 36<270 486> 685 20G<449.42 510.784>
AnchorPoint: "bot_acc" 514 -384 basechar 0
AnchorPoint: "dotbelow" 514 -384 basechar 0
AnchorPoint: "ogon_acc" 514 -384 basechar 0
AnchorPoint: "top_accu" 505 817 basechar 0
AnchorPoint: "dotabove" 505 817 basechar 0
LayerCount: 2
Fore
SplineSet
-19 -3 m 1
 -19 27 l 1
 1 32 l 2
 35 40 54 56 89 112 c 2
 462 705 l 1
 508 705 l 1
 595 80 l 2
 601 35 604 33 651 28 c 2
 677 25 l 1
 677 -3 l 1
 641 -1 l 2
 607 0 576 -28 554 -59 c 0
 539 -81 528 -108 521 -142 c 0
 516 -173 535 -192 562 -192 c 0
 577 -192 593 -183 630 -156 c 0
 636 -152 637 -151 645 -145 c 1
 648 -166 l 1
 565 -237 537 -250 502 -250 c 0
 469 -250 446 -218 457 -158 c 0
 470 -85 524 -36 580 0 c 1
 555 0 l 1
 433 -3 l 1
 433 25 l 1
 477 28 l 2
 505 30 520 39 520 55 c 0
 520 60 519 68 518 77 c 2
 491 277 l 1
 245 277 l 1
 143 102 l 2
 123 68 117 55 117 47 c 0
 117 38 131 29 148 28 c 2
 200 25 l 1
 200 -3 l 1
 165 -1 129 0 93 0 c 0
 56 0 18 -1 -19 -3 c 1
270 313 m 1
 486 313 l 1
 449 601 l 1
 270 313 l 1
EndSplineSet
Validated: 33
AlternateSubs2: "'aalt' Access All Alternates lookup 0 subtable" aogonek.sc
AlternateSubs2: "'aalt' Access All Alternates in Latin lookup 0 subtable" aogonek.sc
Ligature2: "ccmp_lig subtable" A ogonekcomb
Substitution2: "'c2sc' Capitals to Small Capitals in Latin lookup 13 subtable" aogonek.sc
Position2: "'cpsp' Capital Spacing in Latin lookup 12 subtable" dx=7 dy=0 dh=14 dv=0
EndChar

StartChar: section
Encoding: 167 167 119
Width: 500
VWidth: 0
Flags: W
TeX: 685 275
ItalicCorrection: 25
HStem: -220 46<106.545 251.032> 661 45<243.969 384.303>
VStem: 47 24<-56.9091 -28.4167> 49 63<230.539 331.384> 117 57<482.095 578.365> 330 60<-83.3716 19.4739> 384 62<174.164 276.841> 407 25<537 566.129>
LayerCount: 2
Fore
SplineSet
14 -168 m 1xcc
 47 -27 l 1
 71 -29 l 1xec
 65 -115 l 1
 101 -157 137 -174 191 -174 c 0
 269 -174 330 -117 330 -44 c 0
 330 5 308 33 236 72 c 2
 185 100 l 2
 83 156 49 195 49 255 c 0
 49 316 75 353 158 413 c 1
 130 444 117 470 117 497 c 0
 117 550 139 594 191 644 c 0
 237 689 277 706 336 706 c 0
 388 706 424 694 463 666 c 1
 432 537 l 1
 407 537 l 1xdd
 412 617 l 1
 382 647 347 661 304 661 c 0
 231 661 174 609 174 543 c 0
 174 509 191 479 220 461 c 2
 343 385 l 2
 390 356 407 343 420 327 c 0
 437 306 446 281 446 252 c 0xca
 446 190 412 140 339 95 c 1
 378 60 390 37 390 -3 c 0
 390 -56 364 -108 312 -155 c 0
 264 -200 215 -220 159 -220 c 0
 103 -220 56 -203 14 -168 c 1xcc
112 288 m 0xda
 112 246 139 213 202 177 c 2
 318 111 l 1
 366 150 384 179 384 217 c 0
 384 261 360 291 296 329 c 2
 177 399 l 1
 131 361 112 328 112 288 c 0xda
EndSplineSet
Validated: 1
EndChar

StartChar: Uogonek
Encoding: 168 370 120
Width: 778
VWidth: 0
GlyphClass: 3
Flags: W
TeX: 931 0
ItalicCorrection: 88
HStem: -250 58<513.5 595.246> -19 58<226.874 382.243> -3 32<624.952 705.071> 664 28<90.25 172.119 548 623.685 759 795>
VStem: 97 78<87.1243 291.711>
AnchorPoint: "bot_acc" 541 -384 basechar 0
AnchorPoint: "dotbelow" 541 -384 basechar 0
AnchorPoint: "ogon_acc" 541 -384 basechar 0
AnchorPoint: "top_accu" 481 817 basechar 0
AnchorPoint: "dotabove" 481 817 basechar 0
LayerCount: 2
Fore
SplineSet
88 664 m 1xd8
 91 692 l 1
 121 690 151 689 181 689 c 0
 211 689 240 690 270 692 c 1
 182 215 l 2
 176 184 175 173 175 155 c 0
 175 83 228 39 314 39 c 0xd8
 401 39 480 84 556 177 c 1
 627 622 l 2
 631 649 623 661 593 662 c 2
 545 664 l 1
 548 692 l 1
 593 690 639 689 685 689 c 0
 723 689 760 690 798 692 c 1
 795 664 l 1
 759 661 l 2
 721 658 714 651 708 613 c 2
 623 106 l 2
 617 68 617 66 617 50 c 0
 617 37 626 31 649 29 c 2
 709 25 l 1
 704 -3 l 1
 687 -2 l 2
 647 0 606 -23 581 -59 c 0
 566 -81 555 -108 549 -142 c 0
 543 -173 562 -192 589 -192 c 0
 604 -192 620 -183 657 -156 c 0
 663 -152 664 -151 672 -145 c 1
 675 -166 l 1
 592 -237 565 -250 530 -250 c 0
 497 -250 473 -218 484 -158 c 0
 497 -85 551 -36 608 0 c 1
 582 0 556 -1 530 -3 c 1xb8
 525 2 l 1
 538 57 544 83 552 129 c 1
 500 69 469 45 409 15 c 0
 361 -9 321 -19 276 -19 c 0
 164 -19 97 42 97 145 c 0
 97 161 99 184 103 206 c 2
 167 581 l 2
 171 604 174 629 174 639 c 0
 174 656 166 661 140 662 c 2
 88 664 l 1xd8
EndSplineSet
Validated: 33
AlternateSubs2: "'aalt' Access All Alternates lookup 0 subtable" uogonek.sc
AlternateSubs2: "'aalt' Access All Alternates in Latin lookup 0 subtable" uogonek.sc
Ligature2: "ccmp_lig subtable" U ogonekcomb
Substitution2: "'c2sc' Capitals to Small Capitals in Latin lookup 13 subtable" uogonek.sc
Position2: "'cpsp' Capital Spacing in Latin lookup 12 subtable" dx=7 dy=0 dh=14 dv=0
EndChar

StartChar: AE
Encoding: 170 198 121
Width: 941
VWidth: 0
Flags: W
TeX: 719 0
ItalicCorrection: 57
HStem: -3 30<-4 16.4 140.252 221 389 438.209> 0 39<529.73 807.665> 279 40<290 486> 334 42<581 802> 650 42<626.111 847.363> 655 34<508.274 546> 662 30<344 445.979>
VStem: 844 27<135 161> 857 24<537 614.875>
LayerCount: 2
Fore
SplineSet
-4 -3 m 1xb1
 -4 27 l 1
 30 32 l 2
 41 34 54 44 66 62 c 2
 434 607 l 2
 441 618 447 634 447 643 c 0
 447 653 429 662 410 662 c 2
 344 662 l 1
 344 692 l 1xb3
 425 690 506 689 587 689 c 0x35
 669 689 751 692 833 692 c 0x39
 851 692 881 691 902 689 c 1
 891 651 884 601 881 537 c 1
 857 537 l 1x3480
 849 626 l 2
 848 640 809 650 755 650 c 2
 679 648 l 1
 632 646 l 1
 628 638 626 630 623 614 c 2
 581 376 l 1
 598 376 l 1
 817 382 l 1
 821 375 l 1
 802 330 l 1
 771 331 796 334 670 334 c 2
 573 334 l 1
 530 81 l 2
 528 69 528 58 528 46 c 1
 565 43 596 39 640 39 c 0
 697 39 771 44 787 48 c 0
 809 53 818 65 828 101 c 2
 844 161 l 1
 871 161 l 1
 866 135 l 2
 857 86 852 56 850 36 c 2
 846 0 l 1x79
 807 -1 826 -3 742 -3 c 0xb1
 672 -3 602 0 532 0 c 0x71
 483 0 433 -1 384 -3 c 1
 389 23 l 1
 431 30 443 38 448 66 c 2
 486 279 l 1
 264 279 l 1
 156 98 l 1
 156 98 136 62 136 54 c 0
 136 36 156 27 197 27 c 2
 221 27 l 1
 221 -3 l 1xb1
 131 1 151 0 114 0 c 2x71
 -4 -3 l 1xb1
290 319 m 1
 492 319 l 1
 546 655 l 1
 532 655 l 2x34
 522 655 513 647 495 620 c 2
 290 319 l 1
EndSplineSet
Validated: 33
AlternateSubs2: "'aalt' Access All Alternates lookup 0 subtable" ae.sc
AlternateSubs2: "'aalt' Access All Alternates in Latin lookup 0 subtable" ae.sc
Substitution2: "'c2sc' Capitals to Small Capitals in Latin lookup 13 subtable" ae.sc
Position2: "'cpsp' Capital Spacing in Latin lookup 12 subtable" dx=7 dy=0 dh=14 dv=0
EndChar

StartChar: guillemotleft
Encoding: 171 171 122
Width: 500
VWidth: 0
Flags: W
TeX: 685 0
LayerCount: 2
Fore
SplineSet
57 251 m 1
 57 267 l 1
 251 440 l 1
 270 424 l 1
 133 256 l 1
 228 85 l 1
 208 70 l 1
 57 251 l 1
224 251 m 1
 224 267 l 1
 418 440 l 1
 437 424 l 1
 300 256 l 1
 395 85 l 1
 375 70 l 1
 224 251 l 1
EndSplineSet
Validated: 1
EndChar

StartChar: degree
Encoding: 176 176 123
Width: 400
VWidth: 0
Flags: W
TeX: 685 0
ItalicCorrection: 49
HStem: 389 40<178.295 301.27> 649 40<178.173 301.363>
VStem: 90 40<477.615 601.025> 350 40<477.212 599.752>
LayerCount: 2
Fore
SplineSet
90 540 m 0
 90 622 157 689 240 689 c 0
 323 689 390 621 390 537 c 0
 390 457 322 389 240 389 c 0
 157 389 90 456 90 540 c 0
130 540 m 0
 130 478 179 429 240 429 c 0
 300 429 350 479 350 538 c 0
 350 599 300 649 239 649 c 0
 179 649 130 600 130 540 c 0
EndSplineSet
Validated: 1
EndChar

StartChar: lslash
Encoding: 179 322 124
Width: 278
VWidth: 0
GlyphClass: 2
Flags: W
TeX: 450 250
HStem: -9 65<56.5 134> 670 21<79 149.995> 713 20G<213 251>
VStem: 36 80<14.0122 142.844>
AnchorPoint: "bot_acc" 57 -154 basechar 0
AnchorPoint: "dotbelow" 57 -154 basechar 0
AnchorPoint: "ogon_acc" 57 -154 basechar 0
AnchorPoint: "top_accl" 277 887 basechar 0
AnchorPoint: "dotabove" 277 887 basechar 0
LayerCount: 2
Fore
SplineSet
13 328 m 1
 118 417 l 1
 151 600 l 2
 153 612 157 635 157 648 c 0
 157 663 147 670 123 670 c 2
 75 670 l 1
 79 691 l 1
 151 698 187 707 239 733 c 1
 251 722 l 1
 199 476 l 1
 292 554 l 1
 307 527 l 1
 189 428 l 1
 122 113 l 2
 119 101 116 89 116 76 c 0
 116 65 122 56 129 56 c 0
 139 56 160 66 190 86 c 2
 216 103 l 1
 226 85 l 1
 129 13 92 -9 66 -9 c 0
 47 -9 36 6 36 30 c 0
 36 52 41 80 55 132 c 2
 109 370 l 1
 28 301 l 1
 13 328 l 1
EndSplineSet
Validated: 1
AlternateSubs2: "'aalt' Access All Alternates lookup 0 subtable" lslash.sc
AlternateSubs2: "'aalt' Access All Alternates in Latin lookup 0 subtable" lslash.sc
Substitution2: "'smcp' Lowercase to Small Capitals in Latin lookup 2 subtable" lslash.sc
EndChar

StartChar: paragraph
Encoding: 182 182 125
Width: 500
VWidth: 0
Flags: W
TeX: 685 0
ItalicCorrection: 24
HStem: -224 30<87 160.125 236 304 385.772 470> 250 38<210.956 243> 657 35<193.269 310.834 383 451 522.576 606>
VStem: 33 110<405.712 606.998>
LayerCount: 2
Fore
SplineSet
33 516 m 0
 33 631 94 692 209 692 c 2
 410 689 l 2
 568 685 530 691 611 692 c 1
 606 662 l 1
 583 662 l 2
 531 662 517 649 507 592 c 2
 382 -137 l 2
 375 -179 386 -194 432 -194 c 2
 475 -194 l 1
 470 -224 l 1
 383 -223 421 -219 270 -221 c 0
 112 -223 147 -223 82 -224 c 1
 87 -194 l 1
 117 -194 l 2
 158 -194 170 -180 180 -119 c 2
 243 250 l 1
 195 257 168 269 133 298 c 0
 70 350 33 430 33 516 c 0
143 493 m 0
 143 378 180 307 249 288 c 1
 312 652 l 1
 287 655 270 657 256 657 c 0
 179 657 143 605 143 493 c 0
236 -189 m 1
 304 -189 l 1
 451 657 l 1
 383 657 l 1
 236 -189 l 1
EndSplineSet
Validated: 33
AlternateSubs2: "'aalt' Access All Alternates lookup 0 subtable" paragraph.alt
AlternateSubs2: "'aalt' Access All Alternates in Latin lookup 0 subtable" paragraph.alt
Substitution2: "'ss02' Style Set 2 in Latin lookup 16 subtable" paragraph.alt
Substitution2: "'ss01' Style Set 1 in Latin lookup 15 subtable" paragraph.alt
Substitution2: "'salt' Stylistic Alternatives in Latin lookup 14 subtable" paragraph.alt
EndChar

StartChar: paragraph.alt
Encoding: 281 -1 126
Width: 385
VWidth: 0
Flags: W
TeX: 692 -224
HStem: -221 27<87 158.321 252.125 335.741> 250 38<210.956 243> 662 30<205.859 310.834 393.211 471>
VStem: 33 110<405.712 606.998>
LayerCount: 2
Fore
SplineSet
33 516 m 0
 33 631 94 692 209 692 c 2
 355 689 l 2
 424 689 426 689 476 692 c 1
 471 662 l 1
 448 662 l 2
 396 662 382 649 372 592 c 2
 247 -137 l 2
 240 -179 251 -194 297 -194 c 2
 340 -194 l 1
 335 -224 l 1
 292 -221 277 -221 195 -221 c 0
 141 -221 122 -221 82 -224 c 1
 87 -194 l 1
 117 -194 l 2
 158 -194 170 -180 180 -119 c 2
 243 250 l 1
 195 257 168 269 133 298 c 0
 70 350 33 430 33 516 c 0
143 493 m 0
 143 378 180 307 249 288 c 1
 312 652 l 1
 287 655 270 657 256 657 c 0
 179 657 143 605 143 493 c 0
EndSplineSet
Validated: 33
EndChar

StartChar: uogonek
Encoding: 184 371 127
Width: 556
VWidth: 0
GlyphClass: 3
Flags: W
TeX: 685 275
ItalicCorrection: 17
HStem: -250 58<265.5 347.368> -11 70<92 159.975> 462 20G<182.5 200 417 492>
VStem: 322 80<10.6596 138.734>
AnchorPoint: "bot_acc" 293 -384 basechar 0
AnchorPoint: "dotbelow" 293 -384 basechar 0
AnchorPoint: "ogon_acc" 293 -384 basechar 0
AnchorPoint: "top_accl" 339 616 basechar 0
AnchorPoint: "dotabove" 339 616 basechar 0
LayerCount: 2
Fore
SplineSet
32 388 m 1
 60 408 l 2
 135 462 172 482 193 482 c 0
 207 482 215 470 215 451 c 0
 215 438 213 424 210 408 c 2
 153 137 l 2
 148 111 146 100 146 85 c 0
 146 68 150 59 159 59 c 0
 200 59 280 133 339 225 c 0
 368 271 392 338 407 414 c 2
 417 465 l 1
 485 482 l 1
 492 473 l 1
 408 116 l 2
 405 104 402 89 402 76 c 0
 402 66 407 59 415 59 c 0
 427 59 451 70 476 86 c 2
 502 103 l 1
 512 85 l 1
 439 33 l 2
 406 10 370 -16 346 -44 c 0
 325 -68 309 -99 301 -142 c 0
 295 -173 314 -192 341 -192 c 0
 356 -192 373 -183 409 -156 c 0
 415 -152 416 -151 424 -145 c 1
 428 -166 l 1
 344 -237 317 -250 282 -250 c 0
 249 -250 226 -218 236 -158 c 0
 248 -91 294 -45 345 -10 c 1
 330 -7 322 9 322 31 c 0
 322 47 326 72 333 97 c 2
 370 239 l 1
 286 101 165 -11 102 -11 c 0
 82 -11 67 7 67 29 c 0
 67 45 69 67 71 77 c 2
 134 374 l 2
 135 379 136 387 136 392 c 0
 136 403 129 412 119 412 c 0
 110 412 100 408 71 389 c 2
 39 368 l 1
 32 388 l 1
EndSplineSet
Validated: 33
AlternateSubs2: "'aalt' Access All Alternates lookup 0 subtable" uogonek.sc
AlternateSubs2: "'aalt' Access All Alternates in Latin lookup 0 subtable" uogonek.sc
Ligature2: "ccmp_lig subtable" u ogonekcomb
Substitution2: "'smcp' Lowercase to Small Capitals in Latin lookup 2 subtable" uogonek.sc
EndChar

StartChar: aogonek
Encoding: 185 261 128
Width: 444
VWidth: 0
GlyphClass: 3
Flags: W
TeX: 685 0
HStem: -250 58<169.5 251.368> -11 70<28.5 110.5> 433 49<192.25 317.609>
VStem: 4 72<26.6453 207.299> 236 73<26 102.4>
AnchorPoint: "bot_acc" 197 -384 basechar 0
AnchorPoint: "dotbelow" 197 -384 basechar 0
AnchorPoint: "ogon_acc" 197 -384 basechar 0
AnchorPoint: "top_accl" 298 616 basechar 0
AnchorPoint: "dotabove" 298 616 basechar 0
LayerCount: 2
Fore
SplineSet
4 66 m 0
 4 146 35 265 79 354 c 0
 104 403 136 433 199 464 c 0
 226 477 246 482 274 482 c 0
 301 482 320 478 359 463 c 1
 392 481 l 1
 402 472 l 1
 310 93 l 2
 309 90 309 87 309 83 c 0
 309 67 314 59 324 59 c 0
 339 59 354 68 386 95 c 0
 391 99 392 100 399 106 c 1
 406 85 l 1
 343 34 l 2
 310 10 269 -21 250 -44 c 0
 229 -68 213 -99 205 -142 c 0
 199 -173 218 -192 245 -192 c 0
 260 -192 277 -183 313 -156 c 0
 319 -152 320 -151 328 -145 c 1
 332 -166 l 1
 248 -237 221 -250 186 -250 c 0
 153 -250 130 -218 140 -158 c 0
 152 -90 199 -44 251 -9 c 1
 241 -4 236 8 236 26 c 0
 236 42 238 59 242 77 c 2
 271 204 l 1
 216 126 176 79 133 42 c 0
 96 10 59 -11 38 -11 c 0
 19 -11 4 23 4 66 c 0
76 99 m 0
 76 72 82 59 94 59 c 0
 127 59 190 120 245 204 c 0
 278 255 297 307 319 414 c 1
 276 429 257 433 234 433 c 0
 185 433 161 415 137 357 c 0
 102 274 76 163 76 99 c 0
EndSplineSet
Validated: 33
AlternateSubs2: "'aalt' Access All Alternates lookup 0 subtable" aogonek.sc
AlternateSubs2: "'aalt' Access All Alternates in Latin lookup 0 subtable" aogonek.sc
Ligature2: "ccmp_lig subtable" a ogonekcomb
Substitution2: "'smcp' Lowercase to Small Capitals in Latin lookup 2 subtable" aogonek.sc
EndChar

StartChar: ae
Encoding: 186 230 129
Width: 638
VWidth: 0
Flags: W
TeX: 685 0
ItalicCorrection: 19
HStem: -11 70<28.5 110.5> -11 47<363.729 465.657> 433 49<192.25 317.501> 440 42<463.271 565.419>
VStem: 4 72<26.6453 207.299> 264 76<60.4311 209.245> 549 74<334.212 432.506>
LayerCount: 2
Fore
SplineSet
273 203 m 1x5e
 218 125 175.906530157 79.1083504062 133 42 c 0
 96 10 59 -11 38 -11 c 0
 19 -11 4 23 4 66 c 0
 4 146 35 265 79 354 c 0
 104 403 136 433 199 464 c 0
 226 477 246 482 274 482 c 0xae
 301 482 336 474 359 463 c 0
 373.431406731 456.098022868 404 428 404 428 c 1
 448.211914062 457.818359375 502.531590796 482 539 482 c 0
 590 482 623 451 623 404 c 0
 623 342 584 297 499 259 c 0
 473 248 447 238 430 234 c 2
 348 214 l 1
 342 185 340 160 340 134 c 0
 340 73 368 36 416 36 c 0
 452 36 500 56 553 94 c 2
 577 111 l 1
 585 92 l 1
 492 17 437 -11 380 -11 c 0
 308 -11 264 35 264 112 c 0
 264 138.76725421 268.532869966 172.845589011 275.809375132 207.469460437 c 0
 275.809570312 207.469726562 273 203 273 203 c 1x5e
353 237 m 1
 398 247 434 259 462 272 c 0
 514 297 549 344 549 388 c 0
 549 420 530 440 501 440 c 0x1e
 476 440 444 427 425 409 c 0
 398 384 378 341 362 274 c 2
 353 237 l 1
76 99 m 0
 76 72 82 59 94 59 c 0
 127 59 190 120 245 204 c 0
 278 255 297 307 319 414 c 1
 276 429 257 433 234 433 c 0xae
 185 433 161 415 137 357 c 0
 102 274 76 163 76 99 c 0
EndSplineSet
AlternateSubs2: "'aalt' Access All Alternates lookup 0 subtable" ae.sc
AlternateSubs2: "'aalt' Access All Alternates in Latin lookup 0 subtable" ae.sc
Substitution2: "'smcp' Lowercase to Small Capitals in Latin lookup 2 subtable" ae.sc
EndChar

StartChar: guillemotright
Encoding: 187 187 130
Width: 500
VWidth: 0
Flags: W
TeX: 685 0
LayerCount: 2
Fore
SplineSet
63 86 m 1
 200 254 l 1
 105 425 l 1
 125 440 l 1
 276 259 l 1
 276 243 l 1
 82 70 l 1
 63 86 l 1
230 86 m 1
 367 254 l 1
 272 425 l 1
 292 440 l 1
 443 259 l 1
 443 243 l 1
 249 70 l 1
 230 86 l 1
EndSplineSet
Validated: 1
EndChar

StartChar: Ccedilla
Encoding: 199 199 131
Width: 667
VWidth: 0
GlyphClass: 3
Flags: W
TeX: 685 250
ItalicCorrection: 11
HStem: -216 35<210.932 326.09> -98 36<274.372 329.546> -18 53<335 478.771> 653 53<324.803 542.292>
VStem: 45 88<178.409 428.573> 337 72<-172.783 -103.699> 597 27<519 609.283>
AnchorPoint: "bot_acc" 297 -350 basechar 0
AnchorPoint: "dotbelow" 297 -350 basechar 0
AnchorPoint: "ogon_acc" 297 -350 basechar 0
AnchorPoint: "top_accu" 433 817 basechar 0
AnchorPoint: "dotabove" 433 817 basechar 0
LayerCount: 2
Fore
SplineSet
45 284 m 0
 45 437 105 555 222 634 c 0
 292 681 374 706 456 706 c 0
 518 706 574 694 651 665 c 1
 637 619 629 576 624 519 c 1
 597 519 l 1
 597 603 l 1
 541 639 490 653 418 653 c 0
 339 653 275 629 228 581 c 0
 167 519 133 421 133 309 c 0
 133 131 218 35 376 35 c 0
 454 35 506 52 600 110 c 1
 610 103 l 1
 600 67 l 1
 509 5 439 -18 343 -18 c 2
 338 -18 l 1
 335 -18 l 1
 303 -64 l 1
 311 -63 319 -62 326 -62 c 0
 378 -62 409 -88 409 -132 c 0
 409 -183 361 -216 286 -216 c 0
 259 -216 238 -211 198 -196 c 1
 215 -167 l 1
 249 -178 264 -181 284 -181 c 0
 315 -181 337 -163 337 -136 c 0
 337 -114 318 -98 290 -98 c 0
 282 -98 276 -99 257 -104 c 1
 248 -96 l 1
 299 -16 l 1
 296 -15 l 1
 134 1 45 107 45 284 c 0
EndSplineSet
Validated: 1
AlternateSubs2: "'aalt' Access All Alternates lookup 0 subtable" ccedilla.sc
AlternateSubs2: "'aalt' Access All Alternates in Latin lookup 0 subtable" ccedilla.sc
Ligature2: "ccmp_lig subtable" C cedillacmb
Substitution2: "'c2sc' Capitals to Small Capitals in Latin lookup 13 subtable" ccedilla.sc
Position2: "'cpsp' Capital Spacing in Latin lookup 12 subtable" dx=7 dy=0 dh=14 dv=0
EndChar

StartChar: Eogonek
Encoding: 202 280 132
Width: 611
VWidth: 0
GlyphClass: 3
Flags: W
TeX: 877 0
HStem: -250 58<312.5 394.368> -3 42<178.927 403 419.253 477.457> -3 26<35 82.0265> 334 42<229 470> 650 42<274.111 516.041> 662 30<105 188.906>
VStem: 512 27<134.75 161> 525 24<537 614.875>
AnchorPoint: "bot_acc" 340 -384 basechar 0
AnchorPoint: "dotbelow" 340 -384 basechar 0
AnchorPoint: "ogon_acc" 340 -384 basechar 0
AnchorPoint: "top_accu" 393 817 basechar 0
AnchorPoint: "dotabove" 393 817 basechar 0
LayerCount: 2
Fore
SplineSet
30 -3 m 1xb2
 35 23 l 1
 79 30 92 37 95 55 c 2
 182 559 l 2
 188 591 191 621 191 636 c 0
 191 653 180 661 156 662 c 2
 102 664 l 1
 105 692 l 1xb6
 158 690 211 689 265 689 c 0
 344 689 423 692 501 692 c 0
 524 692 548 691 570 689 c 1
 559 651 552 601 549 537 c 1
 525 537 l 1x99
 517 626 l 2
 516 641 475 650 410 650 c 0
 311 648 336 648 280 646 c 1
 276 638 274 630 271 614 c 2
 229 376 l 1
 266 376 l 1
 485 382 l 1
 489 375 l 1
 470 330 l 1
 439 331 464 334 338 334 c 2
 221 334 l 1
 178 81 l 2
 176 69 176 58 176 46 c 1
 239 40 266 39 307 39 c 0
 367 39 438 44 457 49 c 0
 478 54 487 66 496 101 c 2
 512 161 l 1
 539 161 l 1
 531 120 523 78 518 36 c 2
 514 0 l 1
 496 -1 l 2
 453 -3 407 -21 381 -59 c 0
 366 -81 354 -108 348 -142 c 0
 342 -173 361 -192 388 -192 c 0
 403 -192 420 -183 456 -156 c 0
 462 -152 463 -151 471 -145 c 1
 475 -166 l 1
 391 -237 364 -250 329 -250 c 0
 296 -250 273 -218 283 -158 c 0
 296 -87 348 -39 403 -3 c 1xda
 184 0 l 1
 30 -3 l 1xb2
EndSplineSet
Validated: 33
AlternateSubs2: "'aalt' Access All Alternates lookup 0 subtable" eogonek.sc
AlternateSubs2: "'aalt' Access All Alternates in Latin lookup 0 subtable" eogonek.sc
Ligature2: "ccmp_lig subtable" E ogonekcomb
Substitution2: "'c2sc' Capitals to Small Capitals in Latin lookup 13 subtable" eogonek.sc
Position2: "'cpsp' Capital Spacing in Latin lookup 12 subtable" dx=7 dy=0 dh=14 dv=0
EndChar

StartChar: Eth
Encoding: 208 208 133
Width: 778
VWidth: 0
Flags: W
TeX: 685 0
HStem: -3 44<171.219 448.375> -3 26<33 41> 0 56<168 326.935> 346 32<25 136 222 403> 655 37<268 513.261> 662 30<97 179.634>
VStem: 649 92<297.572 534.918>
LayerCount: 2
Fore
SplineSet
19 346 m 1x52
 25 378 l 1
 142 378 l 1
 173 559 l 2
 178 590 182 621 182 635 c 0
 182 653 171 661 147 662 c 2
 94 664 l 1
 97 692 l 1x56
 220 689 l 1
 424 692 l 2
 519 692 604 675 650 642 c 0
 711 599 741 529 741 431 c 0
 741 265 645 113 489 34 c 0
 437 7 388 -3 316 -3 c 0x9a
 305 -3 290 -2 270 -2 c 2
 176 0 l 1
 144 0 l 1
 121 0 l 1x32
 28 -3 l 1
 33 23 l 1
 41 25 l 2
 72 33 83 39 86 55 c 2
 136 346 l 1
 19 346 l 1x52
168 56 m 1x3a
 237 45 285 41 329 41 c 0x92
 416 41 489 69 543 124 c 0
 610 193 649 298 649 415 c 0
 649 580 566 655 384 655 c 0
 366 655 346 654 315 652 c 0
 288 651 283 650 268 650 c 1
 222 378 l 1
 409 378 l 1
 403 346 l 1
 216 346 l 1
 172 93 l 2
 169 75 168 67 168 56 c 1x3a
EndSplineSet
Validated: 1
AlternateSubs2: "'aalt' Access All Alternates lookup 0 subtable" eth.sc
AlternateSubs2: "'aalt' Access All Alternates in Latin lookup 0 subtable" eth.sc
Substitution2: "'c2sc' Capitals to Small Capitals in Latin lookup 13 subtable" eth.sc
Position2: "'cpsp' Capital Spacing in Latin lookup 12 subtable" dx=7 dy=0 dh=14 dv=0
EndChar

StartChar: Oslash
Encoding: 216 216 134
Width: 778
VWidth: 0
GlyphClass: 2
Flags: W
TeX: 685 0
ItalicCorrection: 11
HStem: -18 42<255.29 458.688> 664 42<333.889 539.127>
VStem: 53 88<144.178 415.43> 660 88<285.182 536.922>
AnchorPoint: "bot_acc" 304 -193 basechar 0
AnchorPoint: "dotbelow" 304 -193 basechar 0
AnchorPoint: "ogon_acc" 304 -193 basechar 0
AnchorPoint: "top_accu" 483 817 basechar 0
AnchorPoint: "dotabove" 483 817 basechar 0
LayerCount: 2
Fore
SplineSet
32 -15 m 1
 110 68 l 1
 68 128 53 184 53 273 c 0
 53 522 227 706 463 706 c 0
 543 706 600 688 661 643 c 1
 733 721 l 1
 762 695 l 1
 688 616 l 1
 733 560 748 513 748 432 c 0
 748 175 568 -18 329 -18 c 0
 246 -18 191 -1 134 43 c 1
 60 -39 l 1
 32 -15 l 1
141 275 m 0
 141 216 148 177 168 131 c 1
 602 600 l 1
 550 647 505 664 433 664 c 0
 357 664 296 640 250 593 c 0
 181 523 141 407 141 275 c 0
189 97 m 1
 234 45 284 24 361 24 c 0
 438 24 503 50 552 100 c 0
 621 171 660 283 660 412 c 0
 660 480 651 517 624 567 c 1
 189 97 l 1
EndSplineSet
Validated: 1
AlternateSubs2: "'aalt' Access All Alternates lookup 0 subtable" oslash.sc
AlternateSubs2: "'aalt' Access All Alternates in Latin lookup 0 subtable" oslash.sc
Substitution2: "'c2sc' Capitals to Small Capitals in Latin lookup 13 subtable" oslash.sc
Position2: "'cpsp' Capital Spacing in Latin lookup 12 subtable" dx=7 dy=0 dh=14 dv=0
EndChar

StartChar: Iogonek
Encoding: 222 302 135
Width: 333
VWidth: 0
GlyphClass: 3
Flags: W
TeX: 685 0
HStem: -250 58<67.5 149.688> -3 28<10 46 179.829 259.75> 664 28<106 181.019 316 351>
AnchorPoint: "bot_acc" 96 -384 basechar 0
AnchorPoint: "dotbelow" 96 -384 basechar 0
AnchorPoint: "ogon_acc" 96 -384 basechar 0
AnchorPoint: "top_accu" 261 817 basechar 0
AnchorPoint: "dotabove" 261 817 basechar 0
LayerCount: 2
Fore
SplineSet
7 -3 m 1
 10 25 l 1
 46 28 l 2
 86 31 89 36 104 125 c 2
 176 559 l 2
 180 581 185 627 185 636 c 0
 185 653 174 661 150 662 c 2
 103 664 l 1
 106 692 l 1
 151 690 196 689 242 689 c 0
 279 689 317 690 354 692 c 1
 351 664 l 1
 316 661 l 2
 277 658 272 652 265 613 c 2
 176 78 l 2
 175 73 174 64 174 57 c 0
 174 37 183 30 210 28 c 2
 262 25 l 1
 259 -3 l 1
 221 -1 l 2
 188 0 158 -28 136 -59 c 0
 121 -81 110 -108 103 -142 c 0
 98 -173 117 -192 144 -192 c 0
 159 -192 175 -183 212 -156 c 0
 218 -152 219 -151 227 -145 c 1
 230 -166 l 1
 147 -237 119 -250 84 -250 c 0
 51 -250 28 -218 39 -158 c 0
 52 -85 106 -36 162 0 c 1
 133 0 l 1
 7 -3 l 1
EndSplineSet
Validated: 33
AlternateSubs2: "'aalt' Access All Alternates lookup 0 subtable" iogonek.sc
AlternateSubs2: "'aalt' Access All Alternates in Latin lookup 0 subtable" iogonek.sc
Ligature2: "ccmp_lig subtable" I ogonekcomb
Substitution2: "'c2sc' Capitals to Small Capitals in Latin lookup 13 subtable" iogonek.sc
Position2: "'cpsp' Capital Spacing in Latin lookup 12 subtable" dx=7 dy=0 dh=14 dv=0
EndChar

StartChar: germandbls
Encoding: 223 223 136
Width: 500
VWidth: 0
Flags: W
TeX: 719 17
ItalicCorrection: 46
HStem: -276 59<-136.697 -52.71> -16 44<238.657 336.117> 685 48<315.861 396.638>
VStem: 212 20<49.9976 112> 295 62<305.965 384.788> 380 65<95.5046 188.984> 426 62<547.531 655.645>
LayerCount: 2
Fore
SplineSet
-160 -272 m 1xfa
 -151 -247 -145 -224 -138 -189 c 1
 -127 -187 l 1
 -109 -208 -93 -217 -74 -217 c 0
 -43 -217 -11 -189 5 -148 c 0
 16 -121 34 -48 43 0 c 2
 111 383 l 1
 30 383 l 1
 34 405 l 1
 90 428 l 2
 115 438 122 443 123 449 c 2
 138 530 l 2
 149 589 165 613 220 655 c 0
 278 699 353 733 394 733 c 0
 445 733 488 687 488 632 c 0xfa
 488 577 467 534 402 456 c 0
 366 413 357 396 357 372 c 0
 357 350 365 329 396 275 c 2
 414 244 l 2
 438 203 445 183 445 165 c 0
 445 86 346 -16 269 -16 c 0
 244 -16 220 -9 191 5 c 1
 199 28 210 87 212 112 c 1
 232 112 l 1
 232 56 l 1
 249 38 273 28 297 28 c 0
 345 28 380 66 380 119 c 0xfc
 380 138 376 155 366 174 c 2
 312 279 l 2
 302 299 295 320 295 332 c 0
 295 349 304 368 327 400 c 0
 336 412 344 425 353 437 c 0
 409 515 426 553 426 597 c 0
 426 647 389 685 340 685 c 0
 291 685 249 653 230 601 c 0
 207 538 195 443 181 378 c 2
 109 39 l 2
 82 -86 51 -156 -3 -214 c 0
 -41 -254 -84 -276 -124 -276 c 0
 -137 -276 -149 -275 -160 -272 c 1xfa
EndSplineSet
Validated: 1
AlternateSubs2: "'aalt' Access All Alternates lookup 0 subtable" germandbls.sc
AlternateSubs2: "'aalt' Access All Alternates in Latin lookup 0 subtable" germandbls.sc
Substitution2: "'smcp' Lowercase to Small Capitals in Latin lookup 2 subtable" germandbls.sc
EndChar

StartChar: ccedilla
Encoding: 231 231 137
Width: 407
VWidth: 0
GlyphClass: 3
Flags: W
TeX: 450 250
ItalicCorrection: 10
HStem: -216 35<40.9317 156.09> -98 36<104.372 159.546> 433 49<216.088 330.81>
VStem: 25 76<69.8446 274.314> 167 72<-172.783 -103.699> 342 23<330 406.677>
AnchorPoint: "bot_acc" 127 -350 basechar 0
AnchorPoint: "dotbelow" 127 -350 basechar 0
AnchorPoint: "ogon_acc" 127 -350 basechar 0
AnchorPoint: "top_accl" 274 616 basechar 0
AnchorPoint: "dotabove" 274 616 basechar 0
LayerCount: 2
Fore
SplineSet
25 136 m 0
 25 243 63 347 120 397 c 0
 177 447 248 482 293 482 c 0
 331 482 364 474 389 458 c 1
 380 432 373 395 365 330 c 1
 342 330 l 1
 342 390 l 2
 342 414 306 433 261 433 c 0
 229 433 204 425 183 407 c 0
 135 368 101 265 101 159 c 0
 101 80 130 40 186 40 c 0
 221 40 259 57 331 105 c 2
 346 115 l 1
 354 95 l 1
 304 54 l 2
 257 15 215 -5 170 -10 c 1
 133 -64 l 1
 141 -63 149 -62 156 -62 c 0
 208 -62 239 -88 239 -132 c 0
 239 -183 191 -216 116 -216 c 0
 89 -216 68 -211 28 -196 c 1
 45 -167 l 1
 79 -178 94 -181 114 -181 c 0
 145 -181 167 -163 167 -136 c 0
 167 -114 148 -98 120 -98 c 0
 112 -98 106 -99 87 -104 c 1
 78 -96 l 1
 132 -10 l 1
 61 -3 25 46 25 136 c 0
EndSplineSet
Validated: 1
AlternateSubs2: "'aalt' Access All Alternates lookup 0 subtable" ccedilla.sc
AlternateSubs2: "'aalt' Access All Alternates in Latin lookup 0 subtable" ccedilla.sc
Ligature2: "ccmp_lig subtable" c cedillacmb
Substitution2: "'smcp' Lowercase to Small Capitals in Latin lookup 2 subtable" ccedilla.sc
EndChar

StartChar: eogonek
Encoding: 234 281 138
Width: 389
VWidth: 0
GlyphClass: 3
Flags: W
TeX: 685 0
ItalicCorrection: 33
HStem: -250 58<88.5 170.368> -11 47<114.729 200.63> 440 42<212.489 316.419>
VStem: 15 76<60.4311 230.199> 300 74<334.212 432.506>
AnchorPoint: "bot_acc" 116 -384 basechar 0
AnchorPoint: "dotbelow" 116 -384 basechar 0
AnchorPoint: "ogon_acc" 116 -384 basechar 0
AnchorPoint: "top_accl" 263 616 basechar 0
AnchorPoint: "dotabove" 263 616 basechar 0
LayerCount: 2
Fore
SplineSet
15 112 m 0
 15 182 46 302 76 351 c 0
 116 415 225 482 290 482 c 0
 341 482 374 451 374 404 c 0
 374 342 335 297 250 259 c 0
 224 248 198 238 181 234 c 2
 99 214 l 1
 93 185 91 160 91 134 c 0
 91 73 119 36 167 36 c 0
 203 36 251 56 304 94 c 2
 328 111 l 1
 336 92 l 1
 317 77 300 64 284 52 c 0
 244 23 198 -9 169 -44 c 0
 148 -68 131 -99 124 -142 c 0
 118 -173 137 -192 164 -192 c 0
 179 -192 196 -183 232 -156 c 0
 238 -152 239 -151 247 -145 c 1
 251 -166 l 1
 167 -237 140 -250 105 -250 c 0
 72 -250 48 -218 59 -158 c 0
 71 -88 121 -41 175 -5 c 1
 160 -9 146 -11 131 -11 c 0
 59 -11 15 35 15 112 c 0
104 237 m 1
 149 247 185 259 213 272 c 0
 265 297 300 344 300 388 c 0
 300 420 281 440 252 440 c 0
 227 440 195 427 176 409 c 0
 149 384 129 341 113 274 c 2
 104 237 l 1
EndSplineSet
Validated: 33
AlternateSubs2: "'aalt' Access All Alternates lookup 0 subtable" eogonek.sc
AlternateSubs2: "'aalt' Access All Alternates in Latin lookup 0 subtable" eogonek.sc
Ligature2: "ccmp_lig subtable" e ogonekcomb
Substitution2: "'smcp' Lowercase to Small Capitals in Latin lookup 2 subtable" eogonek.sc
EndChar

StartChar: eth
Encoding: 240 240 139
Width: 444
VWidth: 0
Flags: W
TeX: 719 0
ItalicCorrection: 61
HStem: -11 38<129.332 232.928> 444 38<182.864 303.585> 676 20G<425.091 474.276> 713 20G<191.111 231.5>
VStem: 17 76<63.9223 281.139> 336 71<211.466 456.728 462 500.313>
LayerCount: 2
Fore
SplineSet
17 149 m 0
 17 252 55 352 120 419 c 0
 159 459 213 482 267 482 c 0
 292 482 308 478 336 462 c 1
 335 502 324 542 303 582 c 1
 168 516 l 1
 156 545 l 1
 285 610 l 1
 254 652 221 676 180 688 c 1
 200 733 l 1
 263 700 297 673 331 630 c 1
 466 696 l 1
 478 667 l 1
 348 604 l 1
 387 519 407 433 407 352 c 0
 407 239 365 125 295 52 c 0
 257 12 203 -11 149 -11 c 0
 63 -11 17 44 17 149 c 0
93 159 m 0
 93 72 124 27 185 27 c 0
 227 27 259 49 286 97 c 0
 315 149 336 243 336 326 c 0
 336 406 307 444 245 444 c 0
 200 444 167 422 140 376 c 0
 112 327 93 238 93 159 c 0
EndSplineSet
Validated: 1
AlternateSubs2: "'aalt' Access All Alternates lookup 0 subtable" eth.sc
AlternateSubs2: "'aalt' Access All Alternates in Latin lookup 0 subtable" eth.sc
Substitution2: "'smcp' Lowercase to Small Capitals in Latin lookup 2 subtable" eth.sc
EndChar

StartChar: oslash
Encoding: 248 248 140
Width: 444
VWidth: 0
GlyphClass: 2
Flags: W
TeX: 450 0
ItalicCorrection: 44
HStem: -11 38<129.652 228.501> 444 38<187.332 296.593>
VStem: 16 76<125.146 280.164> 333 78<203.933 346>
AnchorPoint: "bot_acc" 147 -178 basechar 0
AnchorPoint: "dotbelow" 147 -178 basechar 0
AnchorPoint: "ogon_acc" 147 -178 basechar 0
AnchorPoint: "top_accl" 287 616 basechar 0
AnchorPoint: "dotabove" 287 616 basechar 0
LayerCount: 2
Fore
SplineSet
-18 -4 m 1
 35 56 l 1
 21 84 16 110 16 150 c 0
 16 250 53 347 117 414 c 0
 158 457 216 482 277 482 c 0
 320 482 349 471 376 442 c 1
 436 510 l 1
 460 490 l 1
 394 415 l 1
 405 388 411 361 411 330 c 0
 411 244 376 141 326 80 c 0
 281 25 209 -11 146 -11 c 0
 104 -11 77 1 52 29 c 1
 6 -24 l 1
 -18 -4 l 1
92 159 m 0
 92 148 93 139 95 124 c 1
 325 384 l 1
 307 426 283 444 242 444 c 0
 199 444 166 422 139 376 c 0
 111 327 92 238 92 159 c 0
103 86 m 1
 120 45 144 27 185 27 c 0
 226 27 258 49 285 97 c 0
 313 146 335 240 335 312 c 0
 335 318 334 326 333 335 c 2
 333 346 l 1
 103 86 l 1
EndSplineSet
Validated: 1
AlternateSubs2: "'aalt' Access All Alternates lookup 0 subtable" oslash.sc
AlternateSubs2: "'aalt' Access All Alternates in Latin lookup 0 subtable" oslash.sc
Substitution2: "'smcp' Lowercase to Small Capitals in Latin lookup 2 subtable" oslash.sc
EndChar

StartChar: dotlessiogonek
Encoding: 282 -1 141
Width: 278
VWidth: 0
GlyphClass: 3
Flags: W
TeX: 482 -219
HStem: -250 58<14.5 96.3677> 412 70<116.5 207.062>
VStem: 51 80<10.9502 136> 138 83<374.253 463.327>
AnchorPoint: "bot_acc" 42 -384 basechar 0
AnchorPoint: "dotbelow" 42 -384 basechar 0
AnchorPoint: "ogon_acc" 42 -384 basechar 0
AnchorPoint: "top_accl" 220 616 basechar 0
AnchorPoint: "dotabove" 220 616 basechar 0
LayerCount: 2
Fore
SplineSet
-15 -158 m 0
 -5 -101 29 -47 77 -9 c 1
 61 -7 51 8 51 30 c 0
 51 50 55 75 64 107 c 2
 130 347 l 2
 134 362 138 383 138 391 c 0
 138 403 131 412 121 412 c 0
 112 412 102 408 73 389 c 2
 41 368 l 1
 34 388 l 1
 62 408 l 2
 138 462 174 482 196 482 c 0
 213 482 221 473 221 456 c 0
 221 447 219 437 215 420 c 2
 138 116 l 2
 132 94 131 86 131 76 c 0
 131 65 137 56 144 56 c 0
 154 56 175 66 205 86 c 2
 231 103 l 1
 241 85 l 1
 214 65 l 2
 165 30 114 -8 84 -56 c 0
 67 -83 55 -112 50 -142 c 0
 44 -173 63 -192 90 -192 c 0
 105 -192 122 -183 158 -156 c 0
 164 -152 165 -151 173 -145 c 1
 177 -166 l 1
 93 -237 66 -250 31 -250 c 0
 -2 -250 -25 -218 -15 -158 c 0
EndSplineSet
Validated: 33
Ligature2: "ccmp_lig subtable" dotlessi ogonekcomb
EndChar

StartChar: space_uni0326
Encoding: 283 -1 142
Width: 333
VWidth: 0
Flags: W
TeX: 0 -250
HStem: -276 216
VStem: 40 160
LayerCount: 2
Fore
SplineSet
40 -267 m 1
 87 -194 92 -161 102 -85 c 1
 128 -81 158 -72 191 -60 c 1
 200 -78 l 1
 151 -172 130 -205 79 -263 c 1
 47 -276 l 1
 40 -267 l 1
EndSplineSet
Validated: 1
EndChar

StartChar: tcedilla
Encoding: 284 355 143
Width: 333
VWidth: 0
GlyphClass: 3
Flags: W
TeX: 646 -250
HStem: -216 35<-16.0683 99.0902> -98 36<47.1016 102.546> 390 44<200 299>
VStem: 56 80<11.5974 151.823> 110 72<-172.783 -103.699> 156 89<562.4 618.438>
AnchorPoint: "bot_acc" 70 -350 basechar 0
AnchorPoint: "dotbelow" 70 -350 basechar 0
AnchorPoint: "ogon_acc" 70 -350 basechar 0
AnchorPoint: "top_accl" 232 800 basechar 0
AnchorPoint: "dotabove" 232 800 basechar 0
LayerCount: 2
Fore
SplineSet
-29 -196 m 1xe8
 -12 -167 l 1
 22 -178 37 -181 57 -181 c 0
 88 -181 110 -163 110 -136 c 0xe8
 110 -114 91 -98 63 -98 c 0
 56 -98 48 -99 37 -102 c 2
 30 -104 l 1
 21 -96 l 1
 77 -8 l 1
 64 -4 56 10 56 31 c 0
 56 44 57 57 64 86 c 0
 67 97 68 100 69 107 c 2
 125 390 l 1
 41 390 l 1
 43 403 l 1
 61 408 87 419 131 440 c 1
 156 610 l 1
 187 622 214 634 234 646 c 1
 245 631 l 1
 227 577 216 528 200 434 c 1
 238 434 272 436 310 440 c 1
 299 390 l 1
 192 390 l 1
 179 328 l 2
 148 180 136 102 136 76 c 0xf4
 136 64 141 56 149 56 c 0
 161 56 180 65 210 86 c 2
 255 117 l 1
 265 99 l 1
 249 86 l 1
 234 74 l 2
 179 30 145 6 118 -3 c 1
 76 -64 l 1
 85 -63 92 -62 99 -62 c 0
 151 -62 182 -88 182 -132 c 0
 182 -183 134 -216 59 -216 c 0
 32 -216 11 -211 -29 -196 c 1xe8
EndSplineSet
Validated: 1
AlternateSubs2: "'aalt' Access All Alternates lookup 0 subtable" tcedilla.sc
AlternateSubs2: "'aalt' Access All Alternates in Latin lookup 0 subtable" tcedilla.sc uni021B
Ligature2: "ccmp_lig subtable" t cedillacmb
Substitution2: "'smcp' Lowercase to Small Capitals in Latin lookup 2 subtable" tcedilla.sc
Substitution2: "locl_ROM subtable" uni021B
EndChar

StartChar: Tcedilla
Encoding: 285 354 144
Width: 611
VWidth: 0
GlyphClass: 3
Flags: W
TeX: 692 -250
HStem: -216 35<133.932 249.09> -98 36<197.047 252.546> -2 30<113 201.651 294.801 384> 646 45<115.305 308 390 581.448>
VStem: 53 29<528 556> 260 72<-172.783 -103.699> 580 28<528 570.259>
AnchorPoint: "bot_acc" 220 -350 basechar 0
AnchorPoint: "dotbelow" 220 -350 basechar 0
AnchorPoint: "ogon_acc" 220 -350 basechar 0
AnchorPoint: "top_accu" 376 817 basechar 0
AnchorPoint: "dotabove" 376 817 basechar 0
LayerCount: 2
Fore
SplineSet
53 528 m 1
 71 691 l 1
 166 691 l 1
 353 689 l 1
 544 691 l 1
 635 691 l 1
 608 528 l 1
 580 528 l 1
 584 592 l 2
 585 602 583 621 580 629 c 0
 577 641 541 646 463 646 c 2
 390 646 l 1
 296 93 l 2
 292 72 292 68 292 58 c 0
 292 37 302 29 328 28 c 2
 387 25 l 1
 384 -3 l 1
 340 -2 l 1
 269 0 l 1
 226 -64 l 1
 235 -63 242 -62 249 -62 c 0
 301 -62 332 -88 332 -132 c 0
 332 -183 284 -216 209 -216 c 0
 182 -216 161 -211 121 -196 c 1
 138 -167 l 1
 172 -178 187 -181 207 -181 c 0
 238 -181 260 -163 260 -136 c 0
 260 -114 241 -98 213 -98 c 0
 206 -98 198 -99 187 -102 c 2
 180 -104 l 1
 171 -96 l 1
 231 0 l 1
 215 -1 192 -2 166 -2 c 2
 109 -3 l 1
 113 25 l 1
 164 28 l 2
 204 30 207 34 222 125 c 2
 308 646 l 1
 196 646 l 2
 159 646 121 640 115 633 c 0
 109 626 102 610 97 588 c 2
 82 528 l 1
 53 528 l 1
EndSplineSet
Validated: 33
AlternateSubs2: "'aalt' Access All Alternates lookup 0 subtable" tcedilla.sc
AlternateSubs2: "'aalt' Access All Alternates in Latin lookup 0 subtable" tcedilla.sc uni021A
Ligature2: "ccmp_lig subtable" T cedillacmb
Substitution2: "'c2sc' Capitals to Small Capitals in Latin lookup 13 subtable" tcedilla.sc
Position2: "'cpsp' Capital Spacing in Latin lookup 12 subtable" dx=7 dy=0 dh=14 dv=0
Substitution2: "locl_ROM subtable" uni021A
EndChar

StartChar: scedilla
Encoding: 286 351 145
Width: 384
VWidth: 0
GlyphClass: 3
Flags: W
TeX: 462 -250
HStem: -216 35<53.9317 169.09> -98 36<117.047 172.546> -15 36<90.1776 184.166> 439 40<160.684 282.143>
VStem: 35 23<64.625 143> 57 56<300.933 388.143> 180 72<-172.783 -103.699> 269 65<91.1175 180.216> 301 24<340 412.197>
AnchorPoint: "bot_acc" 140 -350 basechar 0
AnchorPoint: "dotbelow" 140 -350 basechar 0
AnchorPoint: "ogon_acc" 140 -350 basechar 0
AnchorPoint: "top_accl" 261 616 basechar 0
AnchorPoint: "dotabove" 261 616 basechar 0
LayerCount: 2
Fore
SplineSet
13 11 m 1xfb
 23 55 30 99 35 143 c 1
 58 143 l 1
 58 64 l 1
 84 36 120 21 158 21 c 0
 218 21 269 68 269 127 c 0xfb
 269 149 261 170 243 184 c 0
 226 198 192 204 165 209 c 0
 137 214 110 223 89 241 c 0
 68 259 57 286 57 314 c 0
 57 356 77 396 109 424 c 0
 146 458 194 479 244 479 c 0
 278 479 312 473 340 455 c 1
 331 417 326 379 325 340 c 1
 301 340 l 1
 301 357 301 386 300 389 c 0
 299 398 295 406 289 413 c 0
 270 434 239 439 210 439 c 0
 190 439 170 436 153 425 c 0
 128 410 113 384 113 355 c 0xf680
 113 334 121 312 137 299 c 0
 157 283 190 276 218 270 c 0
 248 264 283 256 303 239 c 0
 322 223 334 199 334 174 c 0
 334 121 309 71 268 37 c 0
 244 16 216 3 186 -5 c 1
 146 -64 l 1
 155 -63 162 -62 169 -62 c 0
 221 -62 252 -88 252 -132 c 0
 252 -183 204 -216 129 -216 c 0
 102 -216 81 -211 41 -196 c 1
 58 -167 l 1
 92 -178 107 -181 127 -181 c 0
 158 -181 180 -163 180 -136 c 0
 180 -114 161 -98 133 -98 c 0
 126 -98 118 -99 107 -102 c 2
 100 -104 l 1
 91 -96 l 1
 143 -13 l 1
 133 -14 122 -15 112 -15 c 0
 77 -15 43 -7 13 11 c 1xfb
EndSplineSet
Validated: 1
AlternateSubs2: "'aalt' Access All Alternates lookup 0 subtable" scedilla.sc
AlternateSubs2: "'aalt' Access All Alternates in Latin lookup 0 subtable" scedilla.sc uni0219
Ligature2: "ccmp_lig subtable" s cedillacmb
Substitution2: "'smcp' Lowercase to Small Capitals in Latin lookup 2 subtable" scedilla.sc
Substitution2: "locl_ROM subtable" uni0219
EndChar

StartChar: Scedilla
Encoding: 287 350 146
Width: 549
VWidth: 0
GlyphClass: 3
Flags: W
TeX: 692 -250
HStem: -216 35<123.932 239.09> -98 36<187.102 242.546> -17 45<136.289 278.245> 667 42<262.833 424.063>
VStem: 72 32<124.751 173> 115 69<442.166 571.746> 250 72<-172.783 -103.699> 409 75<131.048 260.529> 455 26<542 629.175>
AnchorPoint: "bot_acc" 210 -350 basechar 0
AnchorPoint: "dotbelow" 210 -350 basechar 0
AnchorPoint: "ogon_acc" 210 -350 basechar 0
AnchorPoint: "top_accu" 381 817 basechar 0
AnchorPoint: "dotabove" 381 817 basechar 0
LayerCount: 2
Fore
SplineSet
49 19 m 1xff
 61 60 67 121 72 173 c 1
 83 173 93 174 104 174 c 1
 103 158 101 140 101 124 c 0
 101 99 104 77 115 65 c 0
 129 50 148 44 166 38 c 0
 189 31 214 28 238 28 c 0
 284 28 329 40 362 72 c 0
 394 103 409 148 409 193 c 0xff
 409 222 399 251 378 271 c 0
 358 289 315 300 281 309 c 0
 236 321 189 333 158 365 c 0
 128 395 115 437 115 479 c 0
 115 610 231 709 366 709 c 0
 414 709 462 701 504 677 c 1
 493 633 484 588 481 542 c 1
 472 542 464 541 455 541 c 1xfe80
 455 562 455 594 453 603 c 0
 450 615 446 626 438 634 c 0
 413 661 375 667 338 667 c 0
 296 667 255 653 226 623 c 0
 197 592 184 550 184 508 c 0
 184 468 205 430 241 411 c 0
 260 401 313 386 350 375 c 0
 385 365 421 353 447 327 c 0
 473 300 484 263 484 225 c 0
 484 157 452 93 399 50 c 0
 357 16 305 -4 252 -12 c 1
 216 -64 l 1
 225 -63 232 -62 239 -62 c 0
 291 -62 322 -88 322 -132 c 0
 322 -183 274 -216 199 -216 c 0
 172 -216 151 -211 111 -196 c 1
 128 -167 l 1
 162 -178 177 -181 197 -181 c 0
 228 -181 250 -163 250 -136 c 0
 250 -114 231 -98 203 -98 c 0
 196 -98 188 -99 177 -102 c 2
 170 -104 l 1
 161 -96 l 1
 212 -16 l 1
 204 -17 195 -17 187 -17 c 0
 138 -17 89 -9 49 19 c 1xff
EndSplineSet
Validated: 1
AlternateSubs2: "'aalt' Access All Alternates lookup 0 subtable" scedilla.sc
AlternateSubs2: "'aalt' Access All Alternates in Latin lookup 0 subtable" scedilla.sc uni0218
Ligature2: "ccmp_lig subtable" S cedillacmb
Substitution2: "'c2sc' Capitals to Small Capitals in Latin lookup 13 subtable" scedilla.sc
Position2: "'cpsp' Capital Spacing in Latin lookup 12 subtable" dx=7 dy=0 dh=14 dv=0
Substitution2: "locl_ROM subtable" uni0218
EndChar

StartChar: thorn
Encoding: 288 254 147
Width: 500
VWidth: 0
Flags: W
TeX: 733 -276
HStem: -276 21G<-39 41> -11 47<95.5096 214.565> 424 58<299.473 392> 670 21<54 124.995> 713 20G<188 226>
VStem: 361 72<245.412 419.486>
LayerCount: 2
Fore
SplineSet
-39 -270 m 1
 -31 -233 l 1
 18 8 l 1
 130 622 l 2
 131 629 132 638 132 646 c 0
 132 663 122 670 98 670 c 2
 50 670 l 1
 54 691 l 1
 126 698 162 707 214 733 c 1
 226 722 l 1
 132 288 l 1
 166 346 185 370 223 406 c 0
 276 455 331 482 374 482 c 0
 410 482 433 438 433 371 c 0
 433 296 399 186 358 125 c 0
 315 62 200 -11 144 -11 c 0
 133 -11 118 -9 92 0 c 2
 83 3 l 1
 41 -259 l 1
 -32 -276 l 1
 -39 -270 l 1
93 59 m 1
 119 43 144 36 175 36 c 0
 216 36 248 51 268 80 c 0
 321 156 361 275 361 356 c 0
 361 402 349 424 323 424 c 0
 240 424 133 293 111 165 c 2
 93 59 l 1
EndSplineSet
Validated: 1
AlternateSubs2: "'aalt' Access All Alternates lookup 0 subtable" thorn.sc
AlternateSubs2: "'aalt' Access All Alternates in Latin lookup 0 subtable" thorn.sc
Substitution2: "'smcp' Lowercase to Small Capitals in Latin lookup 2 subtable" thorn.sc
EndChar

StartChar: Thorn
Encoding: 289 222 148
Width: 611
VWidth: 0
Flags: W
TeX: 692 0
HStem: -3 28<13 54 186.935 280> 153 35<255.19 400.825> 508 34<262.408 414.429> 664 28<116 191.019 326 368>
VStem: 482 88<288.98 450.307>
LayerCount: 2
Fore
SplineSet
9 -3 m 1
 13 25 l 1
 54 28 l 2
 94 31 96 33 112 125 c 2
 186 559 l 2
 191 590 195 621 195 635 c 0
 195 653 184 661 160 662 c 2
 113 664 l 1
 116 692 l 1
 180 690 l 1
 257 689 l 1
 347 692 l 1
 371 692 l 1
 368 664 l 1
 326 661 l 2
 289 658 282 652 275 613 c 2
 262 542 l 1
 299 542 334 542 345 543 c 0
 367 544 386 544 394 544 c 0
 507 544 570 487 570 386 c 0
 570 257 466 153 337 153 c 0
 303 153 278 159 247 174 c 1
 243 206 l 1
 272 193 293 188 323 188 c 0
 423 188 482 252 482 361 c 0
 482 460 433 508 331 508 c 0
 312 508 296 506 259 500 c 1
 253 476 l 1
 244 432 l 1
 186 93 l 2
 183 75 182 67 182 58 c 0
 182 37 192 29 218 28 c 2
 283 25 l 1
 280 -3 l 1
 227 -2 l 1
 141 0 l 1
 51 -2 l 1
 9 -3 l 1
EndSplineSet
Validated: 1
AlternateSubs2: "'aalt' Access All Alternates lookup 0 subtable" thorn.sc
AlternateSubs2: "'aalt' Access All Alternates in Latin lookup 0 subtable" thorn.sc
Substitution2: "'c2sc' Capitals to Small Capitals in Latin lookup 13 subtable" thorn.sc
Position2: "'cpsp' Capital Spacing in Latin lookup 12 subtable" dx=7 dy=0 dh=14 dv=0
EndChar

StartChar: three.superior
Encoding: 290 179 149
Width: 300
VWidth: 0
Flags: W
TeX: 699 0
HStem: 273 26<88.8147 185.034> 481 43<117 146.995> 491 33<117 146.995> 658 41<127.045 228.996>
VStem: 46 22<357.376 383.955> 242 62<350.939 471.664 570.567 645.491>
LayerCount: 2
Fore
SplineSet
28 299 m 1xdc
 46 386 l 1
 68 383 l 1
 66 374 65 365 65 357 c 0
 65 320 93 299 142 299 c 0
 196 299 242 353 242 417 c 0
 242 464 212 491 159 491 c 0xbc
 144 491 133 489 110 481 c 1
 106 494 l 1
 117 524 l 1
 133 524 l 2
 140 523 147 523 147 523 c 2
 200 519 241 561 241 610 c 0
 241 637 214 658 178 658 c 0
 152 658 132 647 114 624 c 2
 101 607 l 1
 86 617 l 1
 124 680 l 1
 157 694 176 699 200 699 c 0
 258 699 299 667 299 621 c 0
 299 577 272 547 203 515 c 1
 276 500 304 474 304 421 c 0
 304 339 223 273 123 273 c 0
 85 273 58 280 28 299 c 1xdc
EndSplineSet
Validated: 33
EndChar

StartChar: two.superior
Encoding: 291 178 150
Width: 300
VWidth: 0
Flags: W
TeX: 699 0
HStem: 278 52<74.125 275> 279 42<72 275> 652 47<103.226 215.136>
VStem: 226 64<527.864 640.222>
LayerCount: 2
Fore
SplineSet
13 278 m 1xb0
 13 299 l 1
 179 462 226 528 226 593 c 0
 226 631 204 652 162 652 c 0
 122 652 102 638 73 591 c 1
 55 601 l 1
 94 673 l 1
 122 692 147 699 180 699 c 0
 247 699 290 661 290 601 c 0
 290 560 269 516 232 479 c 2
 72 321 l 1
 208 321 l 2x70
 235 321 256 324 282 330 c 1
 286 319 l 1
 275 278 l 1xb0
 213 279 l 2
 195 279 158 280 145 280 c 0
 131 280 93 279 75 279 c 2x70
 13 278 l 1xb0
EndSplineSet
Validated: 1
EndChar

StartChar: one.superior
Encoding: 292 185 151
Width: 300
VWidth: 0
Flags: W
TeX: 699 0
HStem: 278 24<66 115 243 281> 600 46<87 100.75> 679 20G<205.5 273>
VStem: 61 224
LayerCount: 2
Fore
SplineSet
61 278 m 1
 66 302 l 1
 115 308 l 2
 135 310 141 319 146 349 c 2
 200 649 l 1
 187 643 175 638 170 637 c 0
 153 630 142 625 139 624 c 2
 85 600 l 1
 80 603 l 1
 87 646 l 1
 139 657 159 663 194 675 c 2
 263 699 l 1
 273 693 l 1
 269 679 l 2
 265 665 261 646 259 633 c 2
 207 353 l 2
 206 348 205 338 205 333 c 0
 205 313 213 307 243 305 c 2
 285 302 l 1
 281 278 l 1
 229 279 l 2
 219 279 180 280 171 280 c 0
 162 280 123 279 113 279 c 2
 61 278 l 1
EndSplineSet
Validated: 1
EndChar

StartChar: threequarters
Encoding: 293 190 152
Width: 750
VWidth: 0
GlyphClass: 3
Flags: W
TeX: 699 0
HStem: -2 24<475 494 494.009 549.25 637 664.991 665 687> 113 37<447 575 636 705.517> 273 26<95.8147 192.034> 481 43<124 153.995> 491 33<124 153.995> 658 41<134.045 235.996>
VStem: 53 22<357.376 383.955> 249 62<350.939 471.664 570.567 645.491>
LayerCount: 2
Fore
SplineSet
35 299 m 1xf7
 53 386 l 1
 75 383 l 1
 73 374 72 365 72 357 c 0
 72 320 100 299 149 299 c 0
 203 299 249 353 249 417 c 0
 249 464 219 491 166 491 c 0xef
 151 491 140 489 117 481 c 1
 113 494 l 1
 124 524 l 1
 140 524 l 2
 147 523 154 523 154 523 c 2
 207 519 248 561 248 610 c 0
 248 637 221 658 185 658 c 0
 159 658 139 647 121 624 c 2
 108 607 l 1
 93 617 l 1
 131 680 l 1
 164 694 183 699 207 699 c 0
 265 699 306 667 306 621 c 0
 306 577 279 547 210 515 c 1
 283 500 311 474 311 421 c 0
 311 339 230 273 130 273 c 0
 92 273 65 280 35 299 c 1xf7
154 0 m 1
 605 699 l 1
 661 699 l 1
 210 0 l 1
 154 0 l 1
410 113 m 1
 410 138 l 1
 629 414 l 1
 674 423 l 1
 683 416 l 1
 636 150 l 1
 712 150 l 1
 715 142 l 1
 704 110 l 1
 690 112 680 113 670 113 c 2
 627 113 l 1
 620 85 l 2
 618 77 616 60 616 50 c 0
 616 34 623 26 637 25 c 2
 691 22 l 1
 687 -2 l 1
 665 -2 l 1
 665 -2 653 -2 636 -1 c 0
 627 0 598 0 580 0 c 0
 562 0 532 0 524 -1 c 0
 507 -2 494 -2 494 -2 c 1
 472 -2 l 1
 475 22 l 1
 526 25 l 2
 547 26 555 35 562 62 c 2
 575 113 l 1
 410 113 l 1
447 150 m 1
 584 150 l 1
 632 386 l 1
 447 150 l 1
EndSplineSet
Validated: 33
Ligature2: "'frac' Diagonal Fractions in Latin lookup 20 subtable" three fraction four
Ligature2: "'frac' Diagonal Fractions in Latin lookup 20 subtable" three slash four
EndChar

StartChar: onehalf
Encoding: 294 189 153
Width: 750
VWidth: 0
GlyphClass: 3
Flags: W
TeX: 699 0
HStem: -2 52<505.125 679.989 680 706> 0 41<503 679.989 680 706> 278 24<36 85 213 251> 372 47<534.226 646.136> 600 46<57 70.75> 679 20G<175.5 243 568.096 637>
VStem: 657 64<247.864 360.222>
LayerCount: 2
Fore
SplineSet
31 278 m 1x3e
 36 302 l 1
 85 308 l 2
 105 310 111 319 116 349 c 2
 170 649 l 1
 157 643 145 638 140 637 c 0
 123 630 112 625 109 624 c 2
 55 600 l 1
 50 603 l 1
 57 646 l 1
 109 657 129 663 164 675 c 2
 233 699 l 1
 243 693 l 1
 239 679 l 2
 235 665 231 646 229 633 c 2
 177 353 l 2
 176 348 175 338 175 333 c 0
 175 313 183 307 213 305 c 2
 255 302 l 1
 251 278 l 1
 199 279 l 2
 189 279 150 280 141 280 c 0
 132 280 93 279 83 279 c 2
 31 278 l 1x3e
130 0 m 1x7e
 581 699 l 1
 637 699 l 1
 186 0 l 1
 130 0 l 1x7e
444 -2 m 1xbe
 444 19 l 1
 610 182 657 248 657 313 c 0
 657 351 635 372 593 372 c 0
 553 372 533 358 504 311 c 1
 486 321 l 1
 525 393 l 1
 553 412 578 419 611 419 c 0
 678 419 721 381 721 321 c 0
 721 280 700 236 663 199 c 2
 503 41 l 1
 639 41 l 2x7e
 666 41 687 44 713 50 c 1
 717 39 l 1
 706 -2 l 1
 680 -2 l 1xbe
 680 -2 665 -2 644 -1 c 0
 634 0 598 0 576 0 c 0x7e
 554 0 517 0 506 -1 c 0
 485 -2 470 -2 470 -2 c 1
 444 -2 l 1xbe
EndSplineSet
Validated: 1
Ligature2: "'frac' Diagonal Fractions in Latin lookup 20 subtable" one fraction two
Ligature2: "'frac' Diagonal Fractions in Latin lookup 20 subtable" one slash two
EndChar

StartChar: onequarter
Encoding: 295 188 154
Width: 750
VWidth: 0
GlyphClass: 3
Flags: W
TeX: 699 0
HStem: -2 24<475 494 494.009 549.25 637 664.991 665 687> 113 37<447 575 636 705.517> 278 24<36 85 213 251> 600 46<57 70.75> 679 20G<175.5 243 592.096 661>
LayerCount: 2
Fore
SplineSet
31 278 m 1
 36 302 l 1
 85 308 l 2
 105 310 111 319 116 349 c 2
 170 649 l 1
 157 643 145 638 140 637 c 0
 123 630 112 625 109 624 c 2
 55 600 l 1
 50 603 l 1
 57 646 l 1
 109 657 129 663 164 675 c 2
 233 699 l 1
 243 693 l 1
 239 679 l 2
 235 665 231 646 229 633 c 2
 177 353 l 2
 176 348 175 338 175 333 c 0
 175 313 183 307 213 305 c 2
 255 302 l 1
 251 278 l 1
 199 279 l 2
 189 279 150 280 141 280 c 0
 132 280 93 279 83 279 c 2
 31 278 l 1
154 0 m 1
 605 699 l 1
 661 699 l 1
 210 0 l 1
 154 0 l 1
410 113 m 1
 410 138 l 1
 629 414 l 1
 674 423 l 1
 683 416 l 1
 636 150 l 1
 712 150 l 1
 715 142 l 1
 704 110 l 1
 690 112 680 113 670 113 c 2
 627 113 l 1
 620 85 l 2
 618 77 616 60 616 50 c 0
 616 34 623 26 637 25 c 2
 691 22 l 1
 687 -2 l 1
 665 -2 l 1
 665 -2 653 -2 636 -1 c 0
 627 0 598 0 580 0 c 0
 562 0 532 0 524 -1 c 0
 507 -2 494 -2 494 -2 c 1
 472 -2 l 1
 475 22 l 1
 526 25 l 2
 547 26 555 35 562 62 c 2
 575 113 l 1
 410 113 l 1
447 150 m 1
 584 150 l 1
 632 386 l 1
 447 150 l 1
EndSplineSet
Validated: 1
Ligature2: "'frac' Diagonal Fractions in Latin lookup 20 subtable" one fraction four
Ligature2: "'frac' Diagonal Fractions in Latin lookup 20 subtable" one slash four
EndChar

StartChar: ordmasculine
Encoding: 296 186 155
Width: 333
VWidth: 0
Flags: W
TeX: 692 0
HStem: 350 34<39 283> 404 23<139.105 204.537> 676 23<180.051 247.952>
VStem: 66 49<440.594 595.881> 273 49<511.667 662.28>
LayerCount: 2
Fore
SplineSet
39 350 m 1
 39 384 l 1
 283 384 l 1
 283 350 l 1
 39 350 l 1
66 500 m 0
 66 610 141 699 235 699 c 0
 290 699 322 666 322 609 c 0
 322 497 243 404 149 404 c 0
 96 404 66 439 66 500 c 0
115 506 m 0
 115 454 136 427 175 427 c 0
 203 427 225 442 243 473 c 0
 260 504 273 557 273 601 c 0
 273 649 251 676 212 676 c 0
 155 676 115 606 115 506 c 0
EndSplineSet
Validated: 1
EndChar

StartChar: ordfeminine
Encoding: 297 170 156
Width: 333
VWidth: 0
Flags: W
TeX: 692 0
HStem: 350 34<41 304> 404 42<88.5058 126.363> 670 29<175.725 264.324>
VStem: 60 47<425.624 564.549> 211 48<446.005 463>
LayerCount: 2
Fore
SplineSet
41 350 m 1
 41 384 l 1
 304 384 l 1
 304 350 l 1
 41 350 l 1
60 454 m 0
 60 514 96 623 125 650 c 0
 160 682 198 699 235 699 c 0
 253 699 265 697 291 688 c 1
 312 699 l 1
 319 694 l 1
 260 471 l 2
 259 468 259 463 259 463 c 2
 259 453 264 446 271 446 c 0
 278 446 286 450 303 463 c 0
 307 466 310 468 313 471 c 2
 317 473 l 1
 321 461 l 1
 266 420 240 404 227 404 c 0
 217 404 211 412 211 426 c 0
 211 433 213 446 215 457 c 2
 231 535 l 1
 183 470 159 445 123 422 c 0
 104 410 91 404 82 404 c 0
 70 404 60 425 60 454 c 0
107 468 m 0
 107 454 111 447 118 447 c 0
 140 447 197 500 221 543 c 0
 239 574 248 599 265 659 c 1
 238 667 224 670 208 670 c 0
 170 670 158 660 141 613 c 2
 124 566 l 2
 114 539 107 496 107 468 c 0
EndSplineSet
Validated: 1
EndChar

StartChar: quotesinglbase
Encoding: 298 8218 157
Width: 278
VWidth: 0
Flags: W
TeX: 120 -122
HStem: -122 242
VStem: 27 184
LayerCount: 2
Fore
SplineSet
27 -115 m 1
 66 -61 95 11 112 95 c 1
 200 120 l 1
 211 108 l 1
 167 19 123 -47 68 -110 c 1
 36 -122 l 1
 27 -115 l 1
EndSplineSet
Validated: 1
EndChar

StartChar: guilsinglright
Encoding: 299 8250 158
Width: 333
VWidth: 0
Flags: W
TeX: 440 0
VStem: 63 213
LayerCount: 2
Fore
SplineSet
63 86 m 1
 200 254 l 1
 105 425 l 1
 125 440 l 1
 276 259 l 1
 276 243 l 1
 82 70 l 1
 63 86 l 1
EndSplineSet
Validated: 1
EndChar

StartChar: guilsinglleft
Encoding: 300 8249 159
Width: 333
VWidth: 0
Flags: W
TeX: 440 0
VStem: 57 213
LayerCount: 2
Fore
SplineSet
57 251 m 1
 57 267 l 1
 251 440 l 1
 270 424 l 1
 133 256 l 1
 228 85 l 1
 208 70 l 1
 57 251 l 1
EndSplineSet
Validated: 1
EndChar

StartChar: florin
Encoding: 301 402 160
Width: 500
VWidth: 0
Flags: W
TeX: 709 -276
HStem: -276 64<28.6094 78.25> 370 34<128 232 310 414>
LayerCount: 2
Fore
SplineSet
5 -276 m 1
 17 -196 l 1
 28 -192 l 1
 41 -206 54 -212 74 -212 c 0
 99 -212 121 -187 133 -146 c 1
 134 -140 l 2
 143 -110 145 -104 148 -87 c 2
 232 370 l 1
 119 370 l 1
 128 404 l 1
 237 404 l 1
 257 491 276 540 315 600 c 0
 360 669 408 711 440 709 c 1
 440 709 442 709 445 708 c 2
 470 703 l 1
 458 624 l 1
 440 640 423 647 404 647 c 0
 384 647 363 633 355 614 c 0
 345 590 336 552 321 467 c 2
 310 404 l 1
 422 404 l 1
 414 370 l 1
 305 370 l 1
 254 123 l 2
 229 2 172 -155 135 -210 c 0
 113 -242 49 -276 5 -276 c 1
EndSplineSet
Validated: 33
EndChar

StartChar: yen
Encoding: 302 165 161
Width: 500
VWidth: 0
Flags: W
TeX: 692 0
HStem: -3 28<101 142 282 321> 203 34<96 205 275 380> 310 34<112 196 302 392> 621 70<469.927 508> 630 69<74.2827 110.634>
LayerCount: 2
Fore
SplineSet
35 618 m 1xe8
 35 642 l 1
 55 659 72 674 96 699 c 1xe8
 163 701 209 596 261 319 c 1
 356 557 429 666 512 691 c 1
 508 621 l 1xf0
 455 609 424 570 362 467 c 2
 356 457 l 2
 335 422 328 404 321 387 c 2
 302 344 l 1
 398 344 l 1
 392 310 l 1
 290 310 l 1
 283 293 279 274 275 237 c 1
 386 237 l 1
 380 203 l 1
 270 203 l 1
 254 93 l 2
 252 77 251 69 251 58 c 0
 251 37 259 30 282 28 c 2
 323 25 l 1
 321 -3 l 1
 298 -3 l 1
 216 0 l 1
 144 -2 l 1
 98 -3 l 1
 101 25 l 1
 142 28 l 2
 161 29 170 34 174 43 c 0
 178 49 184 80 192 125 c 2
 205 203 l 1
 90 203 l 1
 96 237 l 1
 210 237 l 1
 212 248 212 253 212 259 c 0
 212 272 210 287 205 310 c 1
 106 310 l 1
 112 344 l 1
 196 344 l 1
 187 386 l 2
 149 562 117 630 71 630 c 0
 63 630 53 627 35 618 c 1xe8
EndSplineSet
Validated: 33
EndChar

StartChar: sterling
Encoding: 303 163 162
Width: 500
VWidth: 0
Flags: W
TeX: 692 0
HStem: -14 76<248.978 394.719> 26 53<74.7528 263.785> 322 35<41 129 209 344> 663 45<306.755 420.251>
VStem: 437 23<558 635.394>
LayerCount: 2
Fore
SplineSet
2 27 m 1x78
 79 68 104 131 126 299 c 2
 129 322 l 1
 34 322 l 1
 41 357 l 1
 135 357 l 1
 159 499 186 567 243 632 c 0
 289 684 333 708 385 708 c 0
 421 708 445 701 479 680 c 1
 466 641 461 607 460 558 c 1
 437 558 l 1
 437 612 l 2
 437 639 396 663 349 663 c 0
 300 663 267 631 255 569 c 2
 250 544 l 1
 219 400 l 1
 209 357 l 1
 351 357 l 1
 344 322 l 1
 201 322 l 1
 162 169 136 110 91 64 c 1
 129 75 150 79 176 79 c 0x78
 189 79 220 76 236 74 c 2
 295 66 l 2
 308 64 330 62 339 62 c 2
 369 62 l 2
 384 62 389 62 395 63 c 0
 411 65 423 77 431 99 c 2
 453 159 l 1
 477 159 l 1
 441 1 l 1
 425 -9 405 -14 382 -14 c 0xb8
 364 -14 336 -10 230 11 c 2
 225 12 l 1
 219 13 l 1
 213 14 l 2
 168 22 136 26 116 26 c 0
 88 26 83 24 64 10 c 0
 53 1 37 -10 23 -18 c 1
 11 -13 2 8 2 27 c 1x78
EndSplineSet
Validated: 1
EndChar

StartChar: cent
Encoding: 304 162 163
Width: 500
VWidth: 0
Flags: W
TeX: 551 -96
HStem: -11 51<184.422 266.812>
VStem: 56 74<71.2669 268.288> 374 23<330 411.823>
LayerCount: 2
Fore
SplineSet
56 140 m 0
 56 250 105 367 170 413 c 0
 226 452 272 474 316 480 c 1
 343 551 l 1
 376 551 l 1
 349 480 l 1
 374 480 396 473 418 458 c 1
 405 400 399 365 397 330 c 1
 374 330 l 1
 374 394 l 2
 374 407 363 415 330 427 c 1
 184 45 l 1
 193 42 202 40 210 40 c 0
 259 40 310 63 379 115 c 1
 386 95 l 1
 326 46 l 2
 280 9 225 -10 163 -11 c 1
 129 -96 l 1
 97 -96 l 1
 132 -2 l 1
 101 7 89 18 75 45 c 0
 63 69 56 102 56 140 c 0
130 149 m 0
 130 113 139 85 157 64 c 1
 297 432 l 1
 291 433 286 433 283 433 c 0
 246 433 208 413 189 382 c 0
 163 341 130 211 130 149 c 0
EndSplineSet
Validated: 1
AlternateSubs2: "'aalt' Access All Alternates lookup 0 subtable" cent.oldstyle
AlternateSubs2: "'aalt' Access All Alternates in Latin lookup 0 subtable" cent.oldstyle
Substitution2: "'onum' Oldstyle Figures in Latin lookup 3 subtable" cent.oldstyle
EndChar

StartChar: Oogonek
Encoding: 305 490 164
Width: 778
VWidth: 0
GlyphClass: 3
Flags: W
TeX: 692 -250
HStem: -250 58<265.5 347.688> -18 42<255.008 334> 664 42<334.344 538.202>
VStem: 53 88<145.637 415.746> 660 88<283.379 538.923>
AnchorPoint: "bot_acc" 294 -384 basechar 0
AnchorPoint: "dotbelow" 294 -384 basechar 0
AnchorPoint: "ogon_acc" 294 -384 basechar 0
AnchorPoint: "top_accu" 483 817 basechar 0
AnchorPoint: "dotabove" 483 817 basechar 0
LayerCount: 2
Fore
SplineSet
53 272 m 0
 53 523 227 706 464 706 c 0
 644 706 748 603 748 425 c 0
 748 267 670 120 544 42 c 0
 538 38 531 34 524 30 c 0
 466 -2 392 9 346 -44 c 0
 325 -68 309 -99 301 -142 c 0
 296 -173 315 -192 342 -192 c 0
 357 -192 373 -183 410 -156 c 0
 416 -152 417 -151 425 -145 c 1
 428 -166 l 1
 345 -237 317 -250 282 -250 c 0
 249 -250 226 -218 237 -158 c 0
 248 -96 288 -52 334 -18 c 1
 323 -18 l 2
 147 -18 53 83 53 272 c 0
141 277 m 0
 141 110 216 24 360 24 c 0
 438 24 503 50 552 100 c 0
 620 170 660 283 660 409 c 0
 660 519 628 594 563 632 c 0
 530 652 481 664 433 664 c 0
 357 664 297 641 250 593 c 0
 181 524 141 407 141 277 c 0
EndSplineSet
Validated: 33
AlternateSubs2: "'aalt' Access All Alternates lookup 0 subtable" oogonek.sc
AlternateSubs2: "'aalt' Access All Alternates in Latin lookup 0 subtable" oogonek.sc
Ligature2: "ccmp_lig subtable" O ogonekcomb
Substitution2: "'c2sc' Capitals to Small Capitals in Latin lookup 13 subtable" oogonek.sc
Position2: "'cpsp' Capital Spacing in Latin lookup 12 subtable" dx=7 dy=0 dh=14 dv=0
EndChar

StartChar: oogonek
Encoding: 306 491 165
Width: 444
VWidth: 0
GlyphClass: 3
Flags: W
TeX: 462 -250
HStem: -250 58<51.5 133.368> 444 38<196.067 297.195>
VStem: 17 76<-188.771 -108.867 64.0838 288.125> 335 76<201.507 407.237>
AnchorPoint: "bot_acc" 79 -384 basechar 0
AnchorPoint: "dotbelow" 79 -384 basechar 0
AnchorPoint: "ogon_acc" 79 -384 basechar 0
AnchorPoint: "top_accl" 279 616 basechar 0
AnchorPoint: "dotabove" 279 616 basechar 0
LayerCount: 2
Fore
SplineSet
17 152 m 0
 17 274 62 375 143 433 c 0
 188 465 235 482 278 482 c 0
 361 482 411 425 411 331 c 0
 411 230 367 116 305 57 c 0
 301 53 296 49 291 45 c 0
 242 6 173 4 132 -44 c 0
 111 -68 95 -99 87 -142 c 0
 81 -173 100 -192 127 -192 c 0
 142 -192 159 -183 195 -156 c 0
 201 -152 202 -151 210 -145 c 1
 214 -166 l 1
 130 -237 103 -250 68 -250 c 0
 35 -250 12 -218 22 -158 c 0
 34 -91 80 -45 131 -10 c 1
 57 -4 17 52 17 152 c 0
93 151 m 0
 93 72 127 27 185 27 c 0
 216 27 242 39 260 60 c 0
 304 113 335 219 335 315 c 0
 335 399 302 444 241 444 c 0
 217 444 194 438 181 427 c 0
 132 387 93 264 93 151 c 0
EndSplineSet
Validated: 33
AlternateSubs2: "'aalt' Access All Alternates lookup 0 subtable" oogonek.sc
AlternateSubs2: "'aalt' Access All Alternates in Latin lookup 0 subtable" oogonek.sc
Ligature2: "ccmp_lig subtable" o ogonekcomb
Substitution2: "'smcp' Lowercase to Small Capitals in Latin lookup 2 subtable" oogonek.sc
EndChar

StartChar: Ohorn
Encoding: 307 416 166
Width: 778
VWidth: 0
GlyphClass: 2
Flags: W
TeX: 692 0
HStem: -18 42<258.067 461.093> 664 42<340.226 547.215>
VStem: 55 88<146.953 405.258> 664 88<290.228 543.981> 724 89<708.97 740.511>
AnchorPoint: "bot_acc" 313 -154 basechar 0
AnchorPoint: "dotbelow" 313 -154 basechar 0
AnchorPoint: "ogon_acc" 313 -154 basechar 0
AnchorPoint: "top_accu" 484 817 basechar 0
AnchorPoint: "dotabove" 484 817 basechar 0
LayerCount: 2
Fore
SplineSet
55 272 m 0xf0
 58 523 233 706 470 706 c 0
 554 706 622 683 670 641 c 1
 708 661 719 692 724 736 c 1
 771 746 760 744 803 753 c 1
 813 746 l 1xe8
 800 719 758 649 697 612 c 1
 733 565 753 502 752 425 c 0
 750 267 671 120 544 42 c 0
 479 1 408 -18 323 -18 c 0
 147 -18 54 83 55 272 c 0xf0
143 277 m 0
 142 110 216 24 360 24 c 0
 438 24 503 50 553 100 c 0
 622 170 663 283 664 409 c 0xf0
 665 519 633 594 569 632 c 0
 536 652 487 664 439 664 c 0
 363 664 303 641 255 593 c 0
 186 524 145 407 143 277 c 0
EndSplineSet
Validated: 33
AlternateSubs2: "'aalt' Access All Alternates lookup 0 subtable" ohorn.sc
AlternateSubs2: "'aalt' Access All Alternates in Latin lookup 0 subtable" ohorn.sc
Substitution2: "'c2sc' Capitals to Small Capitals in Latin lookup 13 subtable" ohorn.sc
Position2: "'cpsp' Capital Spacing in Latin lookup 12 subtable" dx=7 dy=0 dh=14 dv=0
EndChar

StartChar: Uhorn
Encoding: 308 431 167
Width: 793
VWidth: 0
GlyphClass: 2
Flags: W
TeX: 692 0
HStem: -19 58<227.271 381.965> -3 28<649 704> 664 28<97 178.119 554 629.645>
VStem: 98 78<87.4733 282.078>
AnchorPoint: "bot_acc" 304 -154 basechar 0
AnchorPoint: "dotbelow" 304 -154 basechar 0
AnchorPoint: "ogon_acc" 587 -154 basechar 0
AnchorPoint: "top_accu" 475 817 basechar 0
AnchorPoint: "dotabove" 475 817 basechar 0
LayerCount: 2
Fore
SplineSet
94 664 m 1xb0
 97 692 l 1
 129 691 l 2
 157 690 177 689 187 689 c 0
 198 689 218 690 245 691 c 2
 276 692 l 1
 184 215 l 2
 179 187 177 171 176 154 c 0
 176 84 229 39 314 39 c 0xb0
 352 39 389 48 428 68 c 0
 479 93 509 119 558 177 c 1
 633 622 l 2
 634 626 634 629 634 634 c 0
 634 653 623 661 599 662 c 2
 551 664 l 1
 554 692 l 1
 617 690 l 1
 697 689 l 1
 728 690 l 1
 719 639 l 1
 760 659 772 690 777 736 c 1
 824 746 813 744 856 753 c 1
 866 746 l 1
 851 714 794 621 711 595 c 1
 624 106 l 2
 619 70 618 65 617 50 c 0
 617 37 626 31 649 29 c 2
 709 25 l 1
 704 -3 l 1
 672 -2 l 1
 614 0 l 1
 552 -3 l 1
 530 -3 l 1x70
 525 2 l 1
 539 57 545 83 553 129 c 1
 501 69 468 44 409 15 c 0
 361 -9 320 -19 276 -19 c 0
 164 -19 97 43 98 144 c 0
 98 160 101 185 105 206 c 2
 172 581 l 2
 176 602 180 630 180 639 c 0
 180 656 172 661 146 662 c 2
 94 664 l 1xb0
EndSplineSet
Validated: 33
AlternateSubs2: "'aalt' Access All Alternates lookup 0 subtable" uhorn.sc
AlternateSubs2: "'aalt' Access All Alternates in Latin lookup 0 subtable" uhorn.sc
Substitution2: "'c2sc' Capitals to Small Capitals in Latin lookup 13 subtable" uhorn.sc
Position2: "'cpsp' Capital Spacing in Latin lookup 12 subtable" dx=7 dy=0 dh=14 dv=0
EndChar

StartChar: ohorn
Encoding: 309 417 168
Width: 479
VWidth: 0
GlyphClass: 2
Flags: W
TeX: 462 0
HStem: -11 38<132.149 229.374> 444 38<200.067 300.817>
VStem: 18 76<63.7658 282.456> 338 76<206.104 389.155>
AnchorPoint: "bot_acc" 151 -154 basechar 0
AnchorPoint: "dotbelow" 151 -154 basechar 0
AnchorPoint: "ogon_acc" 151 -154 basechar 0
AnchorPoint: "top_accl" 287 616 basechar 0
AnchorPoint: "dotabove" 287 616 basechar 0
LayerCount: 2
Fore
SplineSet
18 152 m 0
 19 274 65 375 147 433 c 0
 192 465 239 482 282 482 c 0
 332 482 369 461 392 425 c 1
 422 445 432 474 437 515 c 1
 484 525 473 523 516 532 c 1
 526 525 l 1
 513 498 470 426 407 390 c 1
 411 372 414 352 414 331 c 0
 413 230 368 116 306 57 c 0
 260 15 200 -11 145 -11 c 0
 62 -11 17 46 18 152 c 0
94 151 m 0
 94 72 127 27 185 27 c 0
 216 27 242 39 261 60 c 0
 305 113 337 219 338 315 c 0
 339 399 306 444 245 444 c 0
 221 444 198 438 185 427 c 0
 135 387 95 264 94 151 c 0
EndSplineSet
Validated: 33
AlternateSubs2: "'aalt' Access All Alternates lookup 0 subtable" ohorn.sc
AlternateSubs2: "'aalt' Access All Alternates in Latin lookup 0 subtable" ohorn.sc
Substitution2: "'smcp' Lowercase to Small Capitals in Latin lookup 2 subtable" ohorn.sc
EndChar

StartChar: uhorn
Encoding: 310 432 169
Width: 577
VWidth: 0
GlyphClass: 2
Flags: W
TeX: 462 0
HStem: -11 70<114.565 160.358> 462 20G<186 203 421 496>
VStem: 67 80<11.7096 152.594> 322 81<14.8168 132.344>
AnchorPoint: "bot_acc" 209 -154 basechar 0
AnchorPoint: "dotbelow" 209 -154 basechar 0
AnchorPoint: "ogon_acc" 209 -154 basechar 0
AnchorPoint: "top_accl" 345 616 basechar 0
AnchorPoint: "dotabove" 345 616 basechar 0
LayerCount: 2
Fore
SplineSet
35 388 m 1
 64 408 l 2
 138 461 176 482 196 482 c 0
 210 482 219 470 219 451 c 0
 219 438 217 424 214 408 c 2
 154 137 l 2
 149 112 147 99 147 85 c 0
 147 68 152 59 160 59 c 0
 200 59 278 130 338 221 c 0
 369 268 395 336 411 414 c 2
 421 465 l 1
 489 482 l 1
 496 473 l 1
 482 421 l 1
 518 441 529 472 534 515 c 1
 581 525 570 523 613 532 c 1
 623 525 l 1
 608 494 552 401 470 375 c 1
 409 116 l 1
 408 110 l 2
 405 95 403 84 403 76 c 0
 403 66 408 59 416 59 c 0
 427 59 453 70 477 86 c 2
 503 103 l 1
 513 85 l 1
 414 12 378 -9 352 -9 c 0
 333 -9 322 6 322 31 c 0
 322 46 327 73 334 97 c 2
 372 239 l 1
 287 101 165 -11 102 -11 c 0
 82 -11 67 7 67 30 c 0
 67 44 70 68 72 77 c 2
 137 374 l 2
 138 378 139 388 140 392 c 0
 140 403 132 412 123 412 c 0
 114 412 103 407 74 389 c 2
 42 368 l 1
 35 388 l 1
EndSplineSet
Validated: 1
AlternateSubs2: "'aalt' Access All Alternates lookup 0 subtable" uhorn.sc
AlternateSubs2: "'aalt' Access All Alternates in Latin lookup 0 subtable" uhorn.sc
Substitution2: "'smcp' Lowercase to Small Capitals in Latin lookup 2 subtable" uhorn.sc
EndChar

StartChar: zero.taboldstyle
Encoding: 311 -1 170
Width: 500
VWidth: 0
Flags: W
TeX: 478 -11
HStem: -11 29<167.697 272.64> 449 29<222.835 341.008>
VStem: 36 76<72.2644 305.014> 394 76<172.365 398.952>
LayerCount: 2
Fore
SplineSet
36 171 m 0
 36 375 159 478 298 478 c 0
 404 478 470 430 470 287 c 0
 470 138 367 -11 208 -11 c 0
 107 -11 36 16 36 171 c 0
112 168 m 0
 112 97 145 18 212 18 c 0
 321 18 394 124 394 281 c 0
 394 394 361 449 292 449 c 0
 176 449 112 358 112 168 c 0
EndSplineSet
Validated: 1
AlternateSubs2: "'aalt' Access All Alternates lookup 0 subtable" zero.oldstyle zero
AlternateSubs2: "'aalt' Access All Alternates in Latin lookup 0 subtable" zero.oldstyle zero
Substitution2: "'pnum' Proportional Numbers in Latin lookup 5 subtable" zero.oldstyle
Substitution2: "'lnum' Lining Figures in Latin lookup 4 subtable" zero
EndChar

StartChar: one.taboldstyle
Encoding: 312 -1 171
Width: 500
VWidth: 0
Flags: W
TeX: 482 -3
HStem: -3 27<59 118.5 327 393> 462 20G<269.444 340>
LayerCount: 2
Fore
SplineSet
54 -3 m 1
 59 24 l 1
 144 34 l 2
 175 38 184 50 192 102 c 2
 244 409 l 1
 209 401 171 387 161 382 c 2
 77 344 l 1
 70 349 l 1
 81 408 l 1
 105 412 l 2
 136 417 185 432 225 446 c 2
 325 482 l 1
 340 471 l 1
 316 356 l 1
 276 136 l 2
 269 94 268 87 268 76 c 0
 268 41 281 31 327 28 c 2
 398 24 l 1
 393 -3 l 1
 337 -1 280 0 224 0 c 0
 167 0 111 -1 54 -3 c 1
EndSplineSet
Validated: 1
AlternateSubs2: "'aalt' Access All Alternates lookup 0 subtable" one.oldstyle one
AlternateSubs2: "'aalt' Access All Alternates in Latin lookup 0 subtable" one.oldstyle one
Substitution2: "'pnum' Proportional Numbers in Latin lookup 5 subtable" one.oldstyle
Substitution2: "'lnum' Lining Figures in Latin lookup 4 subtable" one
EndChar

StartChar: two.taboldstyle
Encoding: 313 -1 172
Width: 500
VWidth: 0
Flags: W
TeX: 477 -3
HStem: -3 77<182.875 415> 0 63<111 415> 412 65<152.341 296.574>
VStem: 322 85<270.693 386.178>
LayerCount: 2
Fore
SplineSet
12 -3 m 1xb0
 12 15 l 1
 61 67 l 1
 273 185 322 241 322 321 c 0
 322 387 287 412 221 412 c 0
 164 412 137 399 98 344 c 1
 76 353 l 1
 116 433 l 1
 160 465 197 477 248 477 c 0
 351 477 407 434 407 336 c 0
 407 244 275 144 111 63 c 1
 311 63 l 2x70
 346 63 380 66 426 74 c 1
 432 66 l 1
 415 -3 l 1xb0
 348 -1 281 0 214 0 c 0x70
 147 0 79 -1 12 -3 c 1xb0
EndSplineSet
Validated: 1
AlternateSubs2: "'aalt' Access All Alternates lookup 0 subtable" two.oldstyle two
AlternateSubs2: "'aalt' Access All Alternates in Latin lookup 0 subtable" two.oldstyle two
Substitution2: "'pnum' Proportional Numbers in Latin lookup 5 subtable" two.oldstyle
Substitution2: "'lnum' Lining Figures in Latin lookup 4 subtable" two
EndChar

StartChar: three.taboldstyle
Encoding: 314 -1 173
Width: 500
VWidth: 0
Flags: W
TeX: 478 -225
HStem: -225 36<71.9439 208.074> 141 37<120.703 242.025> 417 61<151.832 286.813>
VStem: 320 79<269.752 385.256> 321 86<-60.7785 88.5836>
LayerCount: 2
Fore
SplineSet
-16 -173 m 1xe8
 33 -118 l 1
 61 -173 83 -189 137 -189 c 0
 246 -189 321 -73 321 7 c 0xe8
 321 92 271 141 186 141 c 0
 161 141 144 138 108 125 c 1
 102 137 l 1
 120 180 l 1
 135 180 150 179 164 178 c 0
 251 174 320 243 320 324 c 0
 320 380 280 417 219 417 c 0
 175 417 155 406 122 369 c 2
 101 345 l 1
 82 358 l 1
 130 447 l 1
 180 470 210 478 246 478 c 0
 337 478 399 425 399 348 c 0xf0
 399 276 359 227 254 172 c 1
 307 159 330 150 355 132 c 0
 390 105 407 66 407 14 c 0
 407 -85 271 -225 119 -225 c 0
 56 -225 32 -210 -16 -173 c 1xe8
EndSplineSet
Validated: 33
AlternateSubs2: "'aalt' Access All Alternates lookup 0 subtable" three.oldstyle three
AlternateSubs2: "'aalt' Access All Alternates in Latin lookup 0 subtable" three.oldstyle three
Substitution2: "'pnum' Proportional Numbers in Latin lookup 5 subtable" three.oldstyle
Substitution2: "'lnum' Lining Figures in Latin lookup 4 subtable" three
EndChar

StartChar: four.taboldstyle
Encoding: 315 -1 174
Width: 500
VWidth: 0
Flags: W
TeX: 507 -222
HStem: 0 56<55 248 326 442.941>
LayerCount: 2
Fore
SplineSet
-5 0 m 1
 -5 31 l 1
 332 492 l 1
 401 507 l 1
 409 502 l 1
 326 56 l 1
 454 56 l 1
 458 51 l 1
 442 -4 l 1
 425 -3 407 -1 389 -1 c 2
 316 -1 l 1
 281 -204 l 1
 203 -222 l 1
 248 0 l 1
 -5 0 l 1
55 56 m 1
 258 56 l 1
 325 429 l 1
 55 56 l 1
EndSplineSet
Validated: 1
AlternateSubs2: "'aalt' Access All Alternates lookup 0 subtable" four.oldstyle four
AlternateSubs2: "'aalt' Access All Alternates in Latin lookup 0 subtable" four.oldstyle four
Substitution2: "'pnum' Proportional Numbers in Latin lookup 5 subtable" four.oldstyle
Substitution2: "'lnum' Lining Figures in Latin lookup 4 subtable" four
EndChar

StartChar: five.taboldstyle
Encoding: 316 -1 175
Width: 500
VWidth: 0
Flags: W
TeX: 479 -225
HStem: -225 36<91.9439 226.598> 175 45<170.348 293.049> 409 69<176.519 446>
VStem: 329 86<-45.2738 135.803>
LayerCount: 2
Fore
SplineSet
4 -173 m 1
 53 -118 l 1
 81 -173 103 -189 157 -189 c 0
 266 -189 329 -82 329 33 c 0
 329 123 304 175 225 175 c 0
 179 175 148 159 105 115 c 1
 84 124 l 1
 148 474 l 1
 156 479 l 1
 177 478 l 2
 238 475 266 472 323 472 c 2
 475 476 l 1
 481 467 l 1
 446 409 l 1
 395 406 340 404 299 404 c 0
 261 404 219 406 178 409 c 1
 127 168 l 1
 167 204 210 220 266 220 c 0
 369 220 415 154 415 52 c 0
 415 -76 291 -225 139 -225 c 0
 76 -225 52 -210 4 -173 c 1
EndSplineSet
Validated: 1
AlternateSubs2: "'aalt' Access All Alternates lookup 0 subtable" five.oldstyle five
AlternateSubs2: "'aalt' Access All Alternates in Latin lookup 0 subtable" five.oldstyle five
Substitution2: "'pnum' Proportional Numbers in Latin lookup 5 subtable" five.oldstyle
Substitution2: "'lnum' Lining Figures in Latin lookup 4 subtable" five
EndChar

StartChar: six.taboldstyle
Encoding: 317 -1 176
Width: 500
VWidth: 0
Flags: W
TeX: 692 -11
HStem: -11 46<171.216 288.766> 362 55<225.686 330.836> 635 64<381.069 453> 653 46<315.686 453.629>
VStem: 49 76<86.6119 275.799> 372 76<154.308 318.536>
LayerCount: 2
Fore
SplineSet
49 200 m 0xdc
 49 332 96 463 182 568 c 0
 256 659 329 699 421 699 c 0
 440 699 455 697 469 694 c 1
 453 635 l 1
 445 635 l 1xec
 414 650 403 653 380 653 c 0
 314 653 254 610 209 531 c 0
 177 475 155 411 133 311 c 1
 195 387 245 417 312 417 c 0
 397 417 448 360 448 263 c 0
 448 215 436 166 413 125 c 0
 369 46 282 -11 202 -11 c 0
 106 -11 49 68 49 200 c 0xdc
125 174 m 0
 125 90 168 35 234 35 c 0
 313 35 372 120 372 236 c 0
 372 315 332 362 265 362 c 0
 184 362 125 283 125 174 c 0
EndSplineSet
Validated: 1
AlternateSubs2: "'aalt' Access All Alternates lookup 0 subtable" six.oldstyle six
AlternateSubs2: "'aalt' Access All Alternates in Latin lookup 0 subtable" six.oldstyle six
Substitution2: "'pnum' Proportional Numbers in Latin lookup 5 subtable" six.oldstyle
Substitution2: "'lnum' Lining Figures in Latin lookup 4 subtable" six
EndChar

StartChar: seven.taboldstyle
Encoding: 318 -1 177
Width: 500
VWidth: 0
Flags: W
TeX: 481 -212
HStem: 404 74<64 395>
LayerCount: 2
Fore
SplineSet
16 -204 m 1
 41 -166 23 -196 117 -45 c 2
 395 404 l 1
 153 404 l 2
 120 404 87 401 54 399 c 1
 48 403 l 1
 64 481 l 1
 162 479 260 478 358 478 c 0
 394 478 430 479 466 481 c 1
 465 479 465 444 465 444 c 1
 339 241 l 2
 260 114 177 -46 103 -212 c 1
 103 -212 80 -209 65 -209 c 0
 48 -209 35 -210 21 -212 c 1
 16 -204 l 1
EndSplineSet
Validated: 1
AlternateSubs2: "'aalt' Access All Alternates lookup 0 subtable" seven.oldstyle seven
AlternateSubs2: "'aalt' Access All Alternates in Latin lookup 0 subtable" seven.oldstyle seven
Substitution2: "'pnum' Proportional Numbers in Latin lookup 5 subtable" seven.oldstyle
Substitution2: "'lnum' Lining Figures in Latin lookup 4 subtable" seven
EndChar

